<?xml version="1.0" standalone="no"?>
<!DOCTYPE svg PUBLIC "-//W3C//DTD SVG 20010904//EN"
 "http://www.w3.org/TR/2001/REC-SVG-20010904/DTD/svg10.dtd">
<svg version="1.0" xmlns="http://www.w3.org/2000/svg"
 width="1248.000000pt" height="1248.000000pt" viewBox="0 0 1248.000000 1248.000000"
 preserveAspectRatio="xMidYMid meet">
<metadata>
Created by potrace 1.11, written by Peter Selinger 2001-2013
</metadata>
<g transform="translate(0.000000,1248.000000) scale(0.100000,-0.100000)"
fill="#000000" stroke="none">
<path d="M6104 12428 c-37 -59 -106 -166 -176 -271 -32 -49 -58 -90 -58 -92 0
-2 -16 -27 -35 -56 -20 -30 -40 -61 -45 -69 -5 -8 -30 -46 -55 -83 -25 -38
-45 -70 -45 -71 0 -3 -144 -225 -157 -242 -14 -18 -33 -48 -46 -74 -6 -14 -19
-33 -28 -43 -9 -9 -22 -30 -30 -45 -8 -15 -18 -31 -22 -37 -15 -19 -167 -256
-167 -261 0 -3 -5 -10 -11 -17 -5 -7 -42 -61 -81 -122 -39 -60 -94 -146 -123
-190 -106 -164 -182 -281 -205 -320 -13 -22 -27 -42 -30 -45 -3 -3 -32 -48
-65 -100 -32 -52 -78 -123 -102 -158 -24 -35 -43 -65 -43 -67 0 -3 -22 -37
-48 -77 -46 -69 -85 -129 -209 -322 -28 -45 -55 -85 -60 -91 -5 -5 -12 -17
-16 -25 -20 -39 -90 -144 -99 -148 -5 -2 -8 -8 -8 -13 0 -8 -58 -99 -197 -310
-34 -54 -63 -100 -63 -104 0 -3 -6 -12 -12 -20 -7 -7 -53 -76 -103 -154 -49
-77 -127 -198 -172 -268 -92 -142 -89 -137 -138 -212 -19 -29 -35 -57 -35 -61
0 -5 -6 -15 -13 -22 -20 -20 -127 -187 -127 -198 0 -6 -3 -10 -8 -10 -4 0 -16
-16 -27 -36 -10 -19 -27 -45 -37 -56 -10 -12 -18 -27 -18 -35 0 -7 -5 -13 -10
-13 -6 0 -14 -8 -17 -17 -7 -18 -101 -166 -174 -275 -22 -32 -39 -62 -39 -68
0 -5 -4 -10 -10 -10 -5 0 -10 -6 -10 -13 0 -7 -9 -23 -20 -35 -11 -12 -20 -24
-20 -27 0 -5 -47 -79 -63 -100 -4 -5 -23 -35 -42 -65 -19 -30 -39 -62 -45 -70
-27 -39 -80 -122 -120 -187 -25 -40 -48 -73 -52 -73 -5 0 -8 -5 -8 -10 0 -6
-59 -101 -130 -211 -72 -110 -130 -204 -130 -209 0 -6 -4 -10 -8 -10 -5 0 -18
-18 -29 -39 l-21 -40 151 -83 c84 -46 160 -87 169 -93 9 -5 50 -27 90 -49 40
-21 78 -42 83 -46 11 -8 42 -26 280 -155 39 -21 78 -45 88 -53 9 -8 17 -11 17
-7 0 4 8 2 18 -6 9 -8 42 -28 72 -44 83 -43 93 -49 108 -62 7 -7 18 -13 23
-13 5 0 61 -29 124 -65 63 -36 119 -65 125 -65 5 0 10 -4 10 -10 0 -5 5 -10
10 -10 6 0 82 -40 170 -90 88 -49 164 -90 170 -90 5 0 10 -4 10 -10 0 -5 5
-10 10 -10 6 0 65 -30 131 -67 66 -38 141 -79 167 -93 26 -13 49 -27 52 -30 3
-3 23 -14 45 -26 78 -40 200 -108 237 -131 21 -12 44 -23 53 -23 8 0 15 -4 15
-10 0 -5 19 -18 43 -29 23 -11 71 -36 107 -56 126 -71 176 -98 250 -138 41
-22 77 -43 80 -46 3 -3 28 -17 55 -31 28 -13 52 -27 55 -30 3 -3 28 -16 55
-30 28 -14 52 -27 55 -30 3 -3 14 -10 25 -16 11 -6 56 -30 100 -54 44 -24 92
-51 107 -61 14 -11 29 -19 33 -19 4 0 48 -23 99 -52 173 -98 211 -119 229
-125 9 -3 17 -9 17 -14 0 -5 9 -9 20 -9 11 0 20 -4 20 -10 0 -5 4 -10 9 -10 6
0 27 -10 48 -22 20 -12 42 -23 49 -24 9 -1 11 992 11 4092 0 2252 -2 4094 -3
4094 -2 0 -16 -19 -30 -42z"/>
<path d="M6343 8370 c0 -2249 2 -4090 6 -4090 3 1 38 19 76 40 39 22 90 50
115 63 25 13 82 45 126 71 45 25 87 46 93 46 6 0 11 3 11 8 0 4 15 13 33 21
17 8 34 17 37 20 5 6 13 10 160 88 47 25 90 49 95 54 6 4 35 21 65 37 30 16
73 39 95 52 22 12 78 43 125 68 47 25 87 48 90 51 3 3 25 16 50 29 61 30 152
82 168 94 6 6 12 7 12 2 0 -5 4 -4 8 1 4 6 16 15 27 21 11 6 45 25 75 41 30
17 118 66 195 108 77 43 158 87 180 100 22 12 76 42 120 66 44 24 87 49 97 54
9 6 42 24 75 41 32 18 127 70 212 118 85 47 158 86 162 86 5 0 9 5 9 10 0 6 3
9 8 8 4 -1 53 23 108 55 56 31 107 57 112 57 6 0 12 4 14 8 2 5 44 30 93 57
50 26 99 53 110 59 11 6 23 16 27 21 4 6 8 6 8 1 0 -5 8 -3 18 5 19 16 39 28
127 74 60 32 273 151 350 194 22 13 46 28 53 33 6 6 12 7 12 4 0 -4 13 2 29
13 15 11 39 25 52 31 13 6 42 22 64 35 45 28 76 42 89 43 5 0 12 4 15 9 3 5
25 20 48 33 l42 23 -17 31 c-9 17 -19 33 -23 36 -8 7 -69 100 -69 105 0 2 -17
30 -39 62 -44 66 -123 188 -267 413 -54 85 -102 157 -106 158 -5 2 -8 8 -8 14
0 9 -17 36 -102 160 -10 15 -18 31 -18 37 0 5 -3 11 -7 13 -9 3 -73 96 -73
104 0 3 -31 52 -70 110 -38 57 -70 107 -70 110 0 2 -5 10 -10 17 -6 7 -29 41
-52 77 -40 62 -123 191 -214 332 -24 37 -44 71 -44 76 0 6 -7 12 -15 16 -8 3
-15 12 -15 20 0 8 -6 21 -12 28 -21 21 -108 157 -108 167 0 5 -3 11 -7 13 -11
4 -63 85 -63 96 0 5 -9 17 -20 27 -11 10 -20 22 -20 27 0 5 -5 14 -10 21 -20
23 -130 198 -130 207 0 4 -4 10 -8 12 -8 3 -102 141 -111 162 -6 13 -179 279
-191 293 -5 7 -10 14 -10 17 0 2 -58 94 -128 203 -71 109 -191 295 -267 413
-76 118 -163 253 -193 300 -30 47 -58 87 -62 90 -3 3 -9 12 -12 21 -4 9 -58
95 -122 193 -64 97 -116 181 -116 186 0 6 -4 10 -10 10 -5 0 -10 4 -10 10 0 5
-17 35 -39 67 -21 32 -63 96 -93 143 -30 47 -98 151 -151 233 -53 81 -103 160
-112 175 -28 50 -40 67 -52 75 -7 4 -13 12 -13 18 0 5 -29 54 -64 107 -35 53
-94 145 -132 205 -38 59 -122 188 -186 287 -65 99 -118 184 -118 189 0 5 -4
11 -8 13 -4 2 -25 31 -46 66 -20 34 -41 62 -45 62 -4 0 -8 -1840 -8 -4090z"/>
<path d="M2305 5814 c36 -52 65 -97 65 -100 0 -3 5 -10 10 -17 23 -27 290
-439 290 -448 0 -5 5 -9 10 -9 6 0 10 -6 10 -14 0 -8 4 -16 8 -18 5 -1 37 -48
72 -103 36 -55 68 -104 72 -110 5 -5 46 -68 93 -140 46 -71 89 -137 95 -145 9
-14 94 -143 312 -478 51 -78 98 -150 103 -159 6 -9 16 -23 23 -31 7 -8 20 -28
29 -45 8 -18 28 -48 43 -67 15 -19 29 -39 31 -45 4 -10 61 -97 231 -354 48
-73 88 -137 88 -142 0 -5 3 -9 8 -9 4 0 23 -27 42 -60 19 -33 38 -60 43 -60 4
0 7 -7 7 -15 0 -8 5 -15 11 -15 5 0 8 -4 5 -9 -4 -5 -3 -11 1 -13 5 -1 51 -68
103 -148 52 -80 98 -146 102 -148 4 -2 8 -7 8 -12 0 -8 139 -224 159 -247 6
-7 11 -14 11 -17 0 -3 13 -24 29 -48 16 -24 90 -137 166 -253 121 -185 162
-247 200 -303 6 -8 38 -58 72 -111 34 -53 67 -101 72 -108 6 -7 11 -15 11 -18
0 -4 11 -21 25 -39 14 -18 25 -38 25 -44 0 -7 4 -12 8 -12 5 0 15 -12 23 -27
8 -16 16 -30 19 -33 3 -3 26 -36 50 -75 25 -38 48 -71 52 -73 5 -2 8 -8 8 -13
0 -5 45 -77 100 -159 55 -82 100 -154 100 -160 0 -5 5 -10 10 -10 6 0 10 -6
10 -13 0 -8 9 -22 20 -32 11 -10 20 -24 20 -32 0 -7 5 -13 10 -13 6 0 10 -5
10 -10 0 -6 5 -16 11 -23 6 -7 44 -64 85 -127 41 -63 125 -191 187 -285 62
-93 114 -174 117 -180 10 -20 104 -160 110 -165 4 -3 9 -10 11 -16 10 -29 165
-254 175 -254 8 0 11 511 10 1921 l-1 1921 -110 56 c-60 32 -112 59 -115 62
-3 3 -25 16 -50 28 -25 13 -94 50 -155 82 -60 32 -130 69 -155 82 -25 12 -46
26 -48 31 -2 4 -12 7 -22 7 -10 0 -20 3 -22 8 -1 4 -30 21 -63 38 -33 17 -98
51 -145 75 -47 24 -87 46 -90 49 -3 3 -27 16 -55 30 -27 13 -52 27 -55 30 -3
3 -45 25 -95 50 -49 25 -92 47 -95 50 -3 3 -36 21 -75 40 -38 19 -72 37 -75
40 -3 3 -34 20 -70 38 -124 64 -185 97 -190 102 -3 3 -54 30 -115 60 -60 30
-112 58 -115 61 -3 3 -25 16 -50 28 -25 12 -72 37 -106 55 -57 31 -162 87
-364 194 -47 25 -120 64 -162 88 -43 23 -78 40 -78 37 0 -3 -8 1 -17 9 -10 9
-36 24 -58 35 -47 23 -247 128 -290 153 -16 10 -75 41 -130 70 -253 133 -357
190 -372 202 -7 6 -13 7 -13 3 0 -4 -6 -3 -12 3 -21 17 -275 152 -310 165 -11
4 9 -32 47 -89z"/>
<path d="M10195 5894 c-11 -9 -39 -24 -61 -34 -23 -10 -45 -23 -48 -29 -4 -6
-16 -11 -26 -11 -10 0 -20 -3 -22 -7 -1 -5 -25 -20 -53 -34 -27 -14 -84 -44
-126 -67 -42 -23 -79 -39 -83 -35 -3 3 -6 2 -6 -4 0 -9 -35 -30 -54 -31 -5 0
-12 -4 -15 -9 -3 -4 -40 -26 -81 -47 -41 -22 -91 -48 -110 -59 -32 -18 -86
-47 -295 -157 -44 -23 -100 -53 -125 -66 -25 -14 -94 -51 -155 -83 -60 -32
-135 -72 -165 -88 -30 -16 -89 -47 -130 -68 -41 -22 -77 -42 -80 -45 -3 -3
-39 -22 -80 -43 -41 -21 -109 -56 -150 -78 -41 -23 -120 -65 -175 -94 -55 -29
-131 -69 -170 -90 -165 -90 -263 -141 -302 -160 -24 -11 -43 -23 -43 -27 0 -5
-9 -8 -20 -8 -11 0 -20 -4 -20 -8 0 -4 -20 -16 -45 -26 -25 -11 -50 -25 -56
-33 -6 -7 -20 -13 -30 -13 -11 0 -19 -3 -19 -8 0 -4 -24 -18 -52 -31 -29 -13
-55 -27 -58 -30 -3 -3 -32 -19 -65 -35 -33 -16 -62 -32 -65 -36 -3 -3 -21 -12
-40 -20 -19 -8 -37 -16 -40 -19 -3 -3 -34 -21 -70 -40 -124 -65 -352 -186
-425 -226 -27 -15 -90 -48 -140 -73 -49 -26 -92 -49 -95 -52 -3 -3 -17 -11
-31 -17 l-26 -11 1 -1918 c1 -1269 4 -1918 11 -1921 8 -2 61 69 100 135 6 10
49 76 96 147 267 404 359 547 359 555 0 6 3 10 8 10 4 0 29 36 56 80 27 44 52
80 56 80 4 0 10 8 13 18 7 21 37 71 55 90 6 7 12 17 12 22 0 5 6 15 13 22 12
12 86 120 97 143 3 6 23 37 45 69 22 33 45 67 50 76 52 84 140 216 147 218 4
2 8 8 8 12 0 5 11 26 25 47 14 21 31 46 38 57 6 10 20 29 30 41 9 13 17 26 17
29 0 8 64 101 73 104 4 2 7 7 7 12 0 4 34 59 75 121 41 62 75 113 75 114 0 2
139 215 160 245 6 8 62 94 124 190 63 96 119 181 126 187 6 7 7 13 3 13 -4 0
-3 4 3 8 5 4 33 43 62 87 28 44 55 85 59 90 5 6 20 28 33 50 13 22 28 42 32
43 4 2 8 8 8 13 0 5 31 55 68 111 38 57 103 155 144 218 41 63 128 196 194
295 65 99 121 184 123 188 2 5 56 89 121 186 159 239 234 354 240 366 3 6 29
45 58 88 28 43 52 81 52 83 0 3 5 10 11 17 20 23 179 268 179 277 0 5 4 10 8
12 4 2 41 55 82 118 41 63 79 118 85 122 6 5 6 8 0 8 -7 0 -7 3 0 8 6 4 31 39
56 77 25 39 83 125 128 193 44 67 81 124 81 127 0 8 65 100 73 103 4 2 7 10 7
18 0 8 5 14 10 14 6 0 10 5 10 10 0 6 18 37 40 69 22 32 40 61 40 65 0 10 -14
6 -35 -10z"/>
</g>
</svg>
