<?xml version="1.0" encoding="UTF-8"?>
<svg width="109px" height="166px" viewBox="0 0 109 166" version="1.1" xmlns="http://www.w3.org/2000/svg" xmlns:xlink="http://www.w3.org/1999/xlink">
    <defs>
        <linearGradient x1="100%" y1="41.3378906%" x2="-4.42222481%" y2="100%" id="linearGradient-1">
            <stop stop-color="#FAD961" offset="0%"></stop>
            <stop stop-color="#F76B1C" offset="100%"></stop>
        </linearGradient>
        <linearGradient x1="116.855197%" y1="-6.87908794%" x2="2.42919922%" y2="100%" id="linearGradient-2">
            <stop stop-color="#FFFFFF" stop-opacity="0" offset="0%"></stop>
            <stop stop-color="#FFFFFF" offset="100%"></stop>
        </linearGradient>
        <linearGradient x1="4.36469184%" y1="98.4863281%" x2="100%" y2="16.5731741%" id="linearGradient-3">
            <stop stop-color="#FFFFFF" stop-opacity="0" offset="0%"></stop>
            <stop stop-color="#FFCC6D" offset="100%"></stop>
        </linearGradient>
        <linearGradient x1="112.765625%" y1="17.7636719%" x2="34.5859375%" y2="74.5605469%" id="linearGradient-4">
            <stop stop-color="#FAD961" offset="0%"></stop>
            <stop stop-color="#F76B1C" offset="100%"></stop>
        </linearGradient>
        <linearGradient x1="4.36469184%" y1="98.4863281%" x2="100%" y2="16.5731741%" id="linearGradient-5">
            <stop stop-color="#FFFFFF" stop-opacity="0" offset="0%"></stop>
            <stop stop-color="#FFFFFF" offset="100%"></stop>
        </linearGradient>
        <linearGradient x1="50%" y1="0%" x2="106.876734%" y2="114.225669%" id="linearGradient-6">
            <stop stop-color="#FAD961" offset="0%"></stop>
            <stop stop-color="#F76B1C" offset="100%"></stop>
        </linearGradient>
        <linearGradient x1="29.4621394%" y1="81.9335938%" x2="112.439904%" y2="57.4435764%" id="linearGradient-7">
            <stop stop-color="#FAD961" offset="0%"></stop>
            <stop stop-color="#F76B1C" offset="100%"></stop>
        </linearGradient>
    </defs>
    <g id="Artboard" stroke="none" stroke-width="1" fill="none" fill-rule="evenodd" transform="translate(-900.000000, -37.000000)">
        <g id="vertical-" transform="translate(802.000000, 37.000000)">
            <g id="Group-5" transform="translate(98.000000, 0.000000)">
                <g id="Group-6" transform="translate(2.000000, 86.000000)">
                    <polygon id="Path" fill="url(#linearGradient-1)" transform="translate(25.000000, 40.000000) scale(1, -1) translate(-25.000000, -40.000000) " points="50 0 50 52.0720239 0 80"></polygon>
                    <polygon id="Path" fill="url(#linearGradient-2)" opacity="0.705785779" transform="translate(25.000000, 40.000000) scale(1, -1) translate(-25.000000, -40.000000) " points="50 0 50 21.0226228 0 80"></polygon>
                    <polygon id="Path" fill="url(#linearGradient-3)" opacity="0.369508605" transform="translate(25.000000, 40.000000) scale(1, -1) translate(-25.000000, -40.000000) " points="50 0 50 35.5187137 0 80"></polygon>
                </g>
                <g id="Group-3" transform="translate(57.000000, 86.000000)">
                    <polygon id="Path" fill="url(#linearGradient-4)" transform="translate(25.000000, 40.000000) scale(-1, -1) translate(-25.000000, -40.000000) " points="50 0 50 52.0720239 0 80"></polygon>
                    <polygon id="Path" fill="url(#linearGradient-2)" opacity="0.705785779" transform="translate(25.000000, 40.000000) scale(-1, -1) translate(-25.000000, -40.000000) " points="50 0 50 21.0226228 0 80"></polygon>
                    <polygon id="Path" fill="url(#linearGradient-5)" opacity="0.164232337" transform="translate(25.000000, 40.000000) scale(-1, -1) translate(-25.000000, -40.000000) " points="50 0 50 35.5187137 0 80"></polygon>
                </g>
                <g id="Group-8">
                    <polygon id="Path" fill="url(#linearGradient-6)" points="52 0 52 108 0 79.5800711"></polygon>
                    <polygon id="Path" fill-opacity="0.819999993" fill="#F7BD5E" opacity="0.564141757" points="52 54 52 108 0 79.5800711"></polygon>
                </g>
                <g id="Group-7" transform="translate(57.000000, 0.000000)">
                    <polygon id="Path" fill="url(#linearGradient-7)" points="0 0 52 79.5800711 0 108"></polygon>
                    <polygon id="Path" fill-opacity="0.819999993" fill="#F7BD5E" opacity="0.564141757" transform="translate(26.000000, 81.000000) scale(-1, 1) translate(-26.000000, -81.000000) " points="52 54 52 108 0 79.5800711"></polygon>
                </g>
            </g>
        </g>
    </g>
</svg>