
<svg width="390" height="440" xmlns="http://www.w3.org/2000/svg" display="block">
  <g fill-rule="evenodd">
    <path d="M221 24.6l.4.2c.3 0 .4 0 .3-.1-.2-.3-.7-.3-.7 0m66 20c0 .5.1.8.1.4v-1 .6m27 4.6c-.2.6-.1.7.2.4.2-.2.3-.4.2-.5-.2-.2-.3-.1-.4.1m-27 4.4v-.5.5m-.3 3.7c0 .4 0 .8.2.8.1 0 0-1.4 0-1.6-.2 0-.2.3-.2.8m27.9 7.9c0 .6 0 1.1.2 1.1l.1-1.1-.1-1.1c-.1 0-.2.5-.2 1.1m-193 1.4v.6c.2.1.3 0 .3-.4 0-.6-.1-.6-.3-.2M362 69.6l-.1 4-.4 9.7a209.7 209.7 0 0 1-2 25.3 12664.7 12664.7 0 0 0-2 14.8l-.6 4a255.3 255.3 0 0 1-3.2 18 865.6 865.6 0 0 0-3.2 15.1 467.2 467.2 0 0 1-7.8 31.1l-1.1 3.9a2686.2 2686.2 0 0 0-4 13.8 645 645 0 0 1-16.4 47.2 294.8 294.8 0 0 1-6.7 16.9 103.4 103.4 0 0 1-2 4.7 144 144 0 0 1-4.5 10.7 130.9 130.9 0 0 1-3.4 7.7 164.7 164.7 0 0 1-5 10.9 373.6 373.6 0 0 1-2.7 5.8 939.7 939.7 0 0 1-51 94c0 .4 0 .4.1.2l.5-.6.4-.6c0-.2.2-.4.4-.6.2-.1.4-.4.4-.7 0-.3.1-.5.3-.5.2 0 .3-.1.3-.3 0-.2 0-.3.2-.3.1 0 .2-.1.2-.3l.4-.7.4-.6c0-.2.2-.5.5-.7.3-.2.5-.5.5-.6 0-.2.2-.5.5-.8.3-.3.5-.6.4-.7v-.2c.2 0 .3-.1.3-.2 0-.2.2-.4.5-.7.2-.2.4-.5.3-.7 0 0 0-.2.2-.2.1 0 .2.1.2.3l.3-.4.3-.9c0-.2.2-.4.4-.6.2-.2.4-.4.4-.6l.2-.4c.3 0 .8-.6.8-1 0-.2.2-.4.4-.6.2 0 .4-.4.4-.7 0-.3 0-.5.2-.5l.2-.4c0-.3 0-.4.3-.3.3.1.3 0 .2-.2 0-.2 0-.3.2-.3s.3-.2.3-.4 0-.4.2-.4c.1 0 .2-.1.2-.3 0-.2 0-.3.2-.3l.2-.4c0-.1.2-.5.5-.7.3-.2.5-.5.4-.6 0-.2.1-.4.4-.6.3-.2.5-.6.5-.7 0-.2 0-.4.2-.4.1 0 .2-.1.2-.3l.3-.4c.2 0 .2-.2.2-.4-.1-.3 0-.3.2-.2.2 0 .2 0 .2-.2-.1-.2 0-.3.2-.3s.3-.2.3-.5 0-.5.2-.5l.4-.6.4-.6.2-.4c0-.3 0-.4.3-.3.1 0 .4 0 .5-.3.3-.3.3-.3 0 0-.4.2-.4.2-.4 0 0-.3.1-.4.3-.4.2 0 .3-.2.3-.4s0-.4.2-.4c.1 0 .2-.1.2-.3 0-.2 0-.3.2-.2.1 0 .2-.1.2-.4 0-.3.1-.5.3-.5l.5-.3c.3-.4.3-.4 0-.1-.6.4-.5 0 0-.6l.8-1c.1-.4.3-.6.4-.6l.2-.4c0-.2 0-.4.2-.4.1 0 .2-.1.2-.3 0-.2.1-.3.3-.3l.4-.2c.1-.2 0-.2 0-.1-.2 0-.3 0-.3-.2s.1-.3.3-.3c.2 0 .3-.1.3-.3l.4-.7.4-.8c0-.2 0-.4.2-.4.1 0 .2-.1.2-.3 0-.2.1-.3.3-.3 0 0 .2 0 .1-.3 0-.2.1-.3.3-.3.2 0 .3-.2.3-.5l.4-.7c.2-.2.4-.4.4-.6 0-.2.1-.4.3-.5.2 0 .3-.2.2-.3 0 0 0-.2.2-.3.2 0 .2-.2.2-.4-.1-.3 0-.3.2-.2.2 0 .3 0 .3-.4 0-.3 0-.5.2-.5.1 0 .2-.1.2-.3 0-.2 0-.3.2-.3l.2-.4c0-.2 0-.4.2-.4l.2-.4c0-.2 0-.4.2-.4.1 0 .2-.1.2-.3 0-.2.1-.3.3-.3.2 0 .3 0 .2-.2 0 0 0-.3.2-.5.2-.1.3-.4.3-.6 0-.2 0-.3.2-.3.1 0 .2-.1.2-.3l.3-.4c.2 0 .2-.2.2-.4v-.3c.2 0 .3-.2.3-.4 0-.3.1-.4.4-.4.3 0 .4-.1.3-.3v-.3c.2 0 .3-.2.3-.4s0-.4.2-.4l.2-.4c0-.2 0-.4.2-.4.1 0 .2-.1.2-.3 0-.2 0-.3.2-.3l.2-.4c0-.2.1-.4.3-.4.2 0 .3-.2.3-.4s0-.4.2-.4c.1 0 .2-.1.2-.3 0-.2 0-.3.2-.3l.2-.4c0-.2 0-.4.2-.4l.2-.4c0-.2 0-.4.2-.4.1 0 .2-.1.2-.3 0-.2.1-.3.3-.2.2 0 .3 0 .2-.4-.1-.4 0-.5.2-.5s.3-.2.3-.4.1-.4.3-.5c.2 0 .2-.2.2-.4v-.3c.2 0 .3-.1.3-.3 0-.2 0-.3.2-.3l.2-.4c0-.2.1-.4.3-.5.2 0 .3-.2.3-.4s0-.3.2-.2l.2-.1c0-.6 1.3-3 1.6-2.8.1 0 .2 0 .1-.2s0-.8.3-.7c.1 0 .2-.1.2-.4 0-.3 0-.5.2-.5l.2-.4c0-.2 0-.4.2-.4.1 0 .2-.1.2-.3 0-.2 0-.3.2-.3l.2-.4c0-.3 0-.4.3-.3.3 0 .3 0 .2-.4 0-.4 0-.5.2-.5s.3-.2.3-.4 0-.4.2-.4c.1 0 .2-.1.2-.3 0-.2 0-.3.2-.3l.2-.4c0-.2 0-.4.2-.4l.2-.4c0-.3 0-.4.3-.3.2 0 .2 0 .2-.4 0-.3 0-.6.2-.6s.3-.3.3-.4c0-.2 0-.3.2-.3l.2-.4c0-.2 0-.4.2-.4l.2-.4c0-.2 0-.4.2-.4l.2-.4c0-.2 0-.4.2-.4s.8-1.1.8-1.5c0-.2 0-.3.2-.3.1 0 .2-.1.2-.3 0-.2 0-.3.2-.2.1 0 .2-.1.2-.4 0-.3 0-.5.2-.5l.2-.4c0-.2.1-.4.3-.4.2 0 .3-.2.3-.4s0-.4.2-.4c.1 0 .2-.1.2-.3 0-.2 0-.3.2-.3l.2-.4c0-.2 0-.4.2-.4l.2-.4c0-.2 0-.4.2-.4.1 0 .2-.2.2-.5s.1-.5.3-.5c.3 0 .3-.1.2-.4 0-.3 0-.4.2-.3l.5-.3v-.3h-.2c0-.2 0-.3.2-.3.1 0 .2-.1.2-.3 0-.2 0-.3.2-.3.1 0 .2-.2.2-.5s0-.5.2-.5l.2-.4c0-.3 0-.4.3-.3.3 0 .3 0 .2-.4 0-.4 0-.5.2-.5s.3-.2.3-.4 0-.4.2-.4l.2-.4c0-.2 0-.4.2-.4.1 0 .2-.1.2-.3 0-.5.5-1.3.8-1.2.1 0 .2 0 0-.4 0-.4 0-.5.3-.5.2 0 .3-.2.3-.4s0-.4.2-.4l.2-.4c0-.2 0-.4.2-.4.1 0 .2-.2.2-.5s0-.5.2-.5l.2-.4c0-.3 0-.4.3-.3.3 0 .3 0 .3-.4-.1-.3 0-.5.1-.5.2 0 .3-.1.3-.3 0-.2 0-.3.2-.2.1 0 .2-.1.2-.5 0-.3 0-.6.2-.6l.2-.4c0-.2 0-.4.2-.4l.2-.4c0-.2.1-.4.3-.4.2 0 .3-.1.2-.4 0-.3 0-.4.2-.5.2 0 .3-.3.3-.5s0-.4.2-.4l.2-.4c0-.2 0-.4.2-.4l.2-.4c0-.2.2-.4.4-.6.3-.2.3-.3.1-.5-.1 0-.1-.2 0-.2.2 0 .3-.3.3-.5s.1-.4.3-.4c.2 0 .3-.2.3-.4s0-.4.2-.3c.1 0 .2-.1.2-.4 0-.5 0-.5.2-.3.1.2.2.1.2-.4 0-.6 0-.8.3-.8.2 0 .2-.1.2-.4-.1-.3 0-.4.1-.4.2 0 .3 0 .2-.4 0-.2 0-.4.2-.4s.3-.1.4-.3c0-.3.1-.5.2-.5l.2-.4c0-.2 0-.4.2-.4.1 0 .2-.2.2-.5s0-.5.2-.5l.2-.4c0-.2.1-.4.3-.5.2 0 .2-.2.2-.4s0-.3.2-.4c.2 0 .3-.3.3-.5s.1-.4.3-.5c.2 0 .2-.2.2-.4v-.4c.2 0 .3-.3.3-.5s0-.4.2-.4l.2-.4c0-.2.1-.4.3-.5.2 0 .2-.2.2-.4 0-.1 0-.3.2-.4.2 0 .3-.3.3-.5s0-.4.2-.4l.2-.4c0-.2 0-.4.2-.4.1 0 .2-.2.2-.5s0-.5.2-.5l.2-.4c0-.2 0-.4.2-.4l.2-.4c0-.3.2-.5.4-.4.2 0 .2-.1.1-.4 0-.3 0-.5.2-.5s.3-.3.3-.5 0-.4.2-.4c.1 0 .2-.2.2-.5s0-.5.2-.5c.1 0 .2-.2.2-.5s0-.5.2-.4c0 0 .2-.1.2-.4 0-.4.2-.6.4-.6s.3-.2.2-.5c0-.2 0-.4.1-.3l.5-.3v-.3c-.1 0-.2 0-.2-.2l.3-.4c.2 0 .2-.2.2-.4v-.3c.2 0 .3-.2.3-.5s0-.5.2-.5l.2-.4c0-.2.1-.4.3-.4.3 0 .3-.1.2-.4 0-.3 0-.5.2-.5s.3-.3.3-.5 0-.4.2-.4c.1 0 .2-.2.2-.5s0-.5.2-.5l.2-.4c0-.2 0-.4.2-.4.1 0 .2-.2.2-.5 0-.4 0-.5.3-.4.2 0 .3 0 .3-.5 0-.4 0-.6.2-.5.1 0 .2-.1.2-.5 0-.3 0-.6.2-.6l.2-.4c0-.2 0-.4.2-.4.1 0 .2-.2.2-.5s0-.5.2-.5c.1 0 .2-.2.2-.5 0-.4 0-.5.3-.4.2 0 .3 0 .3-.4 0-.3 0-.5.2-.5.1 0 .2-.2.2-.5s0-.5.2-.5c.1 0 .2-.2.2-.5s0-.5.2-.5c.1 0 .2-.2.2-.5s0-.5.2-.5c.1 0 .2-.2.2-.5s.1-.5.3-.5l.5-.3c.2-.2.2-.3 0-.2l-.3-.1c0-.1 0-.2.2-.2s.3-.2.3-.5c0-.2.1-.5.3-.6.2 0 .2-.2.2-.4-.1-.2 0-.5.3-.7l.3-.3c-.2 0-.3 0-.3-.2s0-.3.2-.3c.1 0 .2-.2.2-.5 0-.4 0-.5.3-.4.3 0 .3 0 .3-.4-.1-.3 0-.5.1-.5.2 0 .3-.2.3-.5s0-.5.2-.5l.2-.6c0-.3 0-.6.2-.6.1 0 .2-.1.2-.3 0-.2.1-.5.3-.6.2-.2.2-.4.2-.6-.1-.2 0-.3.2-.3l.2-.4c0-.3.1-.5.3-.5.1 0 .2-.1.2-.5s0-.6.2-.5c.1 0 .2-.1.2-.5 0-.3 0-.6.2-.6.1 0 .2-.2.2-.5s0-.5.2-.5c.1 0 .2-.2.2-.5 0-.2.1-.5.3-.6.2 0 .3-.3.2-.5 0-.3 0-.5.2-.5s.3-.3.3-.5 0-.4.2-.5l.2-.5c0-.2 0-.4.2-.4l.2-.6c0-.3 0-.6.2-.6.1 0 .2-.2.2-.5 0-.5.3-.7.4-.3 0 .1.2 0 .3-.3.2-.4.2-.4 0-.4h-.3c0-.2.1-.4.3-.4.2 0 .3-.4.3-.6 0-.3 0-.5.2-.5.1 0 .2-.2.2-.5s0-.5.2-.5l.2-.4c0-.2.1-.6.3-.7l.2-.7c-.2-.4.2-.6.4-.1v-.4c0-.5 0-.7.3-.9.2-.1.3-.3.3-.6-.1-.2 0-.4 0-.4.2 0 .3-.2.3-.5s0-.5.2-.5l.2-.6c0-.4 0-.6.2-.5.2.1.3-.1.2-.7 0-.1 0-.3.2-.4.2-.1.3-.3.3-.5s.1-.4.3-.3c.1 0 .2-.3.2-.7 0-.4 0-.7.2-.7.1 0 .2-.2.2-.5s0-.5.2-.5l.2-.6c0-.3 0-.6.2-.6l.2-.4c0-.2.1-.4.3-.5.2 0 .3-.2.2-.6-.1-.4 0-.5.2-.6.2 0 .3-.4.3-.6 0-.3 0-.5.2-.5l.2-.6c0-.4 0-.6.2-.5.1 0 .2-.1.2-.5 0-.3 0-.6.2-.6l.2-.6c0-.4.1-.6.3-.6.2 0 .3-.1.2-.5-.1-.4 0-.5.2-.5s.3-.2.3-.6c0-.3 0-.6.2-.6.1 0 .2-.2.2-.5s0-.5.2-.5l.2-.6c0-.3 0-.6.2-.6.1 0 .2-.2.2-.5s.1-.5.3-.5c.3 0 .3-.1.2-.6-.1-.5 0-.6.2-.6s.3-.2.3-.6c0-.3 0-.6.2-.6l.2-.6c0-.3 0-.6.2-.6.1 0 .2-.2.2-.5 0-.2.1-.6.3-.7l.2-.6c-.1-.3 0-.4.2-.4s.2-.2.2-.6c-.1-.5 0-.6.2-.6s.3-.2.3-.6c0-.3 0-.6.2-.6l.2-.6c0-.3 0-.6.2-.6l.2-.6c0-.4 0-.6.2-.5.1 0 .2-.2.2-.6 0-.5 0-.7.3-.7.2 0 .3-.2.2-.6-.1-.5 0-.6.2-.6s.3-.2.3-.6c0-.4 0-.6.2-.5.1 0 .2-.2.2-.6 0-.4 0-.7.2-.7l.2-.6c0-.3 0-.6.2-.6l.2-.6c0-.3.1-.6.3-.7.2 0 .3-.2.2-.5 0-.3 0-.4.2-.4s.3-.2.3-.7c0-.4 0-.7.2-.8l.2-.7c0-.4 0-.6.2-.5.1 0 .2-.2.2-.6 0-.4 0-.7.2-.7l.2-.6c0-.3 0-.6.2-.6.1 0 .2-.3.2-.7 0-.6 0-.7.3-.5.3.2.3.1.3-.6 0-.4 0-.8.2-.8l.2-.6c0-.3 0-.6.2-.7l.2-.7c0-.4 0-.6.2-.5.1 0 .2-.2.2-.6 0-.4 0-.7.2-.7l.2-.6c0-.6.3-1 .5-.6v-.6c0-.5.2-.8.3-.7.1 0 .2-.2.2-.7 0-.4 0-.8.2-.8.1 0 .2-.3.2-.7 0-.4.1-.7.2-.7.2 0 .3-.4.2-.8 0-.3 0-.6.2-.6l.2-.6c0-.4.1-.6.3-.6.2 0 .3-.2.3-.7 0-.4 0-.7.2-.6.2.1.3-.2.2-1 0-.3 0-.5.2-.5.1 0 .2-.3.2-.7 0-.4 0-.7.2-.7l.2-.6c0-.3 0-.6.2-.7l.2-.8c0-.4.1-.7.3-.8.2 0 .3-.3.3-.7 0-.3 0-.6.2-.6.1 0 .2-.3.2-.7 0-.4 0-.7.2-.7.1 0 .2-.3.2-.7 0-.4 0-.7.2-.7.1 0 .2-.3.2-.7 0-.4 0-.7.2-.7l.2-.8c0-.7 0-.8.3-.6.3.2.3 0 .3-1 0-.4 0-.6.2-.6.1 0 .2-.3.2-.7 0-.4.1-.7.2-.7.2 0 .3-.5.2-.9 0-.4.1-.7.2-.7s.2-.3.2-.7c0-.4 0-.7.2-.7l.2-.8c0-.6 0-.8.3-.8s.3-.1.2-.7c0-.5 0-.8.2-.8.2-.1.3-.4.3-1 0-.3 0-.7.2-.7.1 0 .2-.3.2-.7 0-.4 0-.7.2-.7l.2-.8c0-.4 0-.8.2-.8.1 0 .2-.4.2-.9 0-.7 0-.9.3-.9s.3-.1.3-.6c-.1-.4 0-.7.1-.8.2-.2.3-.6.3-1 0-.5 0-.8.2-.8l.2-.8c0-.4 0-.8.2-.8.1 0 .2-.3.2-.8l.2-1c.2 0 .3-.5.2-1 0-.5 0-.6.3-.5.3 0 .5-1 .2-1.2 0-.1 0-.3.2-.4.2-.2.3-.5.3-1s.1-.9.2-.9.2-.4.2-.9l.2-1 .2-.8c0-.4.1-1 .3-1 0-.2.2-.6.1-1 0-.4.1-.7.3-.8.3 0 .3-.3.2-.8 0-.5 0-.8.2-.8.2-.1.3-.5.3-1.1 0-.6 0-1 .2-1l.2-1c0-.6 0-1 .2-1 .1 0 .2-.4.2-.9s0-.9.2-.9c.1 0 .2-.4.2-.9 0-.9.3-1.4.5-.9v-.9c0-.9 0-1.2.3-1.2.1 0 .2-.2.2-1 0-.6 0-1.1.2-1.1.1 0 .2-.4.2-1l.2-1.1.2-1.2c0-.5.1-.9.2-.9s.2-.5.2-1.1c0-.8 0-1.1.3-1.1.1 0 .3-.3.3-.6v-.6c-.3 0-.2-.6.1-.9.2-.2.3-.5.3-1.3l.2-1c.1 0 .2-.5.2-1.1 0-.6 0-1.1.2-1.1.1 0 .2-.6.2-1.3 0-.8 0-1.3.2-1.2.1 0 .2-.3.2-1 0-1 0-1.3.3-1.4.3-.1.3-.4.2-1.3-.1-1 0-1.2.2-1.2s.3-.2.3-1.3c0-.7 0-1.3.2-1.3.1 0 .2-.6.2-1.4 0-.9 0-1.4.2-1.3.1 0 .2-.4.2-1.4 0-.9 0-1.5.2-1.5.1 0 .2-.3.2-.7 0-.4 0-.7.2-.7.2-.1.3-.6.2-1.3 0-.1-.1-.3-.3-.3-.4 0-1.1-.8-1-1 .1-.2 0-.2 0-.1h-.3c0-.2-.1-.3-.3-.3-.2 0-.3-.2-.3-.4s0-.4-.2-.4l-.8-.6c-.4-.5-.8-.8-.9-.8l-1-.9c-1-1-1.4-1.3-1.6-1.3l-.8-.7-.9-.7-.8-.6a3 3 0 0 0-.9-.6 3 3 0 0 1-.9-.6l-.9-.6s-.4-.2-.6-.5c-.3-.3-.6-.5-.8-.5-.2 0-.3 0-.3-.2 0-.1-.1-.2-.3-.2l-.5-.4c-.2-.2-.4-.4-.6-.4-.2 0-.4 0-.4-.2l-.9-.7c-.5-.3-.9-.7-.9-.8l-.4-.1c-.2 0-.4 0-.4-.2-.1-.2-2.1-1.6-2.3-1.6-.1 0-.4-.2-.5-.5-.1-.3-.4-.5-.5-.6h-.2M45.6 71.4v.4l-.3-.1c-.2-.2-.3-.2-.3-.1.2.2-.6 1-.8.8-.1 0-.1 0 0 .2 0 .2 0 .3-.3.3l-.7.4-.5.4-.7.5-.8.5c-.2 0-.4.2-.6.4-.2.2-.4.4-.6.4l-.7.4c-.2.3-.6.6-1 .8a5 5 0 0 0-.9.6l-.8.4c-.2 0-.4 0-.3.2l-.1.2c-.3 0-.8.5-.8.8 0 .1 0 .2-.2.1 0 0-.3 0-.5.2-.1.2-.4.3-.5.3-.1 0-.2 0-.2.2l-.4.3c-.2 0-.8.5-1.2 1l-1 .7-1.5 1.3-1.5 1.3-.8.8-.9.7c0-.1-.1 0 0 0 .1.3-1.5 2-1.7 2-.3-.1-.2 1.8 0 2 .3 0 .3.4.3 1.6 0 1.2 0 1.5.2 1.4.2-.1.3.1.3 1.1 0 .7 0 1.3.2 1.5l.2 1.4c0 .7 0 1.3.2 1.3.1 0 .2.5.2 1.2s0 1.2.2 1.2c.1 0 .2.5.2 1.2 0 .9 0 1.2.3 1.3.2.1.3.4.2 1.3 0 .8 0 1 .3 1 .1 0 .2.3.2 1.2 0 .7 0 1.2.2 1.2.1 0 .2.5.2 1.2s0 1.2.2 1.2c.1 0 .2.5.2 1.1 0 .6 0 1.1.2 1.1.1 0 .2.5.2 1.1 0 .8 0 1 .2 1s.3.4.3 1.3v1c.3-.5.5-.1.5.9 0 .6 0 1.1.2 1.1.1 0 .2.4.2.9s0 1 .2 1l.2 1.1c0 .6 0 1 .2.9.1 0 .2.2.2.7l.2 1.2c.2 0 .3.7.2 1.2 0 .6 0 1 .1.8.2-.5.5 0 .5 1 0 .6 0 1 .2 1 .1 0 .2.4.2.9s0 .9.2.9l.2.8c0 .5 0 1 .2 1l.2.8c0 .4 0 .8.2.8l.2 1.1c0 .8.1 1 .3 1 .2-.1.3.1.3.8 0 .6 0 .9.2.8.1 0 .2.2.2.8 0 .5 0 .9.2.9.1 0 .2.4.2.9s0 .9.2.9c.1 0 .2.3.2.8 0 .4 0 .8.2 1l.2 1c0 .5.2.7.3.7.2-.1.3 0 .3.7 0 .4 0 .8.2.8.1 0 .2.3.2.7 0 .4 0 .8.2.9.1 0 .2.4.2 1 0 .5 0 .8.2.7.1 0 .2.2.2.7 0 .4 0 .8.2.9l.2.8c0 .5 0 .7.3.7.2 0 .3.2.3.8 0 .4 0 .8.2.8l.2.8c0 .5 0 .8.2.7.1 0 .2.2.2.7 0 .4 0 .8.2.9l.2.8c0 .4 0 .7.2.7l.2.8c0 .6 0 .8.3.7.2-.1.3 0 .3.7 0 .4 0 .8.2.8.1 0 .2.3.2.7 0 .4 0 .7.2.7l.2.8c0 .4 0 .8.2.8.1 0 .2.3.2.7 0 .4 0 .7.2.7l.2 1c0 .5.2.7.3.7.2-.1.3 0 .3.5 0 .3 0 .6.2.6l.2.8c0 .4 0 .8.2.8.1 0 .2.3.2.7 0 .4.1.7.2.7s.2.2.1.4c0 .2 0 .5.2.7.2.1.3.5.3.9 0 .3.1.6.3.7.2 0 .3.2.2.6 0 .3 0 .5.2.7.2.1.3.5.3.8 0 .3 0 .6.2.6.1 0 .2.3.2.7 0 .4 0 .7.2.7l.2.6c0 .3 0 .6.2.7l.2.8c0 .5 0 .7.3.7.1 0 .2.1.2.6 0 .4 0 .6.2.6s.3.2.3.6c0 .3 0 .6.2.6.1 0 .2.3.2.7 0 .4 0 .7.2.7l.2.6c0 .3 0 .6.2.7l.2.4c0 .6 0 .9.3.9.2 0 .3.2.2.7 0 .5 0 .7.2.7s.3.2.3.6c0 .4 0 .6.2.5.1 0 .2.2.2.6 0 .4 0 .7.2.7l.2.6c0 .3 0 .6.2.6l.2.6c0 .3.1.7.3.8.2 0 .3.3.2.6 0 .3 0 .5.2.5s.3.4.3.7c0 .3 0 .6.2.6.1 0 .2.3.2.7 0 .4 0 .7.2.6.1 0 .2.2.2.6 0 .4 0 .7.2.6.1 0 .2.1.2.5s.1.6.3.6c.3 0 .3.1.2.6 0 .5 0 .6.2.6s.3.2.3.6c0 .3 0 .6.2.7l.2.6c0 .3 0 .5.2.5l.2.6.2.6c.2 0 .2.2.1.4 0 .3 0 .6.3.8.2.2.3.5.3.7 0 .2 0 .3.2.4.2 0 .3.4.3.7 0 .3 0 .6.2.6l.2.6c0 .3 0 .6.2.6l.2.6c0 .4 0 .6.2.5.1 0 .2.1.2.5 0 .3.1.6.3.7l.2.6c-.1.4 0 .5.2.5s.3.2.3.6c0 .3 0 .6.2.6l.2.6c0 .3.1.6.3.7.1 0 .1.1 0 .2-.2.2-.2.3.1.5.2.2.4.5.4.8 0 .4.1.6.3.6.2 0 .3.2.2.8v.4c.2-.4.5-.2.5.4 0 .3 0 .6.2.6l.2.6c0 .3 0 .6.2.6.1 0 .2.2.2.5s0 .5.2.5c.1 0 .2.2.2.5 0 .2.1.6.3.7.2.1.3.5.2.9v.3c.2-.4.6-.2.4.2 0 .2 0 .5.2.7.2.1.3.5.3.7 0 .2 0 .4.2.4.1 0 .2.2.2.5s0 .5.2.6l.2.6c0 .3.1.5.3.5.2 0 .3.1.2.5-.1.4 0 .5.2.5s.3.2.3.6c0 .3 0 .6.2.6.1 0 .2.2.2.5s0 .5.2.5c.1 0 .2.2.2.5s0 .5.2.5c.1 0 .2.2.2.5 0 .2.1.5.3.6.2 0 .2.2.2.5-.1.3 0 .4.2.4s.3.2.3.6c0 .3 0 .6.2.6.1 0 .2.2.2.5s0 .5.2.5c.1 0 .2.2.2.5s0 .5.2.6l.2.6c0 .3.1.5.3.5.1 0 .2.2.2.7v.3c.2-.4.5-.2.5.4 0 .3 0 .6.2.6.1 0 .2.2.2.5s0 .5.2.5c.1 0 .2.2.2.5s0 .5.2.5c.1 0 .2.2.2.5s.1.6.3.6l.2.5c-.1.3 0 .4.2.4s.3.2.3.5 0 .5.2.5c.1 0 .2.2.2.5s0 .5.2.5c.1 0 .2.2.2.5s0 .5.2.6l.2.6c0 .3 0 .5.2.4.1 0 .2.1.2.5s0 .6.3.5c.2-.1.3 0 .3.5 0 .3 0 .6.2.6l.2.4c0 .2 0 .4.2.5l.2.5c0 .2 0 .4.2.4l.2.6c0 .4 0 .6.2.5.2-.1.3.4.2 1h.3c.2-.1.3 0 .3.4 0 .3 0 .5.2.5.1 0 .2.2.2.5s0 .5.2.5c.1 0 .2.2.2.5s0 .5.2.5c.1 0 .2.1.2.3 0 .5 0 .7.2.6.2-.1.3.4.2 1h.3c.2-.1.3 0 .3.4 0 .3 0 .5.2.5.1 0 .2.2.2.5 0 .2.1.5.3.6.1 0 .1.1 0 .2-.2.2-.2.3.1.5.2.2.4.4.4.6 0 .2 0 .4.2.4l.2.6c0 .4 0 .6.2.6s.3.1.4.4l.2.4c.1 0 .2.2.2.5s0 .5.2.5l.2.4c0 .2 0 .4.2.4.1 0 .2.2.2.5 0 .2 0 .5.2.5l.2.6c0 .4.2.5.4.4.2 0 .2 0 .2.4-.1.3 0 .4.1.4.2 0 .3.2.3.5s0 .5.2.5c.1 0 .2.1.2.3 0 .2 0 .5.2.7l.4.8.2.8c0 .3.1.4.3.3.2-.1.3 0 .3.4 0 .3 0 .5.2.5l.2.4c0 .2 0 .4.2.4.1 0 .2.2.2.5s0 .5.2.5l.2.4c0 .2 0 .4.2.4.1 0 .2.1.2.3 0 .5 0 .7.3.7.2 0 .3.1.2.4 0 .3 0 .4.2.4s.3.2.3.5 0 .5.2.4c.1 0 .2.1.2.4 0 .3 0 .5.2.5l.2.4c0 .2 0 .4.2.4l.2.4c0 .2.1.6.3.7.2.2.3.5.2.6 0 .2 0 .2.2.2.2-.1.3 0 .3.4 0 .2 0 .5.2.6l.2.5c0 .2 0 .4.2.4l.2.4c0 .2 0 .4.2.5l.2.6c0 .3.1.5.3.4 0 0 .2.2.1.4 0 .2.1.3.3.3.2 0 .3.2.3.5s0 .5.2.4c.1 0 .2.1.2.4 0 .3 0 .5.2.4.1 0 .2 0 .2.4 0 .2 0 .5.2.5.1 0 .2.3.2.7 0 .3.2.5.3.5.2 0 .7.6.7 1 0 .2 0 .4.2.4l.2.4c0 .2 0 .4.2.4l.2.4c0 .2 0 .4.2.4.1 0 .2.2.2.5s.1.5.3.5c.2 0 .3.1.2.3 0 .2 0 .4.2.4s.3.3.3.5 0 .4.2.4c.1 0 .2.2.2.5s0 .5.2.5l.2.4.2.4c.1 0 .2.1.1.3 0 .2 0 .4.3.5.2.1.3.4.3.7 0 .3 0 .4.2.4.2-.1.3 0 .3.3 0 .2 0 .4.2.4l.2.4c0 .2 0 .4.2.4l.2.4c0 .2 0 .4.2.5l.2.5c0 .2.1.4.3.4.3 0 .3.1.3.5-.1.3 0 .4.1.4.2-.1.3 0 .3.4l.1.5c.1 0 .3.2.4.5.2.4.2.5 0 .4l.3.3.4.7c0 .2.1.3.3.3.2 0 .3 0 .3.2 0 .1 0 .2-.2.2v.3c0 .2.2.3.3.2.2 0 .3 0 .3.4 0 .3 0 .5.2.5l.2.4c0 .2 0 .4.2.4l.2.4c0 .2 0 .4.2.4.1 0 .2.2.2.5 0 .2.1.5.3.6.2 0 .2.2.2.4-.1.2 0 .3.2.2.2-.1.3 0 .3.3 0 .2 0 .4.2.4l.2.4c0 .2 0 .4.2.4.1 0 .2.1.2.3 0 .5 0 .7.2.6.1 0 .2.1.2.4 0 .3.1.5.3.5.2 0 .3.1.2.3 0 .2 0 .4.2.4s.3.3.3.5 0 .4.2.3c.1 0 .2 0 .2.3l.2.4c.1 0 .2.1.1.3 0 .2 0 .4.2.4s.3.4.3.6c0 .3.1.5.3.5.2 0 .3.1.2.4 0 .3 0 .4.2.4s.3.2.3.4 0 .4.2.4l.4.7.4.7.2.4c0 .2.1.4.3.5.2 0 .2.3.2.6-.1.4 0 .5.2.4.2-.1.3 0 .3.3 0 .2 0 .4.2.4.1 0 .2.1.2.3 0 .2 0 .3.2.3l.2.4c0 .2 0 .4.2.4l.2.4c0 .2.2.4.3.5.3 0 .3.2.1.3-.2.1-.2.2.1.4.3.2.6.6.7 1l.4.6.2.4c0 .2 0 .4.2.4l.2.4c0 .2.1.4.3.4.2 0 .3.1.2.4 0 .3 0 .4.2.4s.3.2.3.4 0 .4.2.4c.1 0 .2.1.2.3 0 .2 0 .3.2.3l.2.4c0 .2 0 .4.2.5l.2.5c0 .2 0 .4.2.4l.2.4.2.4c.3 0 .8.6.8 1 0 .2 0 .4.2.4l.2.4c0 .2 0 .4.2.4.1 0 .2.2.2.5s.2.5.5.7c.3.1.5.4.5.6 0 .2 0 .4.2.4l.2.4c0 .2 0 .4.2.4l.3.6c0 .4.3.7.4.7.2 0 .3.4.3.8 0 .3 0 .5.1.3.2-.3.5-.2.5.2 0 .2 0 .4.2.4.1 0 .2.1.2.3 0 .2 0 .3.2.3l.2.4c0 .2 0 .4.2.4l.2.4c0 .2 0 .4.2.5l.2.6c0 .3 0 .3.2.1.2-.3.8.8.8 1.3 0 .2 0 .3.2.3.1 0 .2.1.2.3l.4.7.4.8c0 .2.1.4.3.4.2 0 .3.1.2.3 0 .2 0 .3.2.3s.3.2.3.4 0 .4.2.4l.2.4c0 .2 0 .4.2.4.1 0 .2.1.2.3l.5.8c.3.3.5.7.4.8 0 .2 0 .3.2.3s.3.2.3.4c0 .3 0 .4.1.3.2-.1.7.8.7 1.2 0 .2.1.3.3.3.2 0 .2.1.2.3 0 .2 0 .3.2.4.2 0 .3.3.3.4 0 .2 0 .3.2.3l.2.4c0 .2 0 .4.2.4l.4.4v.3h-.2c0 .2.2.3.4.4.2 0 .4.3.4.4 0 .2.2.5.5.8.3.2.5.6.5.8 0 .2 0 .3.2.3l.2.4c0 .2 0 .4.2.4.1 0 .2.1.2.3 0 .2 0 .3.2.3.1 0 .2 0 .2.2 0 .1-.1.2-.3 0v.3l.6.3c.2 0 .3.2.3.4s0 .4.2.3c.1 0 .2 0 .2.3 0 .2 0 .4.2.4l.2.4.2.4c.1 0 .2.1.1.3 0 .2 0 .3.2.3s.3.2.3.4.1.4.3.4c.2 0 .3.1.2.3l.4.7c.3.2.5.6.5.8 0 .2.2.4.4.6l.4.7c0 .3 0 .5.2.4l.6.6.5.7.1.4.2.4c.1 0 .2.1.1.3 0 .2 0 .3.2.3s.3.2.3.4.1.4.3.4c.2 0 .3.1.2.3 0 .2 0 .3.2.3s.3.2.3.4 0 .4.2.4c.1 0 .2.1.2.3 0 .2 0 .3.2.3.1 0 .2.1.2.3 0 .2 0 .3.2.3.1 0 .2.2.2.5s0 .5.2.4c.2-.1.8.6.8 1 0 .2 0 .3.2.3.1 0 .2.1.2.3 0 .2 0 .3.2.3l.2.4c0 .2.2.4.4.6.2.1.3.3.3.4 0 .1 0 .4.3.6l.4.7.4.5c.2.2.4.4.4.6 0 .2 0 .4.2.4.1 0 .2.1.2.3 0 .2.1.3.3.3.2 0 .3.1.2.4v.3c.3-.1.9.6.9 1 0 .2 0 .3.2.3.1 0 .2.1.2.3 0 .2 0 .3.2.3l.2.4c0 .2.2.5.5.6.3.1.5.4.5.7l.4.7c.2.2.4.4.4.6 0 0 .1.4.4.7.3.2.5.5.4.6l.5.6c.3.2.5.6.5.9 0 .2 0 .4.2.3.1 0 .2 0 .2.2s0 .3.2.3c.1 0 .2.2.2.5s0 .5.2.4c.3-.2.8.4.8.8 0 .2 0 .3.2.3.1 0 .2.1.2.3 0 .2 0 .3.2.3l.2.4c0 .2 0 .4.2.4l.2.4c0 .2.1.4.3.3.2 0 .4.1.5.5l.4.6c.1 0 .2.1.2.3l.3.4c.1 0 .1 0 0 0-.2 0 0 .3.3.7.3.3.6.7.6 1 0 .3 0 .4.3.3.3-.1.3 0 .2.2 0 .2 0 .3.2.3s.3.1.3.3l.4.7.4.6c0 .1 0 .2.2.2l.2.1c0 .4 0 .7.2.7.3 0 .8.5.8.9 0 .2 0 .3.2.3.1 0 .2.1.2.3 0 .2 0 .3.2.3l.2.4c0 .3 0 .4.1.3.2 0 .9.6.9.9 0 .1 0 .2.2.2.1 0 .2.1.2.3l.3.7.5.6c0 .5 1.2 1 1.1.5 0-.1 0-.3-.2-.3l-.2-.7c0-.4 0-.6-.2-.6-.2.1-1.1-.6-1.1-.8l-1.1-1.8-2.2-3.5-2.2-3.7a1163.1 1163.1 0 0 1-27.8-49.1l-2.1-4.1a1973.6 1973.6 0 0 1-18.5-37.5 173 173 0 0 1-4.4-9.7 550.8 550.8 0 0 0-4.8-10.9 111.3 111.3 0 0 0-2.7-6.3 49.6 49.6 0 0 1-2.2-5.2l-.5-1.1A538.2 538.2 0 0 1 89 257a495.7 495.7 0 0 1-8.5-23.4l-.7-2A1395 1395 0 0 1 67.9 194a201.7 201.7 0 0 1-3.5-12.6 646.4 646.4 0 0 0-2.6-10 322.9 322.9 0 0 1-2.9-12l-.7-3.1a135 135 0 0 1-1.5-6.8l-.7-3.3a510.5 510.5 0 0 1-10-74.6c0-.5-.4-.7-.4-.3m47.8 2.4c0 .4 0 .8.1.7.2 0 .2-1.2 0-1.4l-.1.7M314.7 75c0 1 0 1.8.2 1.8l.1-1.8-.1-1.8c-.1 0-.2.8-.2 1.8M93.9 88.7l.1.4c.3-.2.2-.7 0-.8l-.1.4M281 138.3c-.2.2-.1.7.1.7.1 0 .2-.1 0-.2 0-.1 0-.3.2-.4.2-.1.2-.2 0-.2l-.3.1" fill="#e0a524"/>
    <path d="M187.3 24.6c0 .1-1.2.2-3.2.2s-3 0-3 .2c0 .1-.5.2-1.6.2-2.3 0-3.1.1-3.3.4l-2 .2a8 8 0 0 0-2.3.2l-1.6.2a7 7 0 0 0-1.7.2l-1.7.2c-.7 0-1.3.1-1.3.2s-.6.2-1.4.2c-.7 0-1.4 0-1.5.2a3 3 0 0 1-1.2.2c-1.2 0-1.5.2-1.4.4 0 .1-.5.2-1.2.2s-1.3 0-1.4.2l-1.2.2c-.6 0-1.1 0-1.2.2l-1 .2c-.5 0-1 0-1 .2l-1 .2c-.5 0-1 0-1 .2l-.8.2a2 2 0 0 0-1 .3c-.2.2-.7.3-1.1.3-.4 0-.8 0-.9.2l-.8.2c-.4 0-.7 0-.7.2 0 .1-.4.2-.9.2s-.9 0-.9.2l-.4.2c-.6 0-2.2.4-2.7.8l-1 .2c-.3 0-.5 0-.5.2 0 .1-.3.2-.7.2-.4 0-.7 0-.8.2l-.7.2c-.3 0-.6 0-.6.2l-.6.2c-.3 0-.6 0-.6.2l-.4.2c-.5 0-1 .2-1 .4l-.4.2c-.3 0-.5 0-.6.2l-.6.2c-.3 0-.6 0-.7.2l-1 .4c-.6.1-1.1.3-1.1.4 0 .1-.1.2-.3.2-.4 0-1.8.6-1.9.8l-.5.2c-.3 0-.5 0-.5.2l-.4.2a4 4 0 0 0-1.2.4l-1 .4-.4.3a1 1 0 0 1-.6.3c-.2 0-.4 0-.4.2l-.4.3c-.4 0-.4.2-.4 13.7 0 8.8 0 13.6.2 13.4a163.8 163.8 0 0 1 .4 10.8c.2.2.2.2 0 .2a25.5 25.5 0 0 1 .2 4.5c0 2 .1 3.7.2 3.7 0 0 .2 1.2.2 2.8 0 3.2.1 4.4.4 4.7.1 0 .2 1.4.2 3 0 1.5 0 2.7.2 2.7.1 0 .2 1.4.2 3.2 0 1.6.1 3 .2 3s.2 1 .2 2.4c0 1.3 0 2.4.2 2.4.1 0 .2 1.2.2 2.7 0 1.4.1 2.6.2 2.6s.2 1 .2 2.2c0 1.2 0 2.1.2 2.2.1 0 .2.2 0 .3 0 .1 0 .2.2.2l.2 2a8 8 0 0 0 .2 2.3l.2 2.2c0 1.2 0 2.1.2 2.2l.2 1.9c0 1 0 1.8.2 2l.3 1.9c.2 3.7.4 5.8.7 6.4l.2 1.9c0 .8 0 1.4.2 1.5l.2 2c0 1 0 1.7.2 1.7.1 0 .2.7.2 1.6 0 .9 0 1.6.2 1.7l.2 1.8c0 .9 0 1.7.2 1.8l.2 1.6.2 1.8c.3.4.3 1 .4 2.4 0 .5 0 .9.2.8.2-.1.3 2.5.2 3.2h.2c.1 0 .2.4.2 1.5 0 1 0 1.6.2 1.6.1 0 .2.6.2 1.3 0 .7 0 1.5.2 1.7l.2 1.5.2 1.4c.1.1.3 1 .3 1.7 0 .8.2 1.5.3 1.6l.2 1.4c0 .8 0 1.4.2 1.5l.2 1.2c0 .6 0 1.3.2 1.5l.2 1.5c0 .7.1 1.2.2 1.3l.2 1.4.2 1.2.2.3c.1 1.7.2 2.6.4 2.7.1 0 .2.6.2 1.3 0 .7 0 1.3.2 1.4l.2 1.3c0 .7 0 1.2.2 1.2.1 0 .2.6.2 1.3 0 .7 0 1.3.2 1.4l.2 1c0 .5 0 1 .2 1.3l.3 1.5c0 .7.2 1.2.3 1.3l.2 1.2c0 .6 0 1.2.2 1.3l.2 1.3c0 .7 0 1.2.2 1.2l.3 1.2a20.1 20.1 0 0 0 .8 5c0 .5.2 1 .3 1l.2 1.2c0 .7 0 1.2.2 1.2.1 0 .2.5.2 1.2 0 .8 0 1.2.2 1.1.1 0 .2.3.2 1 0 .8 0 1.3.2 1.3l.2 1c0 .7 0 1.2.2 1.2l.3 1.3c0 .7.2 1.2.3 1.3.1 0 .2.5.2 1.1 0 .6 0 1.1.2 1.1.1 0 .2.5.2 1.1 0 .6 0 1.1.2 1.1l.3 1a26 26 0 0 0 .7 4c0 .7.3 1.3.4 1.5l.2 1.1c0 .6 0 1 .2 1 .1 0 .2.4.2 1 0 .5 0 1 .2 1.1l.2 1.1c0 .6 0 1 .2 1l.2 1c0 .6 0 1 .2.9.1 0 .2.2.2.6 0 .7 0 1 .2 1.2v.3l.3.3.1 1c0 .5 0 .9.2.9.1 0 .2.4.2 1 0 .5 0 1 .2 1.1l.2 1c0 .6 0 .9.2.8.1 0 .2.3.2 1 0 .6 0 1.1.2 1.1l.3 1c0 .4.2 1 .3 1l.2 1.1c0 .5 0 .9.2.9.1 0 .2.4.2.9s0 1 .2 1l.2 1.1c0 .6 0 1 .2 1 .1 0 .2.4.2.9 0 .4 0 1 .2 1l.3 1c0 .4.2.8.3 1l.2 1c0 .3 0 .7.2.8l.2.9c0 .4 0 .8.2.9l.2 1c0 .5 0 1 .2 1l.2.9c0 .4 0 .8.2 1l.3.9c0 .4.2.8.3.9.1 0 .2.4.2 1 0 .4 0 .8.2.8.1 0 .2.4.2 1 0 .5 0 1 .2 1l.2.8c0 .4 0 .8.2.9l.2 1c0 .4 0 .7.2.6.1 0 .2.2.2.5 0 1 .2 1.5.4 1.6l.2.8c0 .4 0 .8.2.9l.2.9c0 .4 0 .8.2.9l.2.8c0 .4 0 .7.2.8l.2.9c0 .4 0 .8.2.9l.2.8c0 .4.1.8.3 1 .2.1.3.6.3 1s0 .7.2.8l.2.8c0 .4 0 .7.2.8l.2.8c0 .4 0 .9.2 1l.4 1.4a204.9 204.9 0 0 0 .6 2c.1 0 .2.3.2.8 0 .6 0 .9.2.8.1 0 .2.2.2.7 0 .4 0 .8.2.9l.3.8.3 1.7.4 1.7c0 .5.2.8.4.8.1 0 .2.2.2.8 0 .5 0 .9.2.9.1 0 .2.4.2.9s0 .9.2.9l.2.6c0 .3 0 .6.2.7l.2.7c0 .3 0 .8.2 1l.3 1c0 .5.2.8.3.8l.2.8c0 .4 0 .8.2.9l.2.6c0 .3 0 .5.2.6l.2.9c0 .4 0 .8.2.9l.2.8c0 .3 0 .7.2.8l.2.8c0 .3.2.6.3.7.2.2.3.5.3 1 0 .3 0 .6.2.7l.2.8c0 .4 0 .7.2.7.1 0 .2.3.2.7 0 .4 0 .7.2.6.1 0 .2.2.2.7 0 .4 0 .8.2.9l.2.8c0 .5.1.8.3.8.2.1.3.4.3 1 0 .3 0 .7.2.7l.2.6c0 .3 0 .6.2.7l.2.8c0 .4 0 .7.2.8l.2.8c0 .4 0 .7.2.7.1 0 .2.2.2.5 0 .4.3 1.4.8 2.3l.2 1.1c0 .4 0 .7.2.6.1 0 .2.2.2.6 0 .4 0 .7.2.8l.2.8c0 .4 0 .7.2.7l.2.6c0 .3.1.8.3 1.1.2.3.3.8.3 1 0 .1 0 .3.2.3l.2.6c0 .3 0 .6.2.7l.2.9.2.6.2.4c0 .6.3 1.7.7 2.5.2.3.3.8.3 1 0 .3 0 .5.2.5l.2.8c0 .5 0 .8.2.7.1 0 .2.1.2.5 0 .3 0 .8.2 1l.4 1.2.4 1.3c.1.2.3.5.3.8 0 .2.2.4.3.5.1 0 .2.4.2 1 0 .5 0 .8.2.7.1 0 .2.2.2.7 0 .5 0 .8.2.7.1 0 .2.2.2.6 0 .4 0 .7.2.8l.2.6c0 .3 0 .5.2.6l.3.8c0 .4.2.7.3.7.1 0 .2.3.2.7 0 .4 0 .7.2.7l.2.6c0 .3 0 .6.2.6l.2.4.4 1.7.5 1.7c0 .3.2.5.3.6l.2.6c0 .3 0 .6.2.7l.2.7c0 .3 0 .6.2.6.1 0 .2.2.2.5s0 .5.2.6l.2.7c0 .3 0 .6.2.7l.3.8c0 .4.2.7.3.7l.2.6c0 .3 0 .6.2.7l.2.7c0 .3 0 .6.2.6.1 0 .2.2.2.5 0 .5 0 .7.6 1.6l.3 1.2c0 .4.2.7.3.7l.2.6c0 .3 0 .6.2.7l.2.7c0 .3 0 .6.2.6l.2.6c0 .3.2.6.3.7l.1.5c0 .2 0 .4.2.4.1 0 .2.2.2.5 0 .2.1.6.3.8.2.2.3.7.3 1 0 .5 0 .7.2.6.1 0 .2.1.2.5 0 .3 0 .6.2.6l.2.6c0 .3 0 .6.2.7l.2.7c0 .3 0 .6.2.6.1 0 .2.2.2.5s.1.6.3.8c.2.1.3.5.3.8 0 .3.2.5.2.5l.2.6c0 .3 0 .6.2.7l.2.6.1.6c.2.2.7 1.5.7 2 0 .1.1.4.3.5.2.1.3.5.3.7 0 .3 0 .5.2.5l.2.6c0 .3 0 .6.2.6l.2.6c0 .3 0 .6.2.7l.5 1.4.5 1.1.2.6c0 .3 0 .6.2.6.1 0 .2.2.2.5s0 .5.2.6l.2.7c0 .3 0 .6.2.6.1 0 .2.2.2.5s0 .5.2.5l.2.5c0 .7.2 1 .4.8.1 0 .2.2.2.6 0 .4 0 .7.2.7.1 0 .2.2.2.5s0 .5.2.5l.2.6.2.8.2.6c0 .3 0 .6.2.6.1 0 .2.2.2.5s.1.6.3.6c.2 0 .3.4.3.6 0 .3 0 .7.2.9l.4.8.2.9c0 .3 0 .5.2.5l.2.4c0 .2 0 .4.2.5l.2.6c0 .2.1.6.3.7.2.1.3.5.3.8 0 .3 0 .6.2.6.1 0 .2.2.2.5s0 .5.2.6l.2.6c0 .3 0 .5.2.5l.2.6c0 .3 0 .6.2.6l.2.4c0 .2.1.5.3.5.2 0 .3.4.3.7 0 .3 0 .6.2.7l.2.5c0 .3.1.4.4.4.5 0 .8-.4.8-1 0-.2 0-.4.2-.4l.2-.6c0-.3 0-.6.2-.6l.5-1.1.5-1.2.2-.7c0-.3 0-.6.2-.6l.2-.6c0-.3 0-.6.2-.6.1 0 .2-.2.2-.5 0-.2.1-.6.3-.7.2-.1.3-.5.3-.8 0-.3 0-.6.2-.6l.4-.8.4-1.2.2-.8c0-.2 0-.4.2-.4l.2-.4c0-.3.1-.7.3-.9.2-.2.3-.6.3-.8 0-.3 0-.5.2-.6l.2-.5c0-.2 0-.4.2-.4l.2-.6c0-.3 0-.6.2-.6.1 0 .2-.3.2-.7 0-.4 0-.7.2-.7l.2-.4c0-.2.1-.6.3-.7.2-.2.3-.5.3-.7 0-.2 0-.4.2-.5l.2-.6c0-.3 0-.5.2-.6l.2-.6c0-.3 0-.5.2-.6l.2-.7c0-.4 0-.6.2-.5l.2-.4c0-.2.1-.7.3-1l.3-.9s0-.2.2-.2l.2-.6c0-.3 0-.6.2-.6.1 0 .2-.3.2-.7 0-.4 0-.7.2-.6.1 0 .2-.1.2-.5 0-.3 0-.6.2-.6l.2-.6c0-.3 0-.6.2-.6.1 0 .2 0 .1-.2l.1-.3.2-.5c0-.2 0-.4.2-.4l.2-.6c0-.3 0-.6.2-.6l.2-.6c0-.3 0-.6.2-.7l.2-.7c0-.3 0-.6.2-.6.1 0 .2-.2.2-.5 0-.2 0-.5.2-.5l.3-.8c0-.4.2-.7.3-.8.1 0 .2-.2.2-.5s0-.5.2-.6l.2-.6c0-.3 0-.5.2-.6l.2-.7c0-.3 0-.6.2-.6l.2-.6c0-.3 0-.6.2-.7.1-.1.3-.4.3-.7 0-.3.2-.6.3-.7l.2-.7c0-.3 0-.6.2-.6l.2-.6c0-.3 0-.6.2-.6l.2-.6c0-.3 0-.6.2-.7l.2-.7c0-.3 0-.6.2-.6l.3-.7c0-.4.2-.7.3-.7l.2-.6c0-.3 0-.6.2-.7l.2-.6c0-.3 0-.5.2-.6l.2-.7c0-.3 0-.6.2-.7l.2-.7c0-.3 0-.6.2-.6l.3-.7c0-.4.2-.8.3-.8l.2-.6c0-.3 0-.5.2-.6l.2-.7c0-.3 0-.6.2-.7l.2-.7c0-.3 0-.6.2-.6l.2-.6c0-.3 0-.6.2-.6l.2-.7c0-.4.2-.7.3-.8.2 0 .3-.4.3-.7 0-.3 0-.6.2-.6l.3-.7.2-1.4c0-.4.2-.6.3-.6.1 0 .2-.2.2-.5s0-.8.2-1c.4-.9.8-1.8.8-2.2 0-.2 0-.4.2-.5l.2-.7c0-.3 0-.6.2-.7l.2-.7c0-.3 0-.6.2-.6l.2-.6.2-.9.2-.9c0-.3.2-.6.3-.7.2 0 .3-.4.3-.7 0-.3 0-.6.2-.6.1 0 .2-.3.2-.7 0-.4 0-.7.2-.7l.2-.6c0-.3 0-.6.2-.6.1 0 .2-.3.2-.7 0-.4 0-.7.2-.7l.2-.7c0-.5.2-.9.3-1 .2 0 .3-.4.3-.7 0-.3 0-.6.2-.7l.2-.7c0-.3 0-.6.2-.6l.2-1 .2-.8.2-.6c0-.3 0-.6.2-.6.1 0 .2-.2.2-.5 0-.2.1-.7.3-1 .2-.3.3-.8.3-1 0-.3 0-.5.2-.5l.2-.8c0-.5 0-.8.2-.7.1 0 .2-.2.2-.6 0-.4 0-.7.2-.7l.2-.8c0-.4 0-.8.2-.8.1 0 .2-.3.2-.7 0-.4 0-.7.2-.7.1 0 .3-.4.3-.7l.3-1 .2-.8c0-.3 0-.5.2-.6l.2-.9c0-.4 0-.8.2-.9l.2-.7c0-.3 0-.6.2-.6l.2-.8c0-.4.1-.7.2-.7.2.1.4-.4.4-1 0-.3 0-.5.2-.6l.2-1c0-.4 0-.7.2-.6.1 0 .2-.2.2-.7 0-.5 0-.8.2-.7 0 0 .2-.2.3-.7.3-1.8.4-2.3.6-2.6.3-.2.4-1 .3-1.5l.2-.1c.1 0 .2-.3.2-.7 0-.4 0-.7.2-.8l.2-.8c0-.4 0-.7.2-.7l.3-.8a7 7 0 0 1 .6-2.4c.2-.2.3-.5.3-1l.1-.6c.2 0 .3-.3.3-.7 0-.4 0-.7.2-.8l.2-1c0-.3 0-.7.2-.7l.3-.9c.2-1.4.4-2.8.5-2.5 0 .6.4-.3.4-1 0-.5 0-.8.2-.8.1 0 .2-.3.2-.7 0-.4 0-.7.2-.7l.2-.8c0-.4 0-.8.2-.8.1 0 .2-.4.2-.9s0-.9.2-.9l.2-.8.2-.8c.2-.1.4-.8.7-2.5l.3-.8.2-.9.2-.9.2-1c0-.4 0-.7.2-.7.1 0 .2-.4.2-.9s0-.9.2-.9c.1 0 .2 0 .1-.2v-.2l.3-.5c0-.3 0-.7.2-.8l.2-1c0-.3 0-.7.2-.8l.2-1c0-.3 0-.7.2-.7l.2-.9c0-.4 0-.8.2-.9.1 0 .2-.4.2-1 0-.4 0-.8.2-.8l.3-.8c0-.4.2-.9.3-1.1l.3-1.2a772.5 772.5 0 0 1 .9-4.3c.1 0 .2-.4.2-.9s0-.9.2-.9l.3-.9c0-.5.2-1 .3-1l.2-.9c0-.4 0-.8.2-.9l.2-1c0-.5 0-.9.2-.9.1 0 .2-.4.2-.9s0-.9.2-.9c.1 0 .2-.4.2-.9 0-.4 0-1 .2-1 .2-.2.5-1.5.7-3.2 0-.4.2-.8.3-.8l.2-1c0-.5 0-1 .2-1l.2-1c0-.5 0-.9.2-.9.1 0 .2-.4.2-.9 0-.4 0-1 .2-1 .1-.1.3-.6.3-1s.2-.9.3-1.1l.2-1.2c0-.4 0-.8.2-.8.1 0 .2-.4.2-.9s0-1 .2-1l.2-1.1c0-.6 0-1 .2-1 .1 0 .2-.4.2-1 0-.5 0-1 .2-1.1.1-.1.3-.7.3-1.2 0-.6.2-1 .3-1l.2-1c0-.5 0-1 .2-1l.2-1c0-.6 0-1.1.2-1.1 0 0 .2-.6.2-1.3 0-.6.1-1.1.2-1.1s.2-.4.2-.9c0-.4 0-1 .2-1l.3-1c0-1 .2-1.4.3-1.5l.2-1.2c0-.7.2-1.1.2-1 .1 0 .2-.4.2-1 0-.5 0-1 .2-1l.2-1c0-.7 0-1.2.2-1.3l.2-1c0-.6 0-1.1.2-1.1l.3-1.3c0-.6.2-1.2.3-1.4l.2-1 .2-1 .2-1.1c0-.6 0-1 .2-1.1l.2-1.2c0-.6 0-1.1.2-1.1.1 0 .2-.6.2-1.3 0-.8 0-1.3.2-1.2.1 0 .2-.2.2-.5 0-1.1.1-1.5.4-2l.2-1.4c0-.5 0-1 .2-1l.3-1.1a1572.8 1572.8 0 0 1 .7-5c0-.6 0-1.1.2-1.2l.2-1.2c0-.7.1-1.2.3-1.4l.3-1.3.2-1.3.2-1.6c0-.8 0-1.3.2-1.2.1 0 .2-.3.2-1s0-1.3.2-1.4l.2-1.4c0-.7 0-1.3.2-1.3 0 0 .2-.5.2-1.1 0-.7.1-1.4.3-1.7.1-.3.3-1 .3-1.6l.2-1.3.3-1.5c.3-3.4.3-4 .5-4l.2-1.7c0-.8 0-1.5.2-1.6l.2-1.3c0-.6 0-1.2.2-1.3.1 0 .2-.2 0-.3 0-.1 0-.2.2-.2.1 0 .2-.5.2-1.4 0-.8 0-1.4.2-1.4.1 0 .2-.6.2-1.5 0-.8 0-1.5.2-1.6.1 0 .2-.7.2-1.5s0-1.4.2-1.5l.2-1.6a258.6 258.6 0 0 1 .2-2.1c.1 0 .2-.5.2-1.2l.2-1.7c.3-.6.5-2.6.7-5.2 0-.8.2-1.5.3-1.6l.2-1.9c0-1 .1-1.7.2-1.8.1 0 .2-.9.2-2 0-1 0-1.8.2-1.8.1 0 .2-.8.2-2 0-1.5 0-2 .3-2.1.2 0 .3-.6.3-1.9 0-1 .1-1.7.2-1.8l.2-2c0-1.2 0-2 .2-2 .1 0 .2-.8.2-2.1 0-1.4 0-2 .2-2 .1 0 .2-.7.2-2s0-2.3.2-2.3c0 0 .2-1 .2-2.1a8 8 0 0 1 .2-2.3c.2-.1.4-1.3.4-3.6 0-1 .1-1.8.2-1.8 0 0 .2-1 .2-2.3l.2-2.6.3-3 .2-5.5c0-1.6.2-2.8.3-2.8 0 0 .2-1.4.2-3.1 0-3.4 0-3.5.3-3.7.2-.2.3-1.6.3-5.3 0-1.6.1-2.8.2-2.8s.2-1.9.2-4.3 0-4.4.2-4.5c0 0 .2-3 .2-7a46.6 46.6 0 0 1 .2-7.3c-.1 0-.2-.3-.2-.9a77.8 77.8 0 0 0 .3-7.9 94.5 94.5 0 0 0-.3-9.5c0-.3-.1-.5-.3-.5-.4 0-1.5-.6-1.5-.8 0-.1-.2-.2-.5-.2s-.5 0-.5-.2l-.4-.2c-.2 0-.4 0-.4-.2 0-.1-1.4-.6-1.9-.6-.2 0-.3 0-.3-.2s-1.2-.8-1.7-.8c-.3 0-.5 0-.5-.2l-.4-.2c-.2 0-.4 0-.5-.2l-.5-.2c-.2 0-.4 0-.4-.2l-.6-.2c-.3 0-.5 0-.6-.2 0-.1-.2-.2-.5-.2s-.8-.1-1.1-.3c-1.3-.7-1.4-.7-1.9-.7-.3 0-.5 0-.5-.2l-.6-.2c-.3 0-.6 0-.6-.2l-.8-.3c-1.1-.1-1.9-.3-2-.6l-1-.2c-.4 0-.7-.2-.8-.3l-.8-.2c-.4 0-.8 0-.8-.2 0-.1-.3-.2-.7-.2-.4 0-.7 0-.7-.2 0-.1-.4-.2-.9-.2s-.9 0-1-.2c0 0-.4-.2-1-.2-.5 0-.8-.1-.8-.2.1-.2-.4-.4-1.2-.4-.4 0-.7 0-.8-.2l-.8-.2-1.1-.2-1.2-.2c-.4 0-.8 0-.9-.2l-1.2-.2c-.6 0-1.1 0-1.1-.2l-1-.2a4 4 0 0 1-1.5-.3c-.2-.1-.8-.3-1.4-.3l-1.3-.2-1.5-.2c-.6 0-1.1 0-1.2-.2 0-.1-.7-.2-1.5-.2s-1.4 0-1.5-.2l-1.8-.2c-1 0-1.7 0-1.8-.2l-2-.2a6 6 0 0 1-2.4-.3l-2.5-.3a7 7 0 0 1-2.2-.2c0-.1-1.5-.2-3.2-.2-2 0-3.2 0-3.2-.2 0-.1-5.7-.2-16.6-.2a150.6 150.6 0 0 0-17 .2m22.8 8.1a304.3 304.3 0 0 1 45.9 5.3 125 125 0 0 1 16.5 5 33 33 0 0 1 5.4 2.7 853 853 0 0 1-6.4 99.7l-.4 3.3A531 531 0 0 1 269 166l-.3 2.4-.3 2.2a894.1 894.1 0 0 0-2.8 18.8 1577.1 1577.1 0 0 1-7.8 44.3 337 337 0 0 0-2 10.1 150.2 150.2 0 0 1-2.2 10.4 201.9 201.9 0 0 1-3 14.1 211.5 211.5 0 0 1-2.5 10.3 247.2 247.2 0 0 1-3.5 14.6 143.1 143.1 0 0 0-1.6 6.3 195 195 0 0 0-2.6 10.1 229.3 229.3 0 0 1-2.5 9.3 515.7 515.7 0 0 1-6.7 23.7 232 232 0 0 1-4 13.4 331.3 331.3 0 0 1-5 15.8 896.6 896.6 0 0 1-17.6 49.3c-.2-.1-.3-388.3 0-388.5h.9l4.7.1m104.3 16.5l-.1.4c-.2.2-.3.3 0 .6.1.3.2 2.2.2 7.2a57.6 57.6 0 0 0 .4 7.9c0 .7 0 1.1-.2 1.1s-.2 0 0 .2c.3.4.3 6.4 0 6.8-.3.2-.3.2 0 .1.3-.2.3 3.2 0 3.4 0 0-.2 3.5-.2 8.3a74.7 74.7 0 0 1-.2 8.7 17 17 0 0 0-.4 5c0 2.5-.1 4.6-.2 4.7 0 0-.2 1.7-.2 3.7l-.2 4a18 18 0 0 0-.2 3.3c0 2.3 0 3-.3 3-.1 0-.1 0 0 .2.3.1.3.2.1.3-.1 0-.2 1-.2 2.7 0 1.5 0 2.6-.2 2.7-.1 0-.2 1.3-.2 3s0 2.9-.2 2.8c-.2-.2-.3.6-.4 2.8a8 8 0 0 1-.2 2.2c-.1 0-.2 1.1-.2 2.3a7 7 0 0 1-.2 2.3c-.1 0-.2 1.1-.2 2.5 0 1.6 0 2.4-.2 2.3-.1 0-.2.6-.2 1.8 0 1 0 1.9-.2 2l-.2 2c0 1.3-.1 2.3-.3 2.4a5 5 0 0 0-.3 1.8c0 .9 0 1.7-.2 1.8-.1.3-.2.6-.2 2.3 0 .9-.1 1.6-.2 1.6 0 0-.2.7-.2 1.6 0 1-.1 1.7-.2 1.8-.1 0-.2.9-.2 1.9 0 1-.1 1.7-.2 1.7s-.2.7-.2 1.5c0 .9 0 1.5-.2 1.5-.1 0-.3.8-.3 1.6l-.3 1.8-.2 1.7c0 .8-.1 1.4-.2 1.5-.1 0-.2.7-.2 1.6 0 1 0 1.6-.2 1.6-.1 0-.2.6-.2 1.5s0 1.5-.2 1.5c-.1 0-.2.6-.2 1.3l-.2 1.4a4 4 0 0 0-.3 1.6l-.3 1.7-.2 1.5c0 .6 0 1.1-.2 1.2l-.2 1.4c0 .7 0 1.3-.2 1.3-.1 0-.2.6-.2 1.3 0 .7 0 1.3-.2 1.3-.1 0-.2.6-.2 1.3 0 .7 0 1.3-.2 1.4-.1.1-.3.8-.3 1.4 0 .7-.2 1.3-.3 1.4l-.2 1.3-.2 1.2-.2 1.2-.2 1.3-.2 1.2c0 .6 0 1.1-.2 1.2-.1 0-.2.6-.2 1.3 0 .6 0 1.2-.2 1.3a3 3 0 0 0-.3 1.2 3 3 0 0 1-.3 1.3l-.2 1.2c0 .5 0 1-.2 1l-.2 1.3c0 .6 0 1.1-.2 1.1l-.2 1a3 3 0 0 1-.2 1.3l-.2 1.2c0 .6 0 1.1-.2 1.1l-.3 1c0 .6-.2 1.2-.3 1.4l-.2 1.3c0 .5 0 .9-.2.9-.1 0-.2.4-.2 1 0 .5 0 1-.2 1.1l-.2 1.1c0 .5 0 1-.2 1.1l-.2 1c0 .6 0 1.1-.2 1.1l-.3 1c0 .6-.2 1.2-.3 1.3l-.2 1-.2 1-.2 1.1-.2 1-.2 1.1c0 .5 0 .9-.2.9-.1 0-.2.4-.2 1 0 .5 0 1-.2 1.1l-.3 1c0 .3-.1.8-.3 1l-.2 1.3c0 .4 0 .8-.2.8-.1 0-.2.5-.2 1.1 0 .7 0 1-.2 1-.1 0-.2.3-.2.9 0 .5 0 1-.2 1-.1 0-.2.3-.2.8l-.1.9-.2.4c-.2 1.2-.7 3.2-1 3.5l-.1 1c0 .5 0 .8-.2.9l-.2.9c0 .4 0 .8-.2.9l-.2 1c0 .4 0 1-.2 1l-.2 1c0 .6-.1.9-.3.9-.2 0-.3.3-.3.8 0 .4 0 .8-.2.9l-.2 1c0 .5 0 1-.2 1l-.2.8c0 .4 0 .7-.2.8l-.2 1c0 .3 0 .7-.2.7-.1 0-.2.3-.2.8 0 .4-.1.9-.3 1-.2.1-.3.5-.3 1 0 .3 0 .6-.2.7l-.2.8c0 .5-.1.8-.2.9-.1 0-.2.4-.2 1 0 .4 0 .8-.2.8l-.2.8c0 .4 0 .8-.2.9l-.2.7c0 .3-.1.7-.3 1a2 2 0 0 0-.3 1c0 .3 0 .6-.2.7l-.2.9c0 .4 0 .8-.2.9l-.2.8c0 .4 0 .7-.2.7l-.2.8c0 .4 0 .8-.2.8l-.2.6c0 .3-.1.8-.3 1.1-.2.3-.3.8-.3 1 0 .3 0 .5-.2.6l-.2.8c0 .4 0 .7-.2.8l-.2.8c0 .4 0 .7-.2.7l-.2.8c0 .4 0 .8-.2.8-.1 0-.2.3-.2.8 0 .4 0 .8-.2 1a8 8 0 0 0-.8 2.6c0 .2 0 .4-.2.4-.1 0-.2.3-.2.7 0 .4 0 .7-.2.7l-.2.8c0 .4 0 .8-.2.9l-.2.8c0 .4 0 .7-.2.6-.2-.1-.4.5-.4 1.3 0 .2 0 .4-.2.4-.1 0-.2.3-.2.7 0 .4 0 .7-.2.7-.1 0-.2.3-.2.7 0 .4 0 .7-.2.8l-.2 1c0 .4 0 .7-.2.6-.1 0-.2.2-.2.6 0 .4-.1.9-.3 1-.2.2-.3.5-.3.8 0 .3 0 .5-.2.6l-.2.7c0 .3 0 .6-.2.6-.1 0-.2.3-.2.7 0 .4 0 .7-.2.8l-.2.8c0 .4 0 .7-.2.7-.1 0-.2.3-.2.7 0 .4 0 .7-.2.7a7 7 0 0 0-.8 2.6c0 .2 0 .4-.2.4-.1 0-.2.3-.2.7 0 .4 0 .7-.2.7l-.2.6c0 .3 0 .6-.2.6l-.2.8c0 .5 0 .8-.2.7-.2-.1-.4.4-.4 1.1 0 .4 0 .6-.2.5-.1 0-.2.2-.2.6 0 .4 0 .7-.2.8l-.2.6c0 .3 0 .5-.2.6l-.2.8c0 .4 0 .7-.2.6-.1 0-.2.1-.2.5 0 .3-.1.8-.3 1-.2 0-.3.4-.3.7 0 .3 0 .5-.2.6l-.2.6c0 .3 0 .5-.2.6l-.2.7c0 .3 0 .6-.2.6l-.2.6c0 .3 0 .6-.2.7l-.2.7c0 .3 0 .6-.2.6l-.3.7c0 .4-.2.8-.3.8l-.2.6c0 .3 0 .5-.2.6l-.2.8c0 .4 0 .7-.2.6-.1 0-.2.1-.2.5 0 .3 0 .6-.2.7l-.2.7c0 .3 0 .6-.2.6l-.3.7c0 .4-.2.8-.3.8l-.2.7c0 .3 0 .6-.2.6l-.2.6c0 .3 0 .6-.2.6l-.2.5c0 .4 0 .6-.2.7-.1 0-.2.3-.2.7 0 .4 0 .7-.2.7l-.3.5-.3.9a2 2 0 0 0-.2.8c0 .2 0 .4-.2.4l-.2.4-.4 1.4a7 7 0 0 0-.4 1.4c0 .2 0 .4-.2.4-.1 0-.3.4-.3.8s-.2.7-.3.7c-.1 0-.2.1-.2.5 0 .3 0 .6-.2.7l-.4 1.1-.4 1.1-.2.6c0 .3 0 .5-.2.6l-.5 1.1c-.3 1-.6 1.8-1 2.4l-.1.9c0 .3 0 .5-.2.5l-.2.6c0 .3 0 .6-.2.6l-.2.3-.5 1.4a4 4 0 0 0-.5 1.4c0 .3 0 .5-.2.5-.1 0-.2.2-.2.5s0 .5-.2.6l-.2.6c0 .3 0 .5-.2.5l-.2.6c0 .3-.2.6-.3.7-.2 0-.3.4-.3.7 0 .3 0 .6-.2.6l-.2.4c0 .2 0 .4-.2.5l-.2.7c0 .3 0 .6-.2.6l-.2.6c0 .3 0 .6-.2.5l-.3.6c0 .4-.2.7-.3.7l-.2.4-.4 1.3a5 5 0 0 0-.4 1.3c0 .2 0 .4-.2.4-.1 0-.2.2-.2.5s0 .5-.2.5c-.1 0-.2.1-.2.3l-.3.8c-.2.3-.3.8-.3 1 0 .1 0 .3-.2.3l-.2.4c0 .2 0 .4-.2.5l-.2.5c0 .2 0 .6-.2.8l-.4.9-.5 1.2-.3.8c0 .2 0 .3-.2.3l-.2.6c0 .3 0 .6-.2.6-.1 0-.6 1.4-.6 1.9 0 .2 0 .3-.2.3-.1 0-.2.1-.2.3 0 .2-.1.5-.3.6-.2.2-.3.5-.3.8 0 .3 0 .5-.2.5-.1 0-.2.2-.2.5s0 .5-.2.5l-.4 1-.4 1c-.1 0-.2.2-.2.5s0 .5-.2.5-.4.9-.3 1.3c.2.5 1.3 0 1.3-.7l.6-.8c.3-.4.6-.8.6-1l.3-.3.2-.6c-.1-.5.7-2 3.7-6.7a22 22 0 0 0 1.6-2.6c.1 0 .2 0 .2-.2l2.3-4A912.3 912.3 0 0 0 331.4 228a23.4 23.4 0 0 0 1-3.2l1-2.8a645 645 0 0 0 8.1-26.4l1.1-3.9A599 599 0 0 0 355 138a469 469 0 0 1 1.8-10.6l.6-3.9a357.9 357.9 0 0 0 2-14.8 324.3 324.3 0 0 0 2.3-39.4c-.2 0-.3 0-.3-.2l-.4-.2c-.2 0-.4 0-.4-.2l-.2-.2-1-.5-.8-.5c-.1 0-.2 0-.2-.2l-.4-.2c-.2 0-.4 0-.4-.2l-1.1-.6-1.2-.7c0-.2-.3-.3-.5-.3s-.4 0-.4-.2l-.7-.4-.7-.4-.4-.2c-.2 0-.4 0-.4-.2l-.4-.2c-.2 0-.4 0-.4-.2l-.9-.5-.9-.5-.4-.2c-.2 0-.4 0-.4-.2 0-.1-.2-.2-.5-.2s-.5 0-.5-.2l-.4-.2c-.2 0-.4 0-.4-.2l-.9-.5-.9-.5-.5-.2-.5-.2-.4-.2c-.2 0-.4 0-.5-.2l-.5-.2c-.2 0-.5-.1-.5-.3 0-.2-.3-.3-.4-.3-.2 0-.5 0-.7-.2l-.8-.3-1.4-.7-1.2-.4a.5.5 0 0 1-.5-.3c0-.2-.2-.3-.4-.3a2 2 0 0 1-.7-.2l-.8-.4-.8-.2c-.2 0-.4 0-.4-.2 0-.1-.3-.2-.8-.2s-.6 0-.4-.2c.2-.1.2-.2-.3-.2-.4 0-.7-.1-.8-.3 0-.2-.3-.3-.5-.3s-.4 0-.5-.2l-.5-.2c-.2 0-.6 0-.8-.2l-.8-.4-.8-.2c-.2 0-.4 0-.5-.2l-.7-.2c-.4 0-.6 0-.5-.2.1-.2-.4-.4-1-.4-.1 0-.3 0-.3-.2l-.4-.1a3 3 0 0 1-.9-.3c-1-.4-1.5-.6-2-.6-.1 0-.3 0-.3-.2l-.6-.2-.8-.2-.8-.3c-.4 0-.8-.2-.9-.3a4 4 0 0 0-1.2-.2c-.6 0-1-.1-1-.2l-1-.2c-.5 0-.7 0-.6.2M93.2 50.6c0 .1-.5.2-1.1.2-.6 0-1.1 0-1.1.2l-1 .2c-.7 0-1.2 0-1.3.2l-.5.2c-.2 0-.8.2-1.3.5s-1.2.5-1.5.5c-.4 0-.6 0-.5.2 0 .1-.1.2-.5.2-.3 0-.6 0-.6.2l-.7.2c-.4 0-.6.2-.6.2 0 .1-.1.2-.5.2-.3 0-.6 0-.7.2l-.7.3c-.4 0-.6.2-.5.3 0 .1-.1.2-.5.2-.3 0-.6 0-.6.2 0 .1-.3.2-.7.2-.4 0-.7 0-.7.2l-.4.3a13 13 0 0 0-3.5 1.3c-.3 0-.5 0-.5.2l-.4.2c-.2 0-.4 0-.4.2 0 .1-.2.2-.5.2l-1.2.4-1 .4c-.2 0-.4.1-.4.3 0 .2-.4.3-.7.3-.4 0-.6 0-.5.2 0 .1 0 .2-.2.2-.5 0-.5 0-1.4.5a157 157 0 0 1-3.5 1.7 2 2 0 0 1-.7.4l-1 .4a5 5 0 0 1-1 .4c-.2 0-.5.2-.8.5-.3.3-.8.5-1 .5l-1 .4a403.8 403.8 0 0 1-9.1 5.2c-.3 0-1.2.7-1.1.8l-.3.1c-.8.1-1 .5-.8 2.4l.4 6.1a250.8 250.8 0 0 0 2.6 27.6 818.3 818.3 0 0 0 3.4 21.9l.6 3.5a2022.5 2022.5 0 0 0 2.8 14.1 215.7 215.7 0 0 1 1.8 8.5 358 358 0 0 0 5 20.6 88.1 88.1 0 0 0 1.6 6.1 621.6 621.6 0 0 0 9.2 31.5 1395 1395 0 0 0 13 37.7 495.7 495.7 0 0 0 11.6 29.4 57.5 57.5 0 0 0 2.2 5.2 98.4 98.4 0 0 1 2.7 6.3 130.7 130.7 0 0 0 2.9 6.6 550.8 550.8 0 0 1 6.3 14 416.5 416.5 0 0 1 3.4 7.1l2.5 5.3 12.6 25.1 2.1 4.1a182.6 182.6 0 0 0 3.1 5.7 204.8 204.8 0 0 0 6.4 11.8 469.8 469.8 0 0 0 8.5 15.1c.7 1.1 7 12 9.8 16.5l2.2 3.7a160.7 160.7 0 0 0 3.3 5.3c0 .2.8.9 1 .9l.3.3c0 .1 0 .1 0 0l-.1-.4-.2-.5c0-.2 0-.4-.2-.4-.1 0-.2-.2-.2-.5s0-.5-.2-.5l-.2-.6c0-.3 0-.6-.2-.6l-.2-.4a1 1 0 0 0-.3-.7c-.2-.1-.3-.5-.3-.7 0-.2 0-.4-.2-.4-.1 0-.2-.2-.2-.5s0-.5-.2-.6l-.2-.6c0-.3 0-.5-.2-.4-.1 0-.2 0-.2-.4 0-.3 0-.5-.2-.6l-.3-.7c0-.3-.2-.6-.3-.6-.1 0-.2-.2-.2-.5s0-.5-.2-.6l-.2-.6c0-.3 0-.5-.2-.5l-.2-.4c0-.2 0-.4-.2-.5l-.2-.6c0-.3 0-.5-.2-.6l-.2-.5a1 1 0 0 0-.3-.7c-.2-.1-.3-.5-.3-.7 0-.2 0-.4-.2-.4-.1 0-.2-.2-.2-.5s0-.5-.2-.5l-.2-.6c0-.3 0-.6-.2-.6l-.2-.4c0-.5-.5-1.7-.8-1.9l-.2-.7c0-.3 0-.6-.2-.6-.1 0-.6-1.4-.6-1.9 0-.2 0-.3-.2-.3l-.4-1-.5-1.2a1 1 0 0 1-.3-.7c0-.3 0-.5-.2-.5-.1 0-.2-.1-.2-.3 0-.5-.5-1.9-.6-1.9l-.2-.6c0-.3 0-.6-.2-.7l-.2-.5a1 1 0 0 0-.3-.6 1 1 0 0 1-.3-.7c0-.3 0-.5-.2-.5l-.2-.3a9 9 0 0 0-.7-2.4c-.2-.3-.2-.7-.2-.7v-.2c-.2 0-.3-.2-.3-.5a1 1 0 0 0-.3-.7c-.2-.1-.3-.5-.3-.8 0-.3 0-.6-.2-.6l-.2-.6c0-.3 0-.6-.2-.6-.1 0-.2-.2-.2-.5s0-.5-.2-.6l-.2-.6c0-.3 0-.5-.2-.5l-.2-.6c0-.3-.1-.7-.3-.7l-.3-.7c0-.3 0-.5-.2-.6l-.2-.6-.1-.7c-.2-.2-.7-1.5-.7-2 0-.1 0-.3-.2-.3-.1 0-.2-.2-.2-.6 0-.3-.1-.7-.3-.9a1 1 0 0 1-.3-.7c0-.2 0-.4-.2-.4-.1 0-.2-.3-.2-.7 0-.4 0-.7-.2-.6-.1 0-.2-.2-.2-.6 0-.4 0-.7-.2-.7l-.2-.6c0-.3 0-.6-.2-.7l-.2-.5c0-.2 0-.4-.2-.4l-.1-.4-.4-1a3 3 0 0 1-.3-1.1c0-.3 0-.5-.2-.5-.1 0-.2-.2-.2-.5s0-.5-.2-.5l-.2-.6-.2-.9-.2-.6c0-.3 0-.5-.2-.5-.1 0-.2-.2-.2-.5s-.1-.6-.3-.8c-.2-.1-.3-.5-.3-.8 0-.3 0-.5-.2-.6l-.2-.7c0-.3 0-.6-.2-.6l-.2-.1c.1-.6 0-1.3-.2-1.2-.1 0-.2-.2-.2-.6 0-.4 0-.7-.2-.7l-.5-1.3-.5-1.3-.2-.9-.2-.9-.2-.6c0-.3 0-.6-.2-.7a7 7 0 0 1-.5-1.4l-.5-1.3-.2-.3c0-.4-.4-1.6-.6-2.1l-.2-.9-.4-1.5a7 7 0 0 1-.4-1.4 1 1 0 0 0-.3-.7c-.2-.1-.3-.5-.3-.9 0-.3 0-.6-.2-.6-.1 0-.2-.3-.2-.7 0-.4 0-.7-.2-.6-.1 0-.2-.2-.2-.7 0-.4 0-.8-.2-.9l-.2-.6c0-.2 0-.5-.2-.6l-.2-.8c0-.3-.2-.6-.3-.7-.2-.2-.3-.6-.3-1 0-.5 0-.8-.2-.8l-.2-.6c0-.3 0-.6-.2-.6-.1 0-.2-.3-.2-.7 0-.4 0-.7-.2-.8l-.2-.6a4 4 0 0 0-.3-1.2l-.3-.8c0-.4 0-.5-.2-.4-.1 0-.2-.2-.2-.8 0-.7 0-1-.2-.7-.1.2-.2 0-.2-.6s0-1-.2-1c-.1 0-.2-.3-.2-.7 0-.4 0-.7-.2-.8l-.2-.7c0-.3 0-.6-.2-.7l-.4-1.6h-.2c-.1 0-.2-.2-.2-.8 0-.5 0-.9-.2-.9-.1 0-.2-.3-.2-.7 0-.4 0-.7-.2-.8l-.2-.8c0-.4 0-.7-.2-.7-.1 0-.2-.3-.2-.7 0-.4 0-.7-.2-.7-.1 0-.2-.3-.2-.7 0-.4-.1-.8-.3-.8-.2-.1-.3-.4-.3-1 0-.5 0-.9-.2-.9l-.2-.8c0-.4 0-.8-.2-.9l-.2-.7c0-.3 0-.6-.2-.7l-.3-.8-.2-1.5c0-.3-.3-.7-.4-.7-.3-.1-.3-.2 0-.3.1-.2.1-.2 0-.2-.2 0-.3-.3-.3-.7 0-.4 0-.7-.2-.7-.1 0-.2-.4-.2-.9s0-.9-.2-.9l-.2-.8c0-.4 0-.8-.2-.8l-.2-.8c0-.4 0-.8-.2-.9l-.2-.6c0-.6-.2-1.1-.4-1l-.2-.8-.2-1-.2-1c0-.4 0-.7-.2-.6l-.3-.8-.5-2.8-.2-.9c0-.4-.2-.7-.3-.7-.2-.1-.3-.5-.3-1s0-.9-.2-.9l-.2-.8c0-.4 0-.8-.2-.8l-.2-1-.2-1-.2-.9c0-.3 0-.7-.2-.9a3 3 0 0 1-.2-1c0-.3-.2-.6-.3-.7-.2 0-.3-.5-.3-1 0-.6 0-1.1-.2-1.1-.1 0-.2-.4-.2-.9s0-.9-.2-.9c-.1 0-.2-.4-.2-.9s0-1-.2-1l-.2-.8c0-.4 0-.7-.2-.7l-.2-1c0-.5-.1-1-.3-1.2-.2-.3-.4-1-.6-3 0-.6-.2-1-.3-1-.1 0-.2-.4-.2-.9s0-1-.2-1l-.2-1c0-.5 0-1-.2-1l-.2-1c0-.5 0-.7-.3-.7-.2 0-.3-.3-.3-1s0-1.2-.2-1.3l-.2-1c0-.5 0-1-.2-1l-.2-1c0-.5 0-.9-.2-.9-.1 0-.2-.4-.2-1 0-.5 0-1-.2-1.1l-.3-1.1c0-.5-.2-1.1-.3-1.4l-.2-1.2c0-.4 0-.8-.2-.8-.1 0-.2-.5-.2-1.1 0-.6 0-1.1-.2-1.1-.1 0-.2-.4-.2-1 0-.5 0-1-.2-1l-.2-1c0-.7 0-1.2-.2-1.3l-.2-1c0-.5 0-1-.2-1l-.3-1.2c0-.6-.2-1.2-.3-1.2l-.2-1.1c0-.5 0-1-.2-1.1l-.2-1.1a4 4 0 0 0-.2-1.4 4 4 0 0 1-.2-1.3c0-.5-.1-.9-.2-.9s-.2-.4-.2-1c0-.5 0-1-.2-1l-.2-.3c-.2-2-.3-2.4-.4-2.6l-.2-1.2c0-.6 0-1.1-.2-1.1-.1 0-.2 0-.2-.2.1-.6 0-2.4-.2-2.3l-.3-1.1c-.2-2.5-.4-4-.6-4.2-.1 0-.2-.6-.2-1.3 0-.6-.2-1.3-.3-1.4l-.2-1.2c0-.6 0-1.1-.2-1.2l-.2-1.2c0-.6 0-1.3-.2-1.5l-.2-1.6c0-.7-.1-1.3-.2-1.3l-.2-1.1c0-.5 0-1.2-.2-1.5-.1-.3-.3-1.1-.3-1.8s-.2-1.2-.3-1.3l-.2-1.4c0-.8 0-1.4-.2-1.5-.1 0-.2-.7-.2-1.5s0-1.4-.2-1.5c-.1 0-.2-.7-.2-1.5 0-.7 0-1.4-.2-1.5l-.2-1.5a5 5 0 0 0-.2-1.5l-.3-1.8c0-.9-.2-1.6-.3-1.7-.1 0-.2-.7-.2-1.5 0-.9 0-1.5-.2-1.5-.1 0-.2-.7-.2-1.7s0-1.7-.2-1.7c-.1 0-.2-.7-.2-1.7s0-1.7-.2-1.8l-.2-1.8c0-.9 0-1.7-.2-1.8-.1-.2-.4-2.4-.4-3.5l-.2-.5-.2-1.9c0-1 0-1.8-.2-1.9-.1 0-.2-1-.2-2.2 0-1.4 0-2-.2-1.7-.1.2-.2-.4-.2-2 0-1.3 0-2.2-.2-2.2-.1 0-.2-.8-.2-2 0-1.1 0-2.2-.2-2.4l-.3-2.5a7 7 0 0 0-.3-2.3c-.1 0-.2-1-.2-2.4 0-1.5 0-2.4-.2-2.4-.1 0-.2-1-.2-2.7 0-1.5 0-2.7-.2-2.7-.1 0-.2-1.3-.2-3a13 13 0 0 0-.2-2.8c-.1 0-.2-1.5-.2-3.2 0-1.7-.1-3.2-.2-3.3l-.3-3.5c0-3.3-.1-3.7-.3-4.1-.1-.1-.2-2.2-.2-4.7a27.7 27.7 0 0 0-.3-4.5c0-3-.1-14.7-.3-14.6-.2.1-.1-12.3.1-20l-.1-3.5c-.1 0-.2 0-.1-.2v-.2c-.2 0-.3 0-.3.2m221.5 14.7v-.6.6m0 10.1v-.7.7" fill="#e7bf2b"/>
    <path d="M204.5 32.6a120380.7 120380.7 0 0 0 .3 388.3l.9-2.4a417 417 0 0 0 9-24.4l1.6-4.6a896.6 896.6 0 0 0 16.9-53.7 379.2 379.2 0 0 1 2.2-7.8 515.7 515.7 0 0 0 6.8-25.4 195 195 0 0 1 2.4-9.4 567.2 567.2 0 0 0 5-21.2 211.5 211.5 0 0 0 2.5-10.9 201.9 201.9 0 0 0 2.6-12.1l1-5.2a1272 1272 0 0 1 3.9-19.5 248.3 248.3 0 0 0 2.3-12.6 201 201 0 0 0 2-11.1 528 528 0 0 1 1.7-11.2 411 411 0 0 1 1.6-10.5 894.1 894.1 0 0 1 1.5-10.5l.3-2.4a1880.4 1880.4 0 0 1 2.2-17.3l.4-3.3a704.8 704.8 0 0 0 2.8-27.1 853 853 0 0 0 3.6-72.6 37.2 37.2 0 0 0-6.7-3.3 125 125 0 0 0-27.1-6.6 93.1 93.1 0 0 0-5.6-.8 304.3 304.3 0 0 0-34-2.4" fill="#f1df4c"/>
    <path d="M362.4 69.8c0 .2.5.8.7.8.2 0 2.2 1.4 2.3 1.6l.4.2.4.1c0 .1.4.5.9.8.5.3.9.7.9.8l.4.1c.2 0 .4.2.6.4l.5.4c.2 0 .3 0 .3.2 0 .1.1.2.3.2.2 0 .5.2.8.5.2.3.5.5.6.5l.9.6.9.6c.3 0-.4-.8-1-1.1a8 8 0 0 1-1.2-1c-.3-.2-.7-.5-1-.5l-.3-.2c0-.3-.5-.8-.8-.8-.2 0-.4-.2-.6-.4l-.5-.4c-.2 0-.3 0-.3-.2 0-.1-.1-.2-.3-.2l-.8-.5-.8-.5-.5-.4c-.2-.2-.4-.4-.6-.4-.2 0-.4 0-.4-.2 0-.1-.1-.2-.3-.2l-.3-.1c0-.1-.3-.4-.6-.5l-.6-.2M44.2 72c0 .2 0 .3.2.3l.3-.3c0-.2 0-.3-.2-.3s-.3.1-.3.3m-.6.4c-.1.2-.4.3-.5.3-.2 0-.3 0-.3.2 0 0-.2.3-.5.4l-1 .6-.6.4c-.2 0-.9.7-.9.9 0 .3.5 0 .8-.3.2-.2.4-.4.6-.4l.8-.5.7-.5.5-.4c.2-.2.4-.4.6-.4.4 0 .5-.3.2-.5 0 0-.3 0-.4.2M39 75.6c0 .1 0 .2-.2.2-.4 0-2.1 1.6-2 1.7.1 0 .4 0 .6-.2.2-.3.6-.6 1-.7 1-.5 1.5-1.2.9-1.2-.2 0-.3 0-.3.2m-3.9 2.9c-.5.4-.5.5-.1.4.2 0 .4 0 .4-.2s.1-.3.3-.4c0 0 .2-.1 0-.2l-.6.4m339.1-.3l.7.5.6.3-.5-.5c-.6-.5-.8-.6-.8-.3m7.6 6.5c0 .3 1 1.4 1.2 1.2l-.2-.4c-.2-.1-.3-.3-.3-.4l-.1-.1a.5.5 0 0 1-.5-.3s0-.1 0 0m-356 1.9l-1 1c.1.2 1.1-.7 1.9-1.7.4-.6.1-.3-1 .7m356.8 3.2c0 .5 0 .8.2.7l.2-.8c0-.4 0-.7-.2-.7l-.2.8m-357.8.5c0 .4 0 .7.2.8.2.1.5-1 .3-1.3-.2-.4-.4-.2-.5.5m357.4 2.3c0 .5 0 .8.2.7l.2-.7c0-.3 0-.6-.2-.7-.1 0-.2.2-.2.7m-357 .5c.1.3.2.6.4.7.3 0 .3-1.1 0-1.3-.3 0-.3.1-.3.6m356.5 2.2c0 .4 0 .7.2.6l.2-.7c0-.3 0-.6-.2-.6-.1 0-.2.3-.2.7m-356 .6c0 .4 0 .7.2.8.1 0 .2-.2.2-.6 0-.4 0-.7-.2-.8-.1 0-.2.2-.2.6m355.4 1.9c0 .7.3 1 .5.5.2-.6.1-1.1-.2-1.1-.2 0-.3.2-.3.6m-355 .7c0 .3 0 .5.2.5.1 0 .2-.2.2-.5s0-.5-.2-.5c-.1 0-.2.2-.2.5m354.7 1.2v.9c0 .7 0 .7.2.3.5-.6.3-1.7-.2-1.2M26.6 101c0 .3 0 .5.2.6.1 0 .2-.1.2-.5 0-.3 0-.6-.2-.6-.1 0-.2.2-.2.5m353.8 1.8c0 .4 0 .7.2.7l.2-.6c0-.3 0-.6-.2-.7-.1 0-.2.2-.2.6m-353.4.7c0 .7.3 1 .5.5s.1-.9-.2-1c-.2 0-.3 0-.3.5m353 1.7c0 .3 0 .5.2.5.1 0 .2-.2.2-.5s0-.5-.2-.5c-.1 0-.2.2-.2.5m-352.5.7c.2.8.5 1 .5.2 0-.5 0-.7-.3-.7s-.3 0-.2.5m352.1 1.5c0 .3 0 .5.2.5.1 0 .2-.2.2-.5s0-.5-.2-.5c-.1 0-.2.2-.2.5m-351.6.9c0 .3 0 .6.2.6l.2-.6c0-.3 0-.6-.2-.6l-.2.6m351.3 1c-.4 0-.4.8 0 .8.2 0 .3-.2.3-.5v-.5l-.4.1m-350.8 1.4c0 .3 0 .5.2.6.1 0 .2-.1.2-.5 0-.3 0-.6-.2-.6-.1 0-.2.2-.2.5m350.2 1.4c0 .9.3.7.5-.2 0-.4 0-.5-.2-.5s-.3.2-.3.7m-349.8.7c0 .2 0 .4.2.5.1 0 .2-.1.2-.4 0-.3 0-.5-.2-.5l-.2.4m349.4 1.3c0 .3 0 .5.2.5.1 0 .2-.2.2-.5s0-.5-.2-.5c-.1 0-.2.2-.2.5m-349 .6c0 .1 0 .4.2.6 0 .2.2.3.2.2l.1-.5c0-.5-.3-.7-.4-.3m348.6 1c-.2.2-.1 1.1.1 1.1l.2-.6c0-.6 0-.7-.3-.5m-348.2 1.2c0 .2 0 .5.2.7.3.3.3.2.3-.4 0-.6-.3-.8-.5-.3m347.7 1.5c0 .5 0 .6.2.4.3-.4.3-1 0-1-.1 0-.2.3-.2.7m-347.2.7c0 .2 0 .4.2.5.1 0 .2-.1.2-.4 0-.3 0-.5-.2-.5l-.2.4m346.7.9v.5c.2.2.3.2.4 0v-.6c-.2-.2-.3-.2-.4 0m-346.3 1c0 .4 0 .6.2.6l.2-.4c0-.2 0-.4-.2-.5-.1 0-.2.1-.2.4m346 .7c-.3.3-.3 1.2 0 1.2l.2-.1.1-1.3-.3.2m-345.5 1v.8c.2.3.2.3.2 0 .2-.6 0-1.2-.2-.8m344.9 1.5c0 .3 0 .5.2.5.1 0 .2-.2.2-.5s0-.5-.2-.5c-.1 0-.2.2-.2.5m-344.6.7c0 .7.3.8.5.2 0-.2 0-.5-.2-.6-.3-.2-.3-.1-.3.4m344.2 1.2c0 .4 0 .6.2.5l.2-.6c0-.3 0-.5-.2-.5l-.2.6m-343.7.6c-.1.4 0 1 .3 1s.3-1.1 0-1.3c0 0-.2 0-.3.3m343.3 1.3c0 .3 0 .5.2.5.1 0 .2-.2.2-.5s0-.5-.2-.5c-.1 0-.2.2-.2.5m-342.8 1c0 .3 0 .5.2.5.1 0 .2-.2.2-.5s0-.5-.2-.5c-.1 0-.2.2-.2.5m342.3.7c-.2.3 0 .6.3.5.3-.2.3-.7 0-.7 0 0-.2 0-.3.2m-341.9 1c0 .2 0 .4.2.4l.2-.4c0-.2 0-.4-.2-.4l-.2.4m341.6.5c-.3.2-.3.9 0 .9.2 0 .5-.5.4-.8 0 0-.2-.1-.4 0m-341.2 1.2c0 .2 0 .4.2.4l.2-.4c0-.2 0-.4-.2-.4l-.2.4m340.7.7v.7c.2.3.2.3.2 0 .2-.6 0-1.2-.2-.8m-340.3 1c0 .4 0 .6.2.7.1 0 .2-.1.2-.5 0-.3 0-.6-.2-.6-.1 0-.2.2-.2.5m339.8 1.3c0 .4 0 .6.2.5l.2-.6c0-.3 0-.5-.2-.5l-.2.6m-339.3.5c0 .2.1.4.3.4.3.2.3-.6 0-.8-.3 0-.3 0-.3.4m338.9 1c0 .2 0 .4.2.4l.2-.4c0-.2 0-.4-.2-.4l-.2.4m-338.3.3c-.2.2-.1.9.1.9.1 0 .2-.2.2-.5 0-.5 0-.6-.3-.4m337.8 1.2c-.1.2 0 .5.3.5.1 0 .2-.1.2-.3 0-.3-.2-.4-.5-.2m-337.5 1c0 .3 0 .5.2.5.1 0 .2-.2.2-.5s0-.5-.2-.5c-.1 0-.2.2-.2.5m337 .9c0 .3.1.4.3.3l.2-.3c0-.1-.1-.3-.3-.3-.1-.1-.2 0-.2.3m-336.6.8c0 .2 0 .4.2.4l.2-.4c0-.2 0-.4-.2-.4l-.2.4m336.3.5c-.2.2-.1.9.1.9.1 0 .2-.2.2-.5 0-.5 0-.6-.3-.4M35.8 143c0 .3 0 .5.2.5l.2-.4c0-.2 0-.4-.2-.5-.1 0-.2.1-.2.4m335.4 1c0 .3 0 .5.2.4l.2-.5c0-.2 0-.4-.2-.4-.1 0-.2.2-.2.5m-334.9.6c0 .7 0 .7.3.7s.2-1 0-1c-.3-.1-.3 0-.3.3m334.5 1c0 .3 0 .5.2.5.1 0 .2-.2.2-.5s0-.5-.2-.5c-.1 0-.2.2-.2.5m-334 .7c0 .2 0 .4.2.4l.2-.4c0-.2 0-.4-.2-.4l-.2.4m333.7.6c-.2.2-.2.5-.1.7.1.4.2.3.3-.2.2-.6 0-.8-.2-.5m-333.3 1c0 .2 0 .4.2.4l.2-.4c0-.2 0-.4-.2-.4l-.2.4m332.6 1c0 .5.5.5.6-.2 0-.3 0-.4-.3-.4-.2 0-.3.2-.3.5m-332 .4c-.2.4-.2.9 0 .9.1 0 .2-.2.2-.5 0-.4-.1-.7-.2-.4m331.6 1.4c0 .3 0 .5.2.4l.2-.5c0-.2 0-.4-.2-.4-.1 0-.2.2-.2.5m-331.4.3c0 .5.4 1 .4.5 0-.3 0-.5-.2-.6l-.2.1m331 1.2c0 .2 0 .4.2.3l.2-.4c0-.2 0-.3-.2-.3l-.2.4m-330.5.6l.2.5c.2 0 .3 0 .3-.4 0-.3-.1-.5-.3-.5l-.2.4m330.1.9c0 .3 0 .5.2.5.1 0 .2-.2.2-.5s0-.5-.2-.5c-.1 0-.2.2-.2.5m-329.6.8c0 .3 0 .5.2.5.1 0 .2-.2.2-.5s0-.5-.2-.5c-.1 0-.2.2-.2.5m329.1.5c-.1.2.1.8.3.7.3-.2.3-.9 0-.9 0 0-.2 0-.3.2m-328.6.5c-.2.2-.1.9.1.9.1 0 .2-.2.2-.5 0-.5 0-.6-.3-.4m328.1 1.3l.2.4c.4-.2.4-.8 0-.8l-.2.4m-327.8.7c0 .3 0 .5.2.5l.2-.4c0-.2 0-.4-.2-.5-.1 0-.2.1-.2.4m327.4 1c0 .3 0 .5.2.4l.2-.5c0-.2 0-.4-.2-.4-.1 0-.2.2-.2.5m-327 .4c.2.5.4.6.4.1 0-.2 0-.4-.2-.4l-.1.3m326.5.9c0 .2 0 .4.2.4l.2-.4c0-.2 0-.4-.2-.4l-.2.4m-326.1.5c-.1.2 0 .5.2.7.3.3.3.2.3-.4 0-.6-.3-.8-.5-.3m325.7 1c0 .2 0 .3.2.3.1 0 .2-.1.2-.3 0-.2 0-.3-.2-.3-.1 0-.2.1-.2.3m-325.2.7c0 .2 0 .4.2.5.1 0 .2-.1.2-.4 0-.3 0-.5-.2-.5l-.2.4m324.8.8c0 .2 0 .4.2.4l.2-.4c0-.2 0-.4-.2-.4l-.2.4m-324.4.6c0 .2 0 .4.2.4l.2-.4c0-.2 0-.4-.2-.4l-.2.4m323.8 1c0 .2.1.4.3.4.3-.2.3-1 0-1-.2 0-.3.3-.3.6m-323.4.6c0 .2 0 .4.2.5.1 0 .2-.1.2-.4 0-.3 0-.5-.2-.5l-.2.4m323 .8c0 .2 0 .4.2.3l.2-.4c0-.2 0-.3-.2-.3l-.2.4m-322.6.6c0 .2 0 .4.2.5.1 0 .2-.1.2-.4 0-.3 0-.5-.2-.5l-.2.4m322.2 1c0 .4 0 .4.2.2.3-.4.3-.8 0-.8-.1 0-.2.2-.2.6m-321.7.4c0 .2 0 .4.2.5.2 0 .3 0 .3-.3 0-.5-.5-.7-.5-.2m321.3 1c0 .2 0 .4.2.3l.2-.5c0-.2 0-.4-.2-.4-.1 0-.2.2-.2.5m-320.8.5c0 .2 0 .4.2.4l.2-.4c0-.2 0-.4-.2-.4l-.2.4m320.4.8c0 .4 0 .4.2.2.3-.4.3-.6 0-.6l-.2.4m-320 .8l.2.4.2-.4c0-.2 0-.4-.2-.4 0 0-.2.2-.1.4m319.5.1l-.2.7c0 .4 0 .5.3.2.4-.4.3-1 0-.9M44.1 172c0 .2 0 .4.2.3l.2-.4c0-.2 0-.3-.2-.3l-.2.4m318.7.3c-.2.2-.1.9.1.9.1 0 .2-.2.2-.5 0-.5 0-.6-.3-.4m-318.3.9c0 .2 0 .4.2.5.1 0 .2-.1.2-.4 0-.3 0-.5-.2-.5l-.2.4m317.8.9c0 .3 0 .5.2.5.1 0 .2-.2.2-.5s0-.5-.2-.5c-.1 0-.2.2-.2.5m-317.4.5c0 .2.1.4.3.4.2 0 .3-.1.3-.3-.1-.5-.6-.6-.6-.1m317 .8c0 .2 0 .4.2.4l.2-.4c0-.2 0-.4-.2-.4l-.2.4m-316.4.5c0 .3.1.5.2.5.3 0 .2-.5 0-.8-.3-.2-.3-.1-.2.3m316 .9c0 .2 0 .4.2.4.1 0 .2-.1.2-.3 0-.1 0-.3-.2-.4-.1 0-.2 0-.2.3m-315.6.6c0 .2 0 .4.2.4l.2-.4c0-.2 0-.4-.2-.4l-.2.4m315 .8c0 .5.5.4.6 0 0-.3-.1-.4-.3-.4-.2 0-.3.2-.3.4m-.4 1.2c0 .2 0 .4.2.5.1 0 .2-.1.2-.4 0-.3 0-.5-.2-.5l-.2.4m-313.8.4c0 .5.4 1 .4.5 0-.3 0-.5-.2-.6l-.2.1m313.4 1c0 .2 0 .4.2.4l.2-.4c0-.2 0-.4-.2-.4l-.2.4m-313 .4l.3.6c.3.3.3.3.3-.1 0-.5-.3-.8-.5-.5m312.5 1c0 .2 0 .4.2.4l.2-.4c0-.2 0-.4-.2-.4l-.2.4m-312 .5c0 .1 0 .3.2.4.1 0 .2 0 .2-.3 0-.2 0-.4-.2-.4-.1 0-.2.1-.2.3m.4 1.3c0 .2 0 .4.2.4l.2-.4c0-.2 0-.4-.2-.4l-.2.4m310.7.7c-.2.4 0 .7.3.4v-.5c-.2-.2-.2-.2-.3 0m-310.3.7c0 .1 0 .3.2.4.1 0 .2 0 .2-.3 0-.2 0-.4-.2-.4-.1 0-.2.1-.2.3m309.8 1c0 .1 0 .3.2.2l.2-.4c0-.2 0-.3-.2-.3l-.2.4m-309.4.4c0 .4 0 .4.2.2.2-.1.2-.3 0-.4-.1-.2-.2-.2-.2.2m309 .8c0 .2 0 .4.2.4.1 0 .2-.1.2-.3 0-.1 0-.3-.2-.4-.1 0-.2 0-.2.3m-308.5.5c0 .2.2.3.3.3.1 0 .2-.1.2-.3 0-.2-.1-.3-.3-.3-.2 0-.2.1-.2.3m308.2.4c-.2.2-.1.9.1.9.1 0 .2-.2.2-.5 0-.5 0-.6-.3-.4m-307.8 1c0 .2.2.3.3.3.1 0 .2-.1.2-.3 0-.2-.1-.3-.3-.3-.2 0-.2.1-.2.3m307.3.7c0 .2 0 .4.2.3l.2-.4c0-.2 0-.3-.2-.3l-.2.4m-306.7.3v.4c.2.2.3 0 .2-.4 0-.4 0-.4-.2 0m306.1 1c0 .3 0 .5.3.4.2 0 .3-.2.3-.3l-.3-.4c-.3-.2-.3-.2-.3.3m-305.8.5c0 .2 0 .4.2.4l.2-.4c0-.2 0-.4-.2-.4l-.2.4m305.4.8c0 .2 0 .4.2.4l.2-.4c0-.2 0-.4-.2-.4l-.2.4m-305 .4c0 .2 0 .4.2.5.1 0 .2-.1.2-.4 0-.3 0-.5-.2-.5l-.2.4m304.6 1c0 .2 0 .4.2.3l.2-.5c0-.2 0-.4-.2-.4-.1 0-.2.2-.2.5m-304.2 0c0 .4.2.9.4.9.3 0 .2-.8-.1-.9h-.3m.4 1.3c0 .3.2.8.4.8.3 0 .2-.8-.1-.9H52m303.1.8l-.1.5c0 .2 0 .2.2 0l.2-.4c0-.1-.2-.2-.3 0m-302.5.7c0 .2 0 .3.2.3.1 0 .2-.1.2-.3 0-.2 0-.3-.2-.3-.1 0-.2.1-.2.3m301.8 1l.3.1c.1 0 .2 0 .3-.2 0-.1-.1-.2-.3-.2-.2 0-.3.1-.3.2m-301.3.3v.4c.2.2.3 0 .2-.4 0-.4 0-.4-.2 0m301.1.4c-.2.1-.3.9 0 .9 0 0 .2-.2.2-.5l.1-.5-.3.1m-300.7.8v.4c.2.2.3 0 .2-.4 0-.4 0-.4-.2 0m300.1 1c0 .3 0 .5.2.4l.2-.5c0-.2 0-.4-.2-.4-.1 0-.2.2-.2.5m-299.7.2l.1.5c0 .1 0 .2.2.1.3-.2.2-.9-.1-.9-.2 0-.3.1-.2.3m299.3.8c0 .2 0 .3.2.3.1 0 .2-.1.2-.3 0-.2 0-.3-.2-.3-.1 0-.2.1-.2.3m-298.9.5c.2.6.5.7.5.1 0-.3-.1-.5-.3-.5-.2 0-.2.1-.2.4m298.5.8c0 .2 0 .4.2.4.1 0 .2-.1.2-.3 0-.1 0-.3-.2-.4-.1 0-.2 0-.2.3m-298 .4c0 .2 0 .4.2.4.1 0 .2-.1.2-.3 0-.1 0-.3-.2-.4-.1 0-.2 0-.2.3m297.4.8l.2.4c.4-.2.4-.8 0-.8l-.2.4m-297 .4c0 .2 0 .4.2.5.1 0 .2-.1.2-.4 0-.3 0-.5-.2-.5l-.2.4m296.6 1c0 .5.3.4.5-.2 0-.3 0-.4-.2-.4s-.3.2-.3.5m-296.2.2c0 .2 0 .3.2.3.1 0 .2-.1.2-.3 0-.2 0-.3-.2-.3-.1 0-.2.1-.2.3m.4 1.2c.1.4.5.4.6.1l-.3-.3c-.2 0-.3 0-.3.2m295 .9c0 .2 0 .4.2.4l.2-.4c0-.2 0-.4-.2-.4l-.2.4m-294.6 0c0 .3.2.8.4.8.3 0 .2-.8-.1-.9h-.3m294.2 1.3c0 .2 0 .4.2.3l.2-.4c0-.2 0-.3-.2-.3l-.2.4m-293.6.4c0 .2 0 .4.2.4l.2-.4c0-.2 0-.4-.2-.4l-.2.4m293 .7c0 .2.1.3.3.3.2 0 .3-.1.3-.3 0-.2-.1-.3-.3-.3-.2 0-.3.1-.3.3m-292.6.4c0 .2 0 .3.2.3.1 0 .2-.1.2-.3 0-.2 0-.3-.2-.3-.1 0-.2.1-.2.3m292.2.8c0 .2 0 .3.2.3l.3-.3c0-.2 0-.3-.2-.3s-.3.1-.3.3m-291.7.1v.5c.3.3.3.3.3-.2s0-.6-.3-.3m291.5.7l-.2.6c0 .3 0 .3.2.2l.2-.6c0-.2-.2-.3-.3-.2m-291.1.6c0 .1 0 .3.2.4.2.1.4-.4.3-.6-.3-.2-.5-.1-.5.2m290.6 1c0 .1 0 .3.2.2l.2-.4c0-.2 0-.3-.2-.3l-.2.4m-290.1.3l.1.4.2.1.2-.4c0-.2-.1-.4-.3-.4-.2 0-.3.1-.2.3m289.7.9c0 .2 0 .4.2.4l.2-.4c0-.2 0-.4-.2-.4l-.2.4m-289.2.4c0 .2 0 .4.2.4l.2-.4c0-.2 0-.4-.2-.4l-.2.4m288.6.7c0 .2 0 .3.2.3l.3-.3c0-.2 0-.3-.2-.3s-.3.1-.3.3m-.4 1.2c0 .2 0 .3.2.3l.3-.3c0-.2 0-.3-.2-.3s-.3.1-.3.3m-287.4.3c0 .2 0 .4.2.4l.2-.4c0-.2 0-.4-.2-.4l-.2.4m287 .8c0 .2 0 .4.2.4l.2-.4c0-.2 0-.4-.2-.4l-.2.4m-286.6.3c0 .2.1.3.2.3.4-.2.5-.6.1-.6-.2 0-.3.1-.3.3m286.2.8c0 .2 0 .3.2.3.1 0 .2-.1.2-.3 0-.2 0-.3-.2-.3-.1 0-.2.1-.2.3M61 219c0 .2 0 .4.2.4l.2-.4c0-.2 0-.4-.2-.4l-.2.4m285.2.8c0 .2 0 .4.2.4l.2-.4c0-.2 0-.4-.2-.4l-.2.4m-284.8.3c0 .1 0 .3.2.4.1 0 .2 0 .2-.3 0-.2 0-.4-.2-.4-.1 0-.2.1-.2.3m284.2.8c0 .2.1.3.2.3.4-.2.5-.6.1-.6-.2 0-.3.1-.3.3m-283.8.4c0 .2 0 .3.2.3.1 0 .2-.1.2-.3 0-.2 0-.3-.2-.3-.1 0-.2.1-.2.3m283.4.8c0 .6.3.5.5-.1 0-.3 0-.4-.2-.4s-.3.2-.3.5m-283 .2c0 .1 0 .3.2.4.1 0 .2 0 .2-.3 0-.2 0-.4-.2-.4-.1 0-.2.1-.2.3m282.6.8c0 .2 0 .3.2.3.1 0 .2-.1.2-.3 0-.2 0-.3-.2-.3-.1 0-.2.1-.2.3m-282.2.3c0 .2.1.4.3.4.2 0 .3 0 .3-.2l-.3-.4c-.3-.2-.3-.2-.3.2m281.8.9c0 .3 0 .5.2.4l.2-.4c0-.2 0-.3-.2-.4-.1 0-.2.1-.2.4m-281.2.3c0 .2 0 .4.2.3l.2-.4c0-.2 0-.3-.2-.3l-.2.4m280.8.7c0 .2 0 .3.2.3.1 0 .2-.1.2-.3 0-.2 0-.3-.2-.3-.1 0-.2.1-.2.3m-.5.8c-.2.3-.1.7.2.7l.2-.4c0-.4-.1-.5-.4-.3m-279.5.6c0 .2 0 .3.2.3.1 0 .2-.1.2-.3 0-.2 0-.3-.2-.3-.1 0-.2.1-.2.3m279.2.7c-.2.1-.2.2-.1.3h.3c.3-.4.2-.5-.2-.3m-278.8.4c0 .2 0 .4.2.4.1 0 .2-.1.2-.3 0-.1 0-.3-.2-.4-.1 0-.2 0-.2.3m278.2 1c0 .2 0 .4.2.3l.2-.5c0-.2 0-.4-.2-.4-.1 0-.2.2-.2.5m-277.8.1l.3.2c.1 0 .2 0 .3-.2 0-.1-.1-.2-.3-.2-.2 0-.3.1-.3.2m277.4.9c0 .2 0 .3.2.3.1 0 .2-.1.2-.3 0-.2 0-.3-.2-.3-.1 0-.2.1-.2.3m-276.9.3l.3.4.2-.4c0-.2-.1-.4-.3-.4-.2 0-.2.1-.2.4m276.5.8c0 .2 0 .4.2.4l.2-.4c0-.2 0-.4-.2-.4l-.2.4m-276 .3c0 .2 0 .3.2.3.1 0 .2-.1.2-.3 0-.2 0-.3-.2-.3-.1 0-.2.1-.2.3m275.5.7l.1.3c.3.2.5 0 .3-.3-.2-.2-.3-.2-.4 0m-275.1.3c0 .1 0 .3.2.4.1 0 .2 0 .2-.3 0-.2 0-.4-.2-.4-.1 0-.2.1-.2.3m274.9.4c-.4.2-.4.7 0 .7.1 0 .4-.6.3-.7h-.3m-274.5.6c0 .1 0 .3.2.4.1 0 .2 0 .2-.3 0-.2 0-.4-.2-.4-.1 0-.2.1-.2.3m273.8.9c0 .4 0 .4.2.2.2-.1.2-.3 0-.4-.1-.2-.2-.2-.2.2m-273.4.1c0 .2.1.3.2.3l.2-.3c0-.1 0-.2-.2-.3-.1 0-.2.1-.2.3m.4.9l.3.5c.3.4.3.4.3-.2 0-.3-.1-.5-.3-.5-.2 0-.3 0-.3.2m272.2 1.1c0 .2 0 .3.2.3.1 0 .2-.1.2-.3 0-.2 0-.3-.2-.3-.1 0-.2.1-.2.3m-.5 1v.2c.1.2.5 0 .5-.3s-.3-.3-.5 0m-270.7.4c0 .2 0 .4.2.4l.2-.4c0-.2 0-.4-.2-.4l-.2.4m270.2.7c0 .1 0 .3.2.4.1 0 .2 0 .2-.3 0-.2 0-.4-.2-.4-.1 0-.2.1-.2.3m-269.8.2c0 .1 0 .3.2.4.1 0 .2 0 .2-.2 0-.1 0-.3-.2-.4-.1 0-.2 0-.2.2m269.4 1c0 .2 0 .3.2.3.1 0 .2-.1.2-.3 0-.2 0-.3-.2-.3-.1 0-.2.1-.2.3m-268.4 1c-.2.3 0 .7.2.7.1 0 .2-.2.2-.5 0-.5-.3-.7-.4-.3m268 .1c0 .2 0 .3.2.3.1 0 .2-.1.2-.3 0-.2 0-.3-.2-.3-.1 0-.2.1-.2.3m-.4 1.1c0 .2 0 .4.2.3l.2-.4c0-.2 0-.3-.2-.3l-.2.4m-267.2.1c0 .2 0 .3.2.3.1 0 .2-.1.2-.3 0-.2 0-.3-.2-.3-.1 0-.2.1-.2.3m266.7.7v.3c.1.2.5 0 .5-.3s-.3-.3-.5 0m-266.3.3c0 .2 0 .3.2.3.1 0 .2-.1.2-.3 0-.2 0-.3-.2-.3-.1 0-.2.1-.2.3m265.8.8c0 .2 0 .3.2.3.1 0 .2-.1.2-.3 0-.2 0-.3-.2-.3-.1 0-.2.1-.2.3m-265.4.2c0 .1 0 .3.2.4.1 0 .2 0 .2-.3 0-.2 0-.4-.2-.4-.1 0-.2.1-.2.3m265 .9c0 .2 0 .4.2.4l.2-.4c0-.2 0-.4-.2-.4l-.2.4m-264.6 0c0 .5.3.7.5.3 0-.1 0-.3-.2-.4-.2 0-.3 0-.3.2m.4 1c0 .2.1.3.3.3.2 0 .3-.1.3-.3 0-.2-.1-.3-.3-.3-.2 0-.3.1-.3.3m263.5.6l-.1.5c0 .2 0 .2.2 0l.2-.4c0-.1-.2-.2-.3 0m-262.9.4c0 .2 0 .4.2.4l.2-.4c0-.2 0-.4-.2-.4l-.2.4m262.3.5c-.1.2.1.7.3.6l.2-.4c0-.3-.2-.4-.5-.2m-261.9.5c0 .2 0 .4.2.4l.2-.4c0-.2 0-.4-.2-.4l-.2.4m261.6.5c-.2.1-.3.7 0 .7.1 0 .5-.6.4-.7h-.4m-261.2.4c0 .1 0 .3.2.4.1 0 .2 0 .2-.2 0-.1 0-.3-.2-.4-.1 0-.2 0-.2.2m1 1.8c-.2.2 0 .7.2.7l.2-.4c0-.4-.2-.5-.5-.3m258.9 1.3c0 .4 0 .4.2.2.2-.1.2-.3 0-.4-.1-.2-.2-.2-.2.2m-.4.6c-.2.6-.1.8.1.7.3-.2.4-.4.1-.6-.1 0-.2-.1-.2 0m-.6 1.1l.3.2c.1 0 .2 0 .3-.2 0-.1-.1-.2-.3-.2-.2 0-.3.1-.3.2m-256 1c-.2.1-.1.4.1.6l.4.5c-.2.2 0 .5.1.5.3 0 .2-.7 0-.9-.2 0-.4-.3-.4-.5 0-.4-.1-.4-.3-.2m255.3 1c0 .2 0 .4.2.4l.2-.4c0-.2 0-.4-.2-.4l-.2.4m-254.4 1.1c0 .2 0 .3.2.3.1 0 .2-.1.2-.3 0-.2 0-.3-.2-.3-.1 0-.2.1-.2.3m254 0c0 .2 0 .3.2.3.1 0 .2-.1.2-.3 0-.2 0-.3-.2-.3-.1 0-.2.1-.2.3m-1 1.8c0 .2.1.3.2.3l.2-.3c0-.1 0-.2-.2-.3-.1 0-.2.1-.2.3m-251.7.9c0 .1 0 .4.2.6l.2.5c0 .1 0 .3.2.4.2 0 .3 0 .3-.3 0-.2-.1-.4-.3-.5-.1 0-.3-.3-.3-.5 0-.4-.1-.4-.3-.2m251.3 0c0 .5.3.6.3.2l-.1-.4c-.1 0-.2.1-.2.3m-.4 1c0 .2 0 .3.2.3.1 0 .2-.1.2-.3 0-.2 0-.3-.2-.3-.1 0-.2.1-.2.3m-250 1c0 .2 0 .3.2.3.1 0 .2-.1.2-.3 0-.2 0-.3-.2-.3-.1 0-.2.1-.2.3m249.6 0c0 .2 0 .3.2.3.1 0 .2-.1.2-.3 0-.2 0-.3-.2-.3-.1 0-.2.1-.2.3m-1 1.8c0 .2.1.3.3.3.2 0 .3-.1.3-.3 0-.2-.1-.3-.3-.3-.2 0-.3.1-.3.3m-247.4.8c0 .5.4.8.4.4 0-.3 0-.5-.2-.5l-.2.1m247 .3c0 .2.2.3.2.3.3-.2.2-.7 0-.7 0 0-.2.2-.1.4m-246.6.8s0 .3.2.4c.2.2.3.2.3 0 0-.4-.3-.7-.5-.4m246.1.2c0 .2 0 .4.2.3l.2-.4c0-.2 0-.3-.2-.3l-.2.4m-245.6.9c0 .2 0 .3.2.3.1 0 .2-.1.2-.3 0-.2 0-.3-.2-.3-.1 0-.2.1-.2.3m.4 1c0 .2 0 .3.2.3.1 0 .2-.1.2-.3 0-.2 0-.3-.2-.3-.1 0-.2.1-.2.3m.4.8c0 .2 0 .3.2.3.1 0 .2-.1.2-.3 0-.2 0-.3-.2-.3-.1 0-.2.1-.2.3m243.4 0c0 .2.1.3.3.3.2 0 .3-.1.3-.2-.2-.4-.6-.5-.6-.1m-.4 1c0 .2 0 .3.2.3.1 0 .2-.1.2-.3 0-.2 0-.3-.2-.3-.1 0-.2.1-.2.3m-242.1.8c0 .2 0 .3.2.4.2 0 .3 0 .3-.2l-.3-.4c-.1 0-.2 0-.2.2m.5 1.1c0 .2 0 .4.2.4l.2-.4c0-.2 0-.4-.2-.4l-.2.4m240.8 0c0 .2 0 .4.2.3l.2-.4c0-.2 0-.3-.2-.3l-.2.4m-240.4.9c0 .1 0 .3.2.4l.2.5c0 .2 0 .4.2.4.1 0 .2-.1.2-.3 0-.1 0-.3-.2-.4l-.2-.5c0-.2 0-.4-.2-.4-.1 0-.2.1-.2.3m240 .1c0 .4 0 .4.2.2.2-.1.2-.3 0-.4-.1-.2-.2-.2-.2.2m-.6.9c0 .2.1.3.2.3l.2-.3c0-.1 0-.2-.2-.3-.1 0-.2.1-.2.3m-238.6.8c0 .1 0 .3.2.4.1 0 .2 0 .2-.2 0-.1 0-.3-.2-.4-.1 0-.2 0-.2.2m.5.9s0 .3.2.4c.3.2.3.2.3-.2s-.3-.5-.5-.2m237.3.1c0 .2 0 .3.2.3.1 0 .2-.1.2-.3 0-.2 0-.3-.2-.3-.1 0-.2.1-.2.3M86 276.3c0 .2 0 .3.2.3.1 0 .2-.1.2-.3 0-.2 0-.3-.2-.3-.1 0-.2.1-.2.3m235.5-.2c-.1.2 0 .5.3.5.1 0 .2-.1.2-.3 0-.3-.2-.4-.5-.2m-.9 2.1c0 .4 0 .4.2.2.3-.4.3-.6 0-.6l-.2.4m-.3 1s0 .3-.2.3-.3.3-.3.5.1.2.4-.2c.4-.6.5-1 .2-1-.1 0-.2.1-.1.3m-1.4 2.4c-.2.2-.1.7 0 .7.3 0 .5-.6.3-.7h-.3m-229.9 1c0 .1 0 .3.2.4.1 0 .2 0 .2-.3 0-.2 0-.4-.2-.4-.1 0-.2.1-.2.3m229.4.3c0 .2 0 .4.2.4.1 0 .2-.1.2-.3 0-.1 0-.3-.2-.4-.1 0-.2 0-.2.3m-229 .6c0 .2.4.7.5.6.2-.2-.1-.8-.3-.8-.1 0-.2 0-.2.2m.5.8s0 .3.2.4c.3.2.3.2.3-.2s-.3-.5-.5-.2m227.2 1.1c-.1.2 0 .5.3.5.1 0 .2-.1.2-.3 0-.3-.2-.4-.5-.2m-.4 1c-.2.4 0 .6.3.2.1-.2.2-.3 0-.4-.1 0-.3 0-.3.2m-.9 1.8c0 .2 0 .3.2.3.1 0 .2-.1.2-.3 0-.2 0-.3-.2-.3-.1 0-.2.1-.2.3m-223.7.8c0 .2.2.3.3.3.1 0 .2-.1.2-.3 0-.2-.1-.3-.3-.3-.2 0-.2.1-.2.3m.6.8v.4c.2.2.3 0 .2-.4 0-.4 0-.4-.2 0m.4.8v.4c.2.2.3 0 .2-.4 0-.4 0-.4-.2 0m221.5 0c-.3.2-.3.5.1.5.2 0 .3-.1.3-.3v-.3l-.4.1m-221.2 1c0 .2 0 .3.2.3.1 0 .2-.1.2-.3 0-.2 0-.3-.2-.3-.1 0-.2.1-.2.3m220.6.2c0 .2 0 .3.2.3.1 0 .2-.1.2-.3 0-.2 0-.3-.2-.3-.1 0-.2.1-.2.3m-219.9 1c.2.6.7 1 .7.7 0-.3-.5-1-.7-1v.4m.7 1.1c0 .5 1.1 2.3 1.2 2 0-.2 0-.4-.2-.5l-.2-.4c0-.2 0-.4-.2-.4l-.2-.4c0-.4-.4-.6-.4-.3m218 .4c0 .2 0 .3.2.3.1 0 .2-.1.2-.3 0-.2 0-.3-.2-.3-.1 0-.2.1-.2.3m-.5.6c-.2.3-.1.5.2.5.2 0 .3-.1.3-.3 0-.3-.2-.4-.5-.2m-.3.9l-.2.4c.1.2.2.2.4-.2s.2-.5-.2-.2m-216 .8l.3.6c.2.5.7.7.7.3l-.3-.4a.3.3 0 0 1-.2-.4c.1-.2 0-.3-.2-.3s-.3.1-.2.3m215.3.2c0 .2 0 .3.2.3.1 0 .2-.1.2-.3 0-.2 0-.3-.2-.3-.1 0-.2.1-.2.3M97 298.3c0 .2 0 .3.2.3.1 0 .2-.1.2-.3 0-.2 0-.3-.2-.3-.1 0-.2.1-.2.3m213 1.3l.2.2c.4-.2.5-.5.1-.5-.2 0-.3 0-.3.3m-.4.7c0 .4.3.5.4.1.1-.2 0-.3-.1-.3-.2 0-.3 0-.3.2m-211.4.5l.3.2c.2 0 .1-.3-.1-.4-.1 0-.2 0-.2.2m211 .4c0 .2 0 .4.2.4l.2-.4c0-.2 0-.4-.2-.4l-.2.4m-209.6 2.3c0 .2 0 .3.2.3.1 0 .2-.1.2-.3 0-.2 0-.3-.2-.3-.1 0-.2.1-.2.3m208.2.3c0 .2-.1.4-.3.5 0 0-.1.1 0 .2 0 .1.3 0 .5-.3.5-.6.5-.8.1-.8-.2 0-.3.2-.3.4M100.4 305c0 .4 1 1.4 1 1 0-.1 0-.3-.2-.3l-.2-.4c0-.2-.1-.4-.3-.4l-.3.1m205.8 2c0 .2 0 .3.2.3.1 0 .2-.1.2-.3 0-.2 0-.3-.2-.3-.1 0-.2.1-.2.3m-.5.6c-.2.3-.1.5.2.5.2 0 .3-.1.3-.3 0-.3-.2-.4-.5-.2m-203.1 1.6c0 .2.1.2.3.2.2 0 .3-.2.3-.3 0-.1-.1-.2-.3-.2-.2 0-.3.1-.3.3m202.2.4c0 .2 0 .3.2.3.1 0 .2-.1.2-.3 0-.2 0-.3-.2-.3-.1 0-.2.1-.2.3m-201.6.3c-.2.1-.2.2 0 .3.3.2.5 0 .4-.3 0-.1-.2-.1-.4 0m201.2.5c0 .2 0 .3.2.3.1 0 .2-.1.2-.3 0-.2 0-.3-.2-.3-.1 0-.2.1-.2.3M104 311.9c0 .2 0 .3.2.3.1 0 .2-.1.2-.3 0-.2 0-.3-.2-.3-.1 0-.2.1-.2.3m199.5.2c0 .2.2.2.3.2.3-.2.2-.5 0-.5-.3 0-.3.1-.3.3m-199.1.6c0 .2 0 .3.2.3.1 0 .2-.1.2-.3 0-.2 0-.3-.2-.3-.1 0-.2.1-.2.3m198.2 1c0 .2 0 .3.2.3.1 0 .2-.1.2-.3 0-.2 0-.3-.2-.3-.1 0-.2.1-.2.3m-197.3.4s0 .3.2.4l.4.5c0 .2.1.2.2.1.1 0 0-.2 0-.2-.2 0-.3-.3-.3-.5 0-.4-.2-.5-.5-.3m195.9 2.2c0 .4.4.3.6 0 0-.2-.1-.3-.3-.3-.2 0-.3.1-.3.3m-.6 1c-.3.7-.3.9 0 .9.1 0 .2 0 .1-.2 0 0 0-.3.2-.5.3-.3.4-.7.2-.7l-.5.5m-193.6.3c0 .1.1.2.3.2.2 0 .3 0 .3-.2 0-.1-.1-.2-.3-.2-.2 0-.3 0-.3.2m.5.7l.1.4.2.1c.3 0 .2-.5-.1-.7-.3 0-.3 0-.2.2m.6.7c-.1.4.4 1.2.7 1l-.1-.4c-.2 0-.3-.3-.3-.5-.1-.4-.2-.4-.3 0m191 1.1c0 .1 0 .2.2.2.1 0 .2 0 .3-.2 0-.1-.1-.2-.3-.2-.2 0-.3.1-.3.2m-190.2.5c0 .2 0 .3.2.3.1 0 .2-.1.2-.3 0-.2 0-.3-.2-.3-.1 0-.2.1-.2.3m189.8.4c0 .2.1.3.2.3l.2-.3c0-.1 0-.2-.2-.3-.1 0-.2.1-.2.3m-189.4.5c0 .1.1.2.3.2.2 0 .3 0 .3-.2 0-.1-.1-.2-.3-.2-.2 0-.3 0-.3.2m189 .3c0 .2 0 .3.2.3.1 0 .2-.1.2-.3 0-.2 0-.3-.2-.3-.1 0-.2.1-.2.3m-188.6.5c.2.4.6.5.6.1 0-.2-.1-.3-.3-.3-.2 0-.3.1-.3.2m188.2.5c0 .2 0 .3-.2.3l-.2.2c0 .3.4 0 .6-.4.1-.3.1-.4 0-.4s-.2.1-.2.3m-187.6.4c0 .2 0 .3.2.3l.2.4c0 .2 0 .4.2.4.1 0 .2.1.2.3 0 .2 0 .3.2.3.1 0 .2-.1.2-.3 0-.2 0-.3-.2-.3l-.4-.7c-.3-.7-.6-1-.6-.4m186.2 1.8c0 .2 0 .3.2.3l.3-.3c0-.2 0-.3-.2-.3s-.3.1-.3.3m-185 .3c.1.2.4.3.4 0l-.2-.2c-.1 0-.2 0-.2.2m1 1.9c0 .2 0 .3.2.3l.4.6c.2.6.6.8.6.4 0-.1 0-.2-.2-.2l-.2-.4c0-.2 0-.4-.2-.4-.1 0-.2-.1-.2-.3 0-.2 0-.3-.2-.3-.1 0-.2.1-.2.3m182.8.4l-.3.4s-.1.1 0 .2l.4-.2c.3-.5.4-.7.1-.7-.1 0-.2.1-.2.3m-1 1.4c0 .2 0 .3.2.3l.3-.3c0-.2 0-.3-.2-.3s-.3.1-.3.3m-180.6.4c0 .2.1.2.3.2.2 0 .2-.2.2-.3-.2-.3-.5-.2-.5 0m180.2.5c0 .2 0 .3.2.3.1 0 .2-.1.2-.3 0-.2 0-.3-.2-.3-.1 0-.2.1-.2.3m-179.8.3c.1.3.6.5.6.2l-.3-.3-.3.1m179.4.5c0 .1 0 .3-.2.3l-.2.4c0 .2 0 .4-.2.5-.2.1-.3.5 0 .5l.4-.6c.1-.4.4-.8.5-.8.1-.1.1-.3 0-.4-.2-.2-.3-.2-.3 0M115 332c0 .2 0 .3.2.3.1 0 .2-.1.2-.3 0-.2 0-.3-.2-.3-.1 0-.2.1-.2.3m177.3.8c-.4.2-.4.5 0 .5.2 0 .3-.1.3-.3v-.3l-.4.1m-176.4.7l.3.2c.1 0 .2 0 .3-.2 0-.1-.1-.2-.3-.2-.2 0-.3.1-.3.2m175.8.5c0 .2 0 .3.2.3.1 0 .2-.1.2-.3 0-.2 0-.3-.2-.3-.1 0-.2.1-.2.3m-175.4.3c.2.4.6.5.6.1 0-.2-.1-.3-.3-.3-.2 0-.3.1-.3.2m175 .5c0 .2 0 .3.2.3.1 0 .2-.1.2-.3 0-.2 0-.3-.2-.3-.1 0-.2.1-.2.3m-174.4.4c0 .2 0 .3.2.3.1 0 .2.1.2.3 0 .2 0 .3.2.3.1 0 .2-.1.2-.3 0-.2 0-.3-.2-.3-.1 0-.2-.1-.2-.3 0-.2 0-.3-.2-.3-.1 0-.2.1-.2.3m174 .4l-.3.4c-.2 0-.3.2-.2.3.2.3.4.2.6-.1l.2-.7v-.2c-.2 0-.3.1-.3.3m-172.2 2.7c0 .1 0 .2.2.2.1 0 .2.1.2.3 0 .2 0 .3.2.3.3 0 .2-.2 0-.6-.4-.4-.6-.5-.6-.2M288 340c0 .1.1.2.3.2.2 0 .3 0 .3-.2 0-.1-.1-.2-.3-.2-.2 0-.3 0-.3.2m-167.6 1.6l.5.4c.4 0 .4-.2 0-.5-.6-.4-.7-.4-.5.1m166.8.1c0 .2 0 .3-.2.3l-.2.4c0 .2 0 .2.4-.2.4-.6.5-.8.2-.8-.1 0-.2.1-.2.3m-165.6 1.7l.3.6c.4.3.4.3.2 0l-.1-.6c0-.1 0-.2-.2-.2l-.2.2m164.3.5c-.1.4 0 .5.3.3.2-.1.2-.2 0-.4 0-.2-.2-.1-.3.1m-163.6 1c.2.4.5.4.5 0l-.3-.4c-.2 0-.2 0-.2.3m163 0l-.2.6v.2c.2 0 .3-.1.3-.3l.3-.4v-.3c-.2-.2-.3-.1-.4.1m-162.3 1c0 .2 0 .3.2.3.1 0 .2-.1.2-.3 0-.2 0-.3-.2-.3-.1 0-.2.1-.2.3m.4.8c0 .2 0 .3.2.3.1 0 .2.1.2.3 0 .2 0 .3.2.3.1 0 .2-.1.2-.3 0-.2 0-.3-.2-.3-.1 0-.2-.1-.2-.3 0-.2 0-.3-.2-.3-.1 0-.2.1-.2.3m.8 1.4c0 .2 0 .3.2.3.1 0 .2-.1.2-.3 0-.2 0-.3-.2-.3-.1 0-.2.1-.2.3m159.3.2c-.4.2-.4.5 0 .5.2 0 .3-.1.3-.3v-.3l-.4.1m-158.2 1.1l.1.5.4.5c0 .2.1.2.2.2 0-.1-.4-1.4-.6-1.4l-.1.2m157.6 0c0 .2-.1.4-.3.5 0 0-.1.1 0 .2l.4-.2c.3-.5.4-.7.1-.7-.1 0-.2.1-.2.3m-1.4 2.2c0 .2.1.3.2.3.4-.2.5-.6.1-.6-.2 0-.3.1-.3.3m-155 .1c0 .2 0 .4.2.4.1 0 .2.1.2.3 0 .2 0 .3.2.3.3 0 .2-.2-.2-.8-.3-.4-.4-.4-.4-.2m154.6.7l-.3.4s-.1.1 0 .2c.1.2.7-.4.7-.7 0-.1 0-.2-.2-.2-.1 0-.2.1-.2.3m-153.8.9c0 .1.1.2.3.2.2 0 .3 0 .3-.2 0-.1-.1-.2-.3-.2-.2 0-.3 0-.3.2m153 .5c0 .2 0 .3.2.3.1 0 .2-.1.2-.3 0-.2 0-.3-.2-.3-.1 0-.2.1-.2.3m-152.4.2c0 .3.6 1 .7.8.1 0 0-.2 0-.2-.2 0-.3-.3-.3-.5s0-.4-.2-.4c-.1 0-.2.1-.2.3m152 .6c0 .2 0 .3-.2.3l-.2.2c0 .2.2.1.4-.1.4-.4.5-.7.2-.7-.1 0-.2.1-.2.3m-1 1.4c0 .4.4.3.6 0 0-.2-.1-.3-.3-.3-.2 0-.3.1-.3.3m-149.7.1l.2.6c.1.4.7.7.7.4l-.5-.7c-.3-.3-.5-.5-.4-.3m149.3.7l-.3.4s-.1.1 0 .2c.1.2.7-.4.7-.7 0-.1 0-.2-.2-.2-.1 0-.2.1-.2.3m-147.9 1.5c0 .1 0 .4.3.6.5.6.5.5.1-.3-.1-.3-.3-.4-.4-.3m146.1 1.2c0 .1.1.2.3.2.2 0 .3 0 .3-.2 0-.1-.1-.2-.3-.2-.2 0-.3 0-.3.2m-145 1c0 .3.8 1 1 1 0-.2 0-.3-.2-.3a.4.4 0 0 1-.2-.4l-.3-.4h-.3m144.2.8l-.3.4s-.1.1 0 .2c.1.2.7-.4.7-.7 0-.1 0-.2-.2-.2-.1 0-.2.1-.2.3m-142.4 2.1c.3.5.4.5.4.1l-.3-.4c-.3 0-.3 0-.1.3m141 0c0 .2-.1.4-.3.5 0 0-.1.1 0 .2 0 0 .3 0 .5-.3.5-.6.5-.6.1-.6-.2 0-.3.1-.3.3m-140.6.7l.4.6c.6.6.8.2.3-.4-.4-.4-.7-.5-.7-.2m1 1.5c0 .2 0 .3.2.3.1 0 .2-.1.2-.3 0-.2 0-.3-.2-.3-.1 0-.2.1-.2.3m138.4 0c0 .2 0 .3-.2.3l-.2.2c0 .2.2.1.4-.1.4-.4.5-.7.2-.7-.1 0-.2.1-.2.3m-138 .8l.4.5c.2.1.4.1.4 0s0-.2-.2-.2c-.1 0-.2-.1-.2-.3 0-.2 0-.3-.2-.3-.1 0-.2.1-.2.3m.8 1.2c0 .3 1.3 1.9 1.4 1.7 0-.2 0-.3-.2-.4l-.2-.4c0-.2 0-.4-.2-.3-.1 0-.2 0-.2-.3 0-.2-.1-.4-.3-.4l-.3.1m134.8 1.6l-.2.5c0 .2.3 0 .5-.3.3-.5.2-.7-.3-.2m-.8 1.3c0 .1.1.2.3.2.2 0 .3 0 .3-.2 0-.1-.1-.2-.3-.2-.2 0-.3 0-.3.2m-.4.7c0 .1 0 .3-.2.3l-.2.3c0 .3 0 .3.4 0 .3-.4.4-.6.2-.8-.1-.1-.2 0-.2.2m-131.4.1c0 .1.1.2.3.2.2 0 .3 0 .3-.2 0-.1-.1-.2-.3-.2-.2 0-.3 0-.3.2m.5.7c0 .2.2.3.3.3.1 0 .2.1.2.3 0 .2 0 .3.2.3.3 0 .2-.3-.2-.8-.5-.5-.6-.5-.5-.1m130 .7c-.2.2-.3.5-.2.5.1.2.7-.5.7-.7 0-.1-.3 0-.5.2M140 373.7c.2.5.5.7.5.3 0-.2-.5-.8-.7-.8l.2.5m127.9.2c0 .2.1.2.3.2.2 0 .3-.2.3-.3 0-.1-.1-.2-.3-.2-.2 0-.3.1-.3.3m-127.3.7c-.1.2 0 .4.7 1l.2.6c0 .1 0 .2.2.2.1 0 .2-.1.2-.3 0-.2 0-.3-.2-.3-.1 0-.2-.1-.2-.3 0-.4-.7-1.2-.9-1m126.9.2l-.3.4s-.1.1 0 .2c.1.2.7-.4.7-.7 0-.1 0-.2-.2-.2-.1 0-.2.1-.2.3m-1 1.5c-.1.3-.2.5-.1.6.1 0 .7-.6.7-.9 0-.2-.3 0-.6.3m-.8 1.2l-.4.6c0 .3 1-.5 1-.8 0-.3-.1-.3-.6.2m-122.8 1c.4.5.8.7.8.4 0-.1-.1-.2-.3-.2-.2 0-.2-.1-.2-.3.1-.2 0-.3-.2-.3-.3 0-.3 0 0 .4m121.9.3c0 .2 0 .3.2.3.1 0 .2-.1.2-.3 0-.2 0-.3-.2-.3-.1 0-.2.1-.2.3m-.4.7c0 .2-.1.4-.3.5 0 0-.1.1 0 .2l.4-.2c.3-.2.3-.4.1-.6-.1-.1-.2-.1-.2.1m-120.4.8c0 .3.8 1.1.8.8 0-.2 0-.4-.2-.4-.1 0-.2-.1-.2-.3 0-.2 0-.3-.2-.3l-.2.1m119.4.8c0 .2 0 .3-.2.3-.1 0-.2 0-.2.2 0 .3.3.2.7-.3.3-.4.3-.5 0-.5-.2 0-.3.1-.3.3m-118.5.6l.3.6c.2.2.5.3.5.2 0 0 0-.3-.2-.5l-.6-.3m117.5 1.1c0 .3-.3.6-.4.6-.1 0-.2.1-.2.3 0 .5.3.3.6-.4l.4-.7c.1 0 .2 0 .2-.2 0-.4-.4-.2-.6.4m-116.6.4c0 .3.6.9.8.7 0 0 0-.2-.2-.2a.4.4 0 0 1-.2-.4c0-.2 0-.3-.2-.3l-.2.2m.8 1.3l.4.6c.3.2.4.3.4.1-.1-.5-.8-1-.8-.7m114.2.5l.3.2c.2 0 .1-.3-.1-.4-.1 0-.2 0-.2.2m-113.4.8c.1.3.6.5.6.2l-.3-.3-.3.1m113 0c0 .2-.1.4-.3.5 0 0-.1.1 0 .2.1.2.7-.4.7-.7 0-.1 0-.2-.2-.2-.1 0-.2.1-.2.3m-112.2.8c0 .3.6 1 .6.7 0-.1-.1-.4-.3-.5l-.3-.2m111.1.7c-.2.2-.2.4-.1.5 0 0 .3-.1.5-.4.4-.6.2-.6-.4-.1m-110.5.6c0 .2.7.8.9.8l.1-.2c0-.1-.1-.2-.3-.2a.3.3 0 0 1-.3-.3c0-.2 0-.3-.2-.3-.1 0-.2 0-.2.2m109.8.6c-.3.2-.4.5-.3.5 0 .1.9-.6.9-.8 0-.2-.2 0-.6.3m-108.8.7c0 .1 0 .3.2.3.1 0 .2.1.2.3 0 .2 0 .3.2.3.3 0 .2-.4-.2-.8-.3-.4-.4-.4-.4-.1m108 .6c0 .2 0 .3-.2.3l-.2.3c0 .3 0 .3.4 0 .4-.5.5-.9.2-.9-.1 0-.2.1-.2.3m-107.2.7c0 .3.6.9.8.7 0 0 0-.2-.2-.2a.4.4 0 0 1-.2-.4c0-.2 0-.3-.2-.3l-.2.2m105.8 1.2l-.2.4c-.2 0-.2.2-.2.4 0 .1.3 0 .5-.4.4-.5.4-.6.2-.7-.2 0-.3 0-.3.3m-105 .1c0 .2.7.9.8.9.3 0 .2-.5-.1-.7-.4-.3-.7-.4-.7-.2m1.2 1.7c.3.4.6.5.6.3s-.5-.7-.7-.7l.1.4m102.8 0l-.2.4c.1.2.2.2.4-.2s.2-.5-.2-.2m-102 1.3c.3.5.4.6.7.4 0-.1-.6-.9-.8-.9l.1.5m.7 1c0 .2.2.3.3.3.1 0 .2.1.2.3 0 .2 0 .3.2.3.3 0 .2-.4-.2-.8-.6-.5-.6-.5-.5-.1m99.5.2l-.2.5c0 .2.3 0 .5-.3.3-.5.2-.7-.3-.2m-98.5 1c-.1.3.4 1 .7.8l-.1-.3a1 1 0 0 1-.3-.4c-.1-.2-.2-.2-.3 0m96.8 1.4l-.3.6c0 .1 0 .2-.2.2-.1 0-.2 0-.1.2s.7-.2.7-.5l.3-.5.2-.4-.6.4m-95.9 0c0 .2.4.8.6.8.3 0 .2-.4 0-.7-.4-.3-.6-.4-.6-.2m.8 1.3c0 .3.6.9.8.7 0 0 0-.2-.2-.2a.4.4 0 0 1-.2-.4c0-.2 0-.3-.2-.3l-.2.2m93.8.7c-.4.5-.2.8.2.3l.4-.5c0-.2-.3 0-.5.2m-.9 1.3c-.3.2-.4.5-.3.5 0 0 .3 0 .5-.3.6-.5.4-.7-.2-.2m-91.7 0l.3.4c.6.5.7.4.4-.2-.3-.4-.4-.5-.7-.3m.9 1.4c0 .3.6.6.8.4l-.2-.1s-.2-.1-.2-.3c0-.2 0-.3-.2-.3-.1 0-.2.1-.2.3m89.8.1c-.1.3-.2.5-.1.6.1 0 .7-.6.7-.9 0-.2-.3 0-.6.3m-.6 1.1c0 .2-.1.3-.3.3-.2 0-.3 0-.3.2 0 .3.3.2.7-.2.3-.4.4-.6.1-.6-.1 0-.2.1-.2.3m-88.4 0c0 .2.6.7.7.6l-.2-.4c-.3-.3-.5-.4-.5-.2m1.8 2.4c0 .3 1 1.5 1 1.3.2-.1.1-.2 0-.2s-.2 0-.2-.2l-.4-.6c-.2-.3-.4-.4-.4-.3m1.6 2.3c.2.3.5.4.5.3.2-.1-.4-.7-.7-.7-.2 0 0 .2.2.4m.6 1c0 .3.6.9.7.7.1 0 0-.2 0-.2a.4.4 0 0 1-.3-.4c0-.2 0-.3-.2-.3l-.2.1m1.1 1.5c.2.5 1 1.3 1.1 1l-.2-.1-.2-.3-.4-.6-.4-.4.1.4m1.1 1.7c0 .2.6.7.7.6 0-.1 0-.3-.2-.4-.3-.3-.5-.4-.5-.2" fill="olive"/>
    <path d="M123.3 96.3v-.8.8m2.1 26.7c0 .4 0 .5.1.3v-.6.3m151.1 50.8c0 .4 0 .5.1.3v-.7.4" fill="#ff0"/>
  </g>
</svg>
