<svg width="1792" height="1792" xmlns="http://www.w3.org/2000/svg">

 <g>
  <title>background</title>
  <rect fill="none" id="canvas_background" height="402" width="582" y="-1" x="-1"/>
 </g>
 <g>
  <title>Layer 1</title>
  <path fill="#cccccc" id="svg_1" d="m1440,893q0,-161 -87,-295l-754,753q137,89 297,89q111,0 211.5,-43.5t173.5,-116.5t116,-174.5t43,-212.5zm-999,299l755,-754q-135,-91 -300,-91q-148,0 -273,73t-198,199t-73,274q0,162 89,299zm1223,-299q0,157 -61,300t-163.5,246t-245,164t-298.5,61t-298.5,-61t-245,-164t-163.5,-246t-61,-300t61,-299.5t163.5,-245.5t245,-164t298.5,-61t298.5,61t245,164t163.5,245.5t61,299.5z"/>
 </g>
</svg>