<svg width="48" height="48" xmlns="http://www.w3.org/2000/svg">
  <path fill="none" d="M-1-1h582v402H-1z"/>
  <g fill="#fff">
    <path d="M42 48H28V35h-8v13H6V27c0-.552.447-1 1-1s1 .448 1 1v19h10V33h12v13h10V28c0-.552.447-1 1-1s1 .448 1 1v20z"/>
    <path d="M47 27c-.249 0-.497-.092-.691-.277L24 5.384 1.691 26.723c-.399.381-1.032.368-1.414-.031-.382-.399-.367-1.032.031-1.414L24 2.616l23.691 22.661c.398.382.413 1.015.031 1.414-.196.205-.458.309-.722.309zm-8-12c-.553 0-1-.448-1-1V8h-6c-.553 0-1-.448-1-1s.447-1 1-1h8v8c0 .552-.447 1-1 1z"/>
  </g>
</svg>