<?xml version="1.0" encoding="UTF-8"?>
<svg width="11px" height="13px" viewBox="0 0 11 13" version="1.1" xmlns="http://www.w3.org/2000/svg" xmlns:xlink="http://www.w3.org/1999/xlink">
    <!-- Generator: Sketch 48.2 (47327) - http://www.bohemiancoding.com/sketch -->
    <title>Kraken red</title>
    <desc>Created with Sketch.</desc>
    <defs>
        <polygon id="path-1" points="10.9826276 13 0 13 0 0.0333074534 10.9826276 0.0333074534 5.47235207 0.0333187306 5.47235207 13.0000006 10.9826525 13.0000006 10.9826525 0.0333187306"></polygon>
    </defs>
    <g id="Desktop-match-Copy" stroke="none" stroke-width="1" fill="none" fill-rule="evenodd" transform="translate(-1077.000000, -875.000000)">
        <g id="Group-3" transform="translate(1033.000000, 869.000000) scale(-1, 1) translate(-1033.000000, -869.000000) translate(972.000000, 850.000000)">
            <g id="Kraken-Copy" transform="translate(11.500000, 31.500000) scale(-1, 1) translate(-11.500000, -31.500000) translate(6.000000, 25.000000)">
                <g id="Page-1">
                    <g id="Group-3" fill="#FF6262">
                        <path d="M5.71047802,1.78823075 C5.71047802,1.78823075 4.99693901,0.967090994 4.36398368,1.20658168 C3.73102835,1.44607236 3.33129398,1.1628177 3.33129398,1.1628177 C3.33129398,1.1628177 2.43182287,0.453873602 2.26527016,0.11175559 C2.09871745,-0.230402795 1.83220167,0.624972981 1.93212543,1.17238602 C1.93212543,1.17238602 1.76557272,1.68560342 1.46576212,1.78823075 C1.16595152,1.89085807 1.46576212,2.30144814 1.46576212,2.30144814 C1.46576212,2.30144814 1.69894378,2.91729286 1.13261739,2.98572453 L0.266519714,3.73843261 C0.266519714,3.73843261 -0.333140798,4.21745435 0.266519714,4.52537671 C0.866140917,4.83329907 1.09932257,6.03079286 1.09932257,6.03079286 L0.366443478,5.85973385 C0.366443478,5.85973385 0.433072424,6.78350093 0.199851459,6.95455994 C-0.0333301965,7.12561894 -0.0666250149,8.1178177 0.166556641,8.32311273 C0.399738297,8.52840776 1.53239107,9.52060652 1.53239107,9.52060652 L1.89883061,9.52060652 C1.89883061,9.52060652 3.53118082,10.3075506 4.16409684,12.5656748 C4.16409684,12.5656748 4.56387052,13.3868146 5.06352865,12.7709699 C5.56322609,12.1550848 5.71047802,12.2919885 5.71047802,12.2919885" id="Fill-1"></path>
                    </g>
                    <path d="M5.26086957,9.18851366 C5.26086957,9.18851366 4.6422837,12.3538908 3.32429761,8.84937469 C2.06459486,5.49996211 1.43478261,5.76335005 1.43478261,5.76335005 C1.43478261,5.76335005 2.69444623,6.08688263 3.125391,5.73861991 C3.55633576,5.39035719 4.08671427,5.52601279 4.08671427,5.52601279 C4.08671427,5.52601279 4.34660326,5.49207888 5.26086957,6.88248866" id="Fill-4" fill="#FFFFFF"></path>
                    <path d="M3.10083511,3 C3.10083511,3 3.29672697,3.92182171 3.82608696,4.05351608 C3.82608696,4.05351608 3.62119238,4.90949061 3.10083511,4.25105763 C2.58047785,3.59262465 3.10083511,3 3.10083511,3" id="Fill-6" fill="#FFFFFF"></path>
                    <g id="Group-12">
                        <mask id="mask-2" fill="white">
                            <use xlink:href="#path-1"></use>
                        </mask>
                        <g id="Clip-11"></g>
                        <path d="M5.47235207,1.78823075 C5.47235207,1.78823075 6.16091414,0.967090994 6.77164172,1.20658168 C7.38240724,1.44607236 7.76812793,1.1628177 7.76812793,1.1628177 C7.76812793,1.1628177 8.63606586,0.453873602 8.79677966,0.11175559 C8.95749345,-0.230402795 9.21466586,0.624972981 9.11824517,1.17238602 C9.11824517,1.17238602 9.27895897,1.68560342 9.56825897,1.78823075 C9.85755897,1.89085807 9.56825897,2.30144814 9.56825897,2.30144814 C9.56825897,2.30144814 9.34325207,2.91729286 9.88972448,2.98572453 L10.7254969,3.73843261 C10.7254969,3.73843261 11.3040969,4.21745435 10.7254969,4.52537671 C10.146859,4.83329907 9.92185207,6.03079286 9.92185207,6.03079286 L10.6290383,5.85973385 C10.6290383,5.85973385 10.5647452,6.78350093 10.78979,6.95455994 C11.0147969,7.12561894 11.0469245,8.1178177 10.8219176,8.32311273 C10.5969107,8.52840776 9.50396586,9.52060652 9.50396586,9.52060652 L9.15037276,9.52060652 C9.15037276,9.52060652 7.57528655,10.3075506 6.96452103,12.5656748 C6.96452103,12.5656748 6.57876241,13.3868146 6.09662103,12.7709699 C5.61444172,12.1550848 5.47235207,12.2919885 5.47235207,12.2919885" id="Fill-10" fill="#FF6262"></path>
                    </g>
                    <path d="M5.26086957,9.18851366 C5.26086957,9.18851366 5.87945543,12.3538908 7.19748064,8.84937469 C8.45714427,5.49996211 9.08695652,5.76335005 9.08695652,5.76335005 C9.08695652,5.76335005 7.8272929,6.08688263 7.39634813,5.73861991 C6.96540337,5.39035719 6.43502486,5.52601279 6.43502486,5.52601279 C6.43502486,5.52601279 6.17513587,5.49207888 5.26086957,6.88248866" id="Fill-13" fill="#FFFFFF"></path>
                    <path d="M7.89916489,3 C7.89916489,3 7.70327303,3.92182171 7.17391304,4.05351608 C7.17391304,4.05351608 7.37880762,4.90949061 7.89916489,4.25105763 C8.41952215,3.59262465 7.89916489,3 7.89916489,3" id="Fill-15" fill="#FFFFFF"></path>
                </g>
            </g>
        </g>
    </g>
</svg>