<svg id="svg" version="1.1" width="515" height="515" xmlns="http://www.w3.org/2000/svg" xmlns:xlink="http://www.w3.org/1999/xlink" style="display: block;"><g id="svgg"><path id="path0" d="M185.079 92.629 C 165.238 99.638,163.000 105.692,163.000 152.365 L 163.000 184.000 93.682 184.000 C 10.116 184.000,10.713 183.894,2.584 200.207 L -0.000 205.393 -0.000 308.474 C -0.000 423.008,-0.505 414.933,6.779 416.956 C 10.857 418.088,497.258 418.498,502.879 417.374 C 504.601 417.030,507.364 415.362,509.021 413.667 L 512.034 410.586 511.767 329.043 L 511.500 247.500 509.032 242.500 C 505.663 235.676,498.518 228.749,492.465 226.441 C 487.798 224.661,483.346 224.528,418.250 224.229 L 349.000 223.911 349.000 173.639 C 349.000 106.321,348.350 103.679,329.390 93.997 L 324.500 91.500 257.000 91.284 C 197.997 91.095,188.944 91.264,185.079 92.629 M321.689 114.952 C 326.887 118.121,326.988 119.405,326.994 182.173 L 327.000 239.847 329.559 242.888 L 332.118 245.929 408.532 246.215 L 484.945 246.500 487.223 248.777 L 489.500 251.055 489.769 323.527 L 490.038 396.000 255.519 396.000 L 21.000 396.000 21.000 303.635 C 21.000 211.980,21.016 211.250,23.054 208.659 L 25.107 206.048 101.304 205.774 C 172.188 205.519,177.681 205.377,180.096 203.736 C 184.888 200.480,185.000 199.424,185.000 157.627 L 185.000 118.349 187.250 116.302 C 190.782 113.089,189.229 113.162,255.500 113.083 C 316.209 113.010,318.616 113.078,321.689 114.952 M251.603 145.250 C 250.079 150.834,241.783 156.000,234.341 156.000 C 232.146 156.000,232.000 156.375,232.000 162.000 L 232.000 168.000 239.985 168.000 L 247.969 168.000 248.235 196.750 L 248.500 225.500 257.500 225.500 L 266.500 225.500 266.761 184.250 L 267.022 143.000 259.620 143.000 C 252.791 143.000,252.169 143.175,251.603 145.250 M87.123 235.002 C 77.678 237.232,71.000 246.234,71.000 256.735 L 71.000 263.000 79.380 263.000 L 87.760 263.000 88.191 257.037 C 88.740 249.441,90.746 246.994,96.405 247.015 C 102.781 247.039,103.294 247.766,103.804 257.491 L 104.259 266.148 90.242 279.824 C 74.783 294.907,72.234 299.122,71.233 311.267 L 70.757 317.034 97.129 316.767 L 123.500 316.500 123.500 310.000 L 123.500 303.500 108.191 303.224 C 88.542 302.869,88.488 303.423,110.258 282.234 C 135.245 257.914,120.198 227.193,87.123 235.002 M405.636 276.171 C 397.348 278.491,391.020 287.609,391.006 297.250 L 391.000 301.000 399.500 301.000 L 408.000 301.000 408.033 296.750 C 408.078 291.069,410.657 288.000,415.387 288.000 C 426.397 288.000,423.572 307.860,412.400 309.000 L 407.500 309.500 407.204 316.250 L 406.909 323.000 411.865 323.000 C 421.445 323.000,426.984 339.934,419.365 345.927 C 413.399 350.621,406.372 346.267,407.256 338.424 L 407.754 334.000 398.877 334.000 L 390.000 334.000 390.000 337.557 C 390.000 347.794,395.647 356.714,403.500 358.884 C 427.933 365.634,445.745 349.732,439.873 326.411 C 438.755 321.970,433.248 316.000,430.269 316.000 C 429.568 316.000,430.791 314.377,432.988 312.392 C 443.170 303.193,440.389 283.164,428.177 277.749 C 422.728 275.333,411.448 274.543,405.636 276.171 " stroke="none" fill="#ffffff" fill-rule="evenodd"></path></g></svg>