<?xml version="1.0" encoding="iso-8859-1"?>
<!-- Generator: Adobe Illustrator 19.0.0, SVG Export Plug-In . SVG Version: 6.00 Build 0)  -->
<svg xmlns="http://www.w3.org/2000/svg" xmlns:xlink="http://www.w3.org/1999/xlink" version="1.1" id="Capa_1" x="0px" y="0px" viewBox="0 0 512 512" style="enable-background:new 0 0 512 512;" xml:space="preserve" width="512px" height="512px">
<g>
	<g>
		<path d="M427.39,179.1c4.142,0,7.5-3.358,7.5-7.5v-63.348c0-10.03-8.161-18.189-18.191-18.189h-9.502    c-10.03,0-18.189,8.16-18.189,18.189v0.157c-15.167,11.254-91.637,63.743-197.893,63.743H42.788    c-3.27-4.854-8.815-8.053-15.094-8.053h-9.502C8.161,164.1,0,172.26,0,182.29v30.884c0,10.031,8.161,18.191,18.191,18.191h9.502    c6.279,0,11.825-3.199,15.094-8.053h47.264c-56.117,76.05-10.618,184.65,82.46,198.542c0.375,0.056,0.748,0.083,1.116,0.083    c3.652,0,6.853-2.672,7.409-6.394c0.611-4.097-2.214-7.913-6.311-8.525c-92.534-13.811-128.872-132.849-53.718-194.723    c19.091-15.703,43.519-25.143,70.11-25.143c64.632,0,118.221-18.749,151.796-34.478c20.562-9.633,36.207-19.225,46.097-25.886    v140.616c-53.645-35.687-125.511-59.617-197.893-59.617c-49.573,0-89.904,40.331-89.904,89.906s40.331,89.906,89.904,89.906    c49.575,0,89.906-40.332,89.906-89.906c0-28.286-13.135-53.559-33.621-70.052c12.425,2.133,24.149,4.846,35.065,7.895    c46.457,68.036,3.947,159.703-74.958,171.48c-4.097,0.612-6.922,4.428-6.311,8.525c0.556,3.722,3.756,6.393,7.409,6.393    c0.368,0,0.742-0.027,1.117-0.083c29.429-4.393,56.465-19.262,76.128-41.869c33.272-38.254,40.195-92.687,17.832-137.808    c33.8,11.732,64.628,28.333,85.348,43.544c0.259,9.806,8.298,17.707,18.165,17.707h9.502c10.031,0,18.191-8.16,18.191-18.189    V206.6c0-4.142-3.358-7.5-7.5-7.5c-4.142,0-7.5,3.358-7.5,7.5v78.639c0,1.759-1.432,3.189-3.191,3.189h-9.502    c-1.759,0-3.189-1.431-3.189-3.189v-3.266c0-9.707,0-164.651,0-173.721c0-1.759,1.431-3.189,3.189-3.189h9.502    c1.76,0,3.191,1.431,3.191,3.189V171.6C419.89,175.742,423.248,179.1,427.39,179.1z M30.882,213.174    c0,1.759-1.431,3.19-3.189,3.19h-9.502c-1.76,0-3.191-1.431-3.191-3.19V182.29c0-1.759,1.432-3.19,3.191-3.19h9.502    c1.759,0,3.189,1.431,3.189,3.19V213.174z M103.049,208.312H45.883v-21.159h85.648    C120.832,192.955,111.026,200.438,103.049,208.312z M266.023,297.694c0,41.303-33.603,74.906-74.906,74.906    c-41.302,0-74.904-33.603-74.904-74.906c0-41.303,33.602-74.906,74.904-74.906C232.42,222.788,266.023,256.391,266.023,297.694z" fill="#FFFFFF"/>
	</g>
</g>
<g>
	<g>
		<path d="M483.278,281.38l-24.197-23.608c-2.965-2.893-7.714-2.834-10.605,0.131c-2.893,2.966-2.834,7.714,0.13,10.606    l24.197,23.607c1.458,1.423,3.348,2.132,5.237,2.132c1.95,0,3.899-0.756,5.369-2.263    C486.301,289.02,486.243,284.272,483.278,281.38z" fill="#FFFFFF"/>
	</g>
</g>
<g>
	<g>
		<path d="M483.409,103.481c-2.893-2.966-7.642-3.024-10.605-0.131l-24.197,23.607c-2.965,2.893-3.023,7.641-0.131,10.605    c2.892,2.966,7.641,3.023,10.605,0.131l24.197-23.607C486.243,111.193,486.301,106.445,483.409,103.481z" fill="#FFFFFF"/>
	</g>
</g>
<g>
	<g>
		<path d="M504.5,191.294h-32.32c-4.142,0-7.5,3.358-7.5,7.5c0,4.142,3.358,7.5,7.5,7.5h32.32c4.142,0,7.5-3.358,7.5-7.5    C512,194.652,508.642,191.294,504.5,191.294z" fill="#FFFFFF"/>
	</g>
</g>
<g>
	<g>
		<path d="M507.034,151.161c-1.067-4.002-5.177-6.382-9.179-5.314l-33.408,8.909c-8.454,2.255-6.753,14.749,1.928,14.749    c1.383-0.001-1.052,0.541,35.345-9.165C505.722,159.273,508.101,155.163,507.034,151.161z" fill="#FFFFFF"/>
	</g>
</g>
<g>
	<g>
		<path d="M501.719,235.518l-33.408-8.908c-4.002-1.07-8.112,1.312-9.179,5.314c-1.067,4.002,1.312,8.112,5.315,9.179    c36.48,9.727,33.973,9.164,35.345,9.164c3.315,0,6.347-2.215,7.242-5.57C508.101,240.694,505.722,236.585,501.719,235.518z" fill="#FFFFFF"/>
	</g>
</g>
</svg>
