<svg width="64" height="64" xmlns="http://www.w3.org/2000/svg">

 <g>
  <title>background</title>
  <rect fill="none" id="canvas_background" height="402" width="582" y="-1" x="-1"/>
 </g>
 <g>
  <title>Layer 1</title>
  <path fill="#ffffff" id="Fill-173" d="m46.4,56.1l-19.3,0c-0.9,0 -1.6,-0.7 -1.6,-1.6c0,-2.5 -1.2,-3.9 -3,-6.1c-1,-1.2 -2.1,-2.6 -3.2,-4.3c-3,-4.9 -5.7,-10.5 -6.3,-12.7c-0.6,-2.2 -0.2,-3.5 0.4,-4.3c0.7,-1 1.9,-1.5 3.3,-1.5c1.9,0 3.9,1.6 5.6,3.7l0,-16.5c0,-2.7 2.2,-4.8 4.8,-4.8s4.8,2.2 4.8,4.8l0,6.7c0.5,-0.2 1,-0.3 1.6,-0.3c1.7,0 3.2,0.9 4.1,2.2c0.7,-0.4 1.5,-0.6 2.4,-0.6c2.2,0 4.1,1.5 4.6,3.5c0.5,-0.2 1.1,-0.3 1.8,-0.3c2.7,0 4.8,2.2 4.8,4.8l0,4.8c0,4.1 -0.8,7.5 -1.6,10.7c-0.8,3.3 -1.6,6.3 -1.6,10.1c0,0.9 -0.7,1.7 -1.6,1.7l0,0zm-17.7,-3.2l16.2,0c0.2,-3.5 0.9,-6.4 1.6,-9.3c0.8,-3.2 1.5,-6.3 1.5,-10l0,-5.1c0,-0.9 -0.7,-1.6 -1.6,-1.6s-1.6,0.7 -1.6,1.6l0,1.9c0,0.9 -0.7,1.6 -1.6,1.6s-1.6,-0.7 -1.6,-1.6l0,-5.1c0,-0.9 -0.7,-1.6 -1.6,-1.6s-1.6,0.7 -1.6,1.6l0,3.5c0,0.9 -0.7,1.6 -1.6,1.6s-1.6,-0.7 -1.6,-1.6l0,-5.1c0,-0.9 -0.7,-1.6 -1.6,-1.6s-1.6,0.7 -1.6,1.6l0,3.5c0,0.9 -0.7,1.6 -1.6,1.6s-1.6,-0.7 -1.6,-1.6l0,-14.8c0,-0.9 -0.7,-1.6 -1.6,-1.6s-1.6,0.7 -1.6,1.6l0,24.4c0,0.9 -0.7,1.6 -1.6,1.6s-1.6,-0.7 -1.6,-1.6l0,-1.3c-1.4,-3.7 -4.6,-6.9 -5.6,-6.9c-0.4,0 -0.6,0.1 -0.7,0.4c-0.1,0.2 -0.2,0.7 0,1.4c0.5,1.7 3,6.9 6.1,12c1,1.6 2,2.8 3,4c1.6,2 3,3.8 3.5,6.5l0,0z" class="st0"/>
 </g>
</svg>