<?xml version="1.0" encoding="UTF-8"?>
<svg width="512px" height="434px" viewBox="0 0 512 434" version="1.1" xmlns="http://www.w3.org/2000/svg" xmlns:xlink="http://www.w3.org/1999/xlink">
    <!-- Generator: Sketch 48.2 (47327) - http://www.bohemiancoding.com/sketch -->
    <title>Group</title>
    <desc>Created with Sketch.</desc>
    <defs></defs>
    <g id="Desktop-HD" stroke="none" stroke-width="1" fill="none" fill-rule="evenodd" transform="translate(-464.000000, -326.000000)">
        <g id="Group" transform="translate(464.000000, 326.000000)" fill="#cccccc" fill-rule="nonzero">
            <g id="laurel">
                <path d="M502.977,214.031 C497.797,210.925 492.11,208.81 486.208,207.761 C490.335,205.519 494.163,202.674 497.578,199.261 C509.981,186.857 514.872,168.615 510.341,151.654 C509.417,148.197 506.718,145.497 503.261,144.573 C499.107,143.464 494.814,142.901 490.504,142.901 C488.764,142.901 487.037,142.997 485.328,143.173 C488.707,139.876 491.652,136.092 493.996,131.861 C502.5,116.519 502.174,97.636 493.144,82.582 C491.304,79.513 487.956,77.674 484.386,77.727 C478.238,77.839 472.266,79.128 466.725,81.386 C469.084,77.268 470.883,72.798 471.977,68.062 C475.922,50.971 470.403,32.91 457.574,20.926 C454.959,18.484 451.238,17.625 447.816,18.672 C440.056,21.051 433.147,25.3 427.553,30.854 C426.526,28.371 425.313,25.948 423.865,23.631 C414.799,9.12 399.157,0.457 382.027,0.457 C381.468,0.457 380.908,0.467 380.349,0.485 C376.771,0.607 373.533,2.631 371.855,5.793 C363.628,21.302 364.291,40.177 373.584,55.052 C375.029,57.365 376.66,59.512 378.418,61.517 C370.953,64.134 364.12,68.52 358.626,74.403 C356.185,77.018 355.325,80.74 356.374,84.162 C360.069,96.213 368.248,106.227 378.883,112.392 C378.582,113.378 378.414,114.412 378.434,115.473 C378.664,128.076 383.764,139.957 392.29,148.816 C391.729,149.681 391.284,150.629 391.011,151.655 C387.757,163.836 389.386,176.664 395.142,187.529 C394.361,188.206 393.667,188.991 393.122,189.902 C386.64,200.714 384.669,213.492 387.206,225.518 C386.27,225.956 385.39,226.523 384.614,227.247 C375.403,235.851 369.986,247.593 369.109,259.853 C368.089,260.015 367.086,260.318 366.14,260.801 C354.913,266.533 346.471,276.325 342.248,287.867 C341.223,287.743 340.176,287.758 339.133,287.962 C321.903,291.326 307.652,303.719 301.938,320.306 C297.655,332.746 298.612,346.286 304.213,357.873 C288.829,362.007 272.671,364.225 256,364.225 C239.331,364.225 223.173,362.007 207.789,357.873 C213.39,346.287 214.346,332.746 210.064,320.303 C204.351,303.718 190.098,291.327 172.868,287.963 C171.826,287.759 170.779,287.745 169.756,287.869 C165.532,276.325 157.089,266.534 145.864,260.802 C144.918,260.32 143.914,260.017 142.895,259.854 C142.018,247.593 136.6,235.853 127.387,227.247 C126.612,226.522 125.732,225.956 124.797,225.518 C127.333,213.489 125.362,200.71 118.878,189.899 C118.332,188.988 117.642,188.2 116.865,187.521 C122.618,176.659 124.244,163.832 120.991,151.654 C120.718,150.629 120.271,149.681 119.712,148.816 C128.237,139.959 133.338,128.077 133.569,115.473 C133.589,114.41 133.421,113.377 133.121,112.39 C143.756,106.227 151.933,96.211 155.628,84.162 C156.677,80.74 155.819,77.019 153.376,74.404 C147.882,68.522 141.05,64.136 133.584,61.517 C135.343,59.512 136.972,57.366 138.417,55.052 C147.713,40.175 148.375,21.299 140.145,5.792 C138.468,2.631 135.229,0.607 131.653,0.485 C131.094,0.466 130.534,0.457 129.975,0.457 C112.844,0.457 97.204,9.12 88.137,23.631 C86.69,25.947 85.477,28.37 84.449,30.854 C78.855,25.301 71.946,21.052 64.184,18.672 C60.764,17.623 57.043,18.483 54.428,20.926 C41.598,32.91 36.079,50.971 40.025,68.063 C41.119,72.797 42.92,77.268 45.277,81.386 C39.736,79.128 33.765,77.839 27.618,77.727 C24.013,77.665 20.7,79.513 18.86,82.581 C9.829,97.637 9.501,116.521 18.005,131.86 C20.35,136.09 23.295,139.875 26.675,143.172 C24.967,142.995 23.24,142.9 21.499,142.9 C17.19,142.9 12.899,143.463 8.742,144.572 C5.285,145.496 2.585,148.196 1.662,151.654 C-2.867,168.618 2.023,186.859 14.427,199.261 C17.84,202.673 21.669,205.518 25.796,207.76 C19.896,208.81 14.207,210.924 9.026,214.03 C5.956,215.871 4.104,219.212 4.17,222.791 C4.493,240.346 14.224,256.533 29.564,265.034 C33.754,267.356 38.262,269.028 42.911,270.05 C37.527,272.675 32.602,276.271 28.444,280.723 C26.002,283.338 25.143,287.058 26.191,290.479 C31.337,307.267 45.152,320.144 62.243,324.088 C65.899,324.933 69.642,325.36 73.366,325.36 C74.407,325.36 75.442,325.315 76.476,325.249 C72.038,329.231 68.278,334.019 65.49,339.478 C63.863,342.666 64.062,346.479 66.013,349.478 C75.154,363.529 90.594,371.917 107.316,371.917 C108.185,371.917 109.066,371.894 109.932,371.848 C114.785,371.594 119.501,370.598 123.967,368.991 C120.781,374.055 118.475,379.711 117.297,385.746 C116.61,389.259 117.854,392.87 120.557,395.216 C129.543,403.014 141.029,407.31 152.894,407.31 C158.347,407.31 163.746,406.404 168.944,404.615 C182.642,399.898 193.464,389.346 198.716,376.11 C204.44,377.77 210.268,379.184 216.183,380.348 C212.391,384.005 209.073,388.204 206.375,392.879 C203.614,397.662 205.254,403.778 210.037,406.539 C214.821,409.299 220.936,407.66 223.698,402.877 C230.337,391.372 242.715,384.226 256,384.226 C269.285,384.226 281.665,391.373 288.303,402.877 C290.155,406.086 293.516,407.88 296.973,407.88 C298.668,407.88 300.389,407.448 301.963,406.539 C306.746,403.778 308.385,397.663 305.625,392.879 C302.928,388.205 299.609,384.006 295.816,380.347 C301.732,379.184 307.561,377.77 313.284,376.11 C318.536,389.346 329.359,399.897 343.058,404.615 C348.253,406.403 353.652,407.31 359.108,407.31 C359.108,407.31 359.108,407.31 359.11,407.31 C370.976,407.31 382.459,403.015 391.443,395.215 C394.146,392.869 395.388,389.259 394.703,385.746 C393.525,379.712 391.219,374.056 388.033,368.991 C392.498,370.598 397.213,371.595 402.065,371.848 C402.936,371.894 403.811,371.883 404.684,371.917 C421.404,371.917 436.845,363.528 445.987,349.48 C447.94,346.48 448.139,342.665 446.51,339.477 C443.723,334.019 439.963,329.233 435.526,325.249 C436.559,325.315 437.594,325.36 438.635,325.36 C438.635,325.36 438.635,325.36 438.637,325.36 C442.36,325.36 446.102,324.932 449.757,324.089 C466.848,320.146 480.662,307.268 485.812,290.482 C486.861,287.06 486.003,283.338 483.56,280.723 C479.402,276.272 474.476,272.676 469.092,270.051 C473.738,269.03 478.246,267.359 482.439,265.035 C497.78,256.532 507.51,240.345 507.831,222.79 C507.9,219.211 506.048,215.871 502.977,214.031 Z M117.794,246.551 C122.459,253.272 124.182,261.763 122.307,269.881 C120.432,278.002 115.162,284.879 108.023,288.874 C103.359,282.154 101.637,273.662 103.512,265.543 C105.386,257.424 110.656,250.547 117.794,246.551 Z M85.372,220.131 C89.412,212.842 96.372,207.684 104.336,205.811 C106.968,213.556 106.283,222.193 102.243,229.481 C98.202,236.77 91.242,241.929 83.278,243.802 C80.645,236.057 81.33,227.42 85.372,220.131 Z M73.383,193.695 C72.893,193.695 72.403,193.682 71.914,193.658 C71.518,185.487 74.557,177.372 80.451,171.479 C85.982,165.946 93.337,162.9 101.158,162.9 C101.647,162.9 102.137,162.912 102.625,162.936 C103.021,171.108 99.983,179.224 94.089,185.117 C88.557,190.649 81.203,193.695 73.383,193.695 Z M105.1,34.227 C109.557,27.096 116.689,22.34 124.785,20.909 C127.012,28.784 125.877,37.38 121.457,44.452 C117.002,51.584 109.871,56.34 101.774,57.771 C99.548,49.893 100.682,41.298 105.1,34.227 Z M110.74,79.486 C112.923,78.982 115.15,78.727 117.363,78.727 C123.351,78.727 129.194,80.602 134.073,83.994 C130.077,91.134 123.2,96.405 115.078,98.28 C112.896,98.784 110.67,99.04 108.459,99.04 C108.459,99.04 108.459,99.04 108.458,99.04 C102.471,99.039 96.626,97.164 91.747,93.77 C95.743,86.631 102.62,81.361 110.74,79.486 Z M89.132,123.353 C93.474,120.947 98.37,119.674 103.295,119.674 C106.543,119.674 109.755,120.212 112.804,121.253 C110.932,129.219 105.774,136.184 98.482,140.225 C94.142,142.631 89.246,143.903 84.323,143.903 C81.073,143.903 77.86,143.365 74.81,142.323 C76.681,134.357 81.84,127.394 89.132,123.353 Z M64.028,40.23 C71.166,44.224 76.436,51.101 78.311,59.223 C79.649,65.021 79.145,71.004 77.055,76.402 C75.905,78.419 74.785,80.45 73.707,82.498 C66.615,78.495 61.382,71.646 59.516,63.561 C57.641,55.441 59.363,46.95 64.028,40.23 Z M33.408,98.493 C41.37,100.366 48.331,105.522 52.372,112.81 C55.225,117.956 56.395,123.775 55.917,129.478 C55.354,131.791 54.827,134.116 54.345,136.45 C46.432,134.554 39.52,129.415 35.501,122.162 C31.461,114.874 30.775,106.239 33.408,98.493 Z M20.035,162.935 C20.523,162.911 21.012,162.899 21.502,162.899 C29.324,162.899 36.679,165.945 42.21,171.478 C46.443,175.709 49.193,181.088 50.267,186.809 C50.361,189.102 50.481,191.387 50.65,193.66 C50.194,193.68 49.738,193.694 49.28,193.694 C41.459,193.694 34.104,190.647 28.571,185.116 C22.678,179.223 19.639,171.109 20.035,162.935 Z M39.26,247.54 C31.972,243.501 26.814,236.537 24.941,228.571 C27.99,227.53 31.202,226.991 34.449,226.991 C39.372,226.991 44.269,228.263 48.612,230.671 C53.805,233.55 57.909,237.917 60.523,243.068 C61.259,245.285 62.027,247.486 62.836,249.669 C59.815,250.689 56.638,251.22 53.425,251.22 C48.502,251.22 43.604,249.948 39.26,247.54 Z M73.367,305.361 C71.154,305.361 68.927,305.105 66.742,304.601 C58.622,302.727 51.745,297.458 47.751,290.317 C52.628,286.924 58.47,285.049 64.457,285.049 C66.67,285.049 68.898,285.305 71.082,285.809 C77.071,287.192 82.38,290.425 86.358,294.889 C87.569,296.645 88.805,298.381 90.069,300.097 C85.191,303.487 79.351,305.361 73.367,305.361 Z M108.889,351.875 C100.451,352.318 92.478,349.169 86.689,343.392 C91.863,337.05 99.553,333.051 107.879,332.614 C114.047,332.293 119.958,333.893 124.954,337.027 C126.636,338.418 128.346,339.774 130.071,341.111 C124.895,347.445 117.21,351.44 108.889,351.875 Z M141.962,282.003 C148.298,287.177 152.294,294.864 152.73,303.186 C153.165,311.507 149.996,319.571 144.236,325.379 C137.9,320.203 133.905,312.516 133.468,304.194 C133.031,295.873 136.201,287.811 141.962,282.003 Z M162.434,385.702 C154.579,388.405 145.867,387.583 138.754,383.66 C141.982,376.141 148.27,370.178 156.151,367.464 C161.79,365.523 167.867,365.408 173.478,366.943 C175.566,367.859 177.667,368.748 179.789,369.596 C176.55,377.074 170.281,382.999 162.434,385.702 Z M189.106,350.49 C181.588,347.261 175.628,340.973 172.915,333.093 C170.202,325.214 171.027,316.589 174.962,309.419 C182.48,312.646 188.44,318.934 191.154,326.813 C193.866,334.693 193.042,343.317 189.106,350.49 Z M490.505,162.899 C490.995,162.899 491.484,162.911 491.972,162.935 C492.368,171.107 489.329,179.222 483.437,185.116 C477.906,190.648 470.549,193.694 462.727,193.694 C462.27,193.694 461.813,193.68 461.358,193.66 C461.526,191.387 461.647,189.103 461.741,186.811 C462.813,181.09 465.565,175.709 469.798,171.477 C475.328,165.945 482.681,162.899 490.505,162.899 Z M459.635,112.812 C463.674,105.524 470.635,100.367 478.599,98.494 C481.228,106.238 480.544,114.875 476.503,122.164 C472.485,129.415 465.573,134.555 457.66,136.452 C457.178,134.117 456.65,131.794 456.088,129.48 C455.61,123.778 456.782,117.958 459.635,112.812 Z M433.697,59.222 C435.572,51.102 440.842,44.225 447.977,40.23 C452.641,46.951 454.364,55.442 452.489,63.562 C450.624,71.645 445.391,78.495 438.3,82.499 C437.22,80.45 436.103,78.419 434.952,76.402 C432.861,71.003 432.357,65.02 433.697,59.222 Z M417.917,185.116 C412.022,179.223 408.985,171.107 409.38,162.935 C409.868,162.911 410.357,162.899 410.847,162.899 C418.669,162.899 426.024,165.946 431.557,171.478 C437.452,177.372 440.491,185.487 440.094,193.657 C439.606,193.682 439.115,193.694 438.625,193.694 C430.802,193.695 423.449,190.648 417.917,185.116 Z M428.73,243.802 C420.767,241.929 413.805,236.772 409.764,229.481 C405.723,222.194 405.039,213.558 407.67,205.811 C415.633,207.684 422.595,212.842 426.634,220.132 C430.677,227.42 431.361,236.057 428.73,243.802 Z M437.195,142.323 C434.146,143.364 430.933,143.902 427.685,143.902 C422.761,143.902 417.865,142.631 413.524,140.225 C406.233,136.183 401.076,129.218 399.203,121.252 C402.252,120.212 405.463,119.673 408.711,119.673 C413.633,119.673 418.531,120.945 422.874,123.353 C430.166,127.394 435.324,134.357 437.195,142.323 Z M387.22,20.908 C395.316,22.34 402.448,27.095 406.905,34.227 C411.323,41.297 412.458,49.893 410.231,57.769 C402.135,56.336 395.003,51.581 390.546,44.45 C386.129,37.38 384.994,28.785 387.22,20.908 Z M377.933,83.994 C382.812,80.602 388.657,78.727 394.643,78.727 C396.854,78.727 399.082,78.982 401.266,79.486 C409.387,81.361 416.265,86.632 420.259,93.771 C415.38,97.165 409.538,99.041 403.549,99.041 C401.338,99.041 399.111,98.785 396.928,98.281 C388.806,96.405 381.929,91.134 377.933,83.994 Z M394.211,246.551 C401.35,250.546 406.62,257.423 408.495,265.541 C410.37,273.662 408.645,282.154 403.981,288.874 C396.844,284.879 391.574,278.002 389.701,269.881 C387.826,261.762 389.549,253.271 394.211,246.551 Z M322.899,350.49 C318.963,343.319 318.137,334.694 320.85,326.815 C323.563,318.935 329.524,312.647 337.04,309.419 C340.976,316.589 341.802,325.215 339.091,333.094 C336.379,340.972 330.418,347.261 322.899,350.49 Z M349.574,385.702 C341.724,382.999 335.456,377.073 332.218,369.596 C334.374,368.734 336.509,367.83 338.63,366.898 C341.12,366.218 343.702,365.858 346.318,365.858 C349.551,365.858 352.759,366.398 355.853,367.462 C363.734,370.177 370.024,376.14 373.25,383.659 C366.137,387.584 357.426,388.404 349.574,385.702 Z M378.537,304.198 C378.103,312.517 374.107,320.205 367.771,325.38 C362.011,319.571 358.841,311.508 359.277,303.187 C359.712,294.867 363.709,287.179 370.045,282.004 C375.806,287.812 378.974,295.874 378.537,304.198 Z M404.688,351.917 C404.167,351.917 403.643,351.903 403.116,351.875 C394.796,351.44 387.111,347.446 381.937,341.109 C383.664,339.771 385.373,338.414 387.056,337.022 C392.052,333.888 397.96,332.286 404.127,332.613 C412.451,333.049 420.144,337.049 425.317,343.391 C419.888,348.809 412.522,351.917 404.688,351.917 Z M445.262,304.601 C443.078,305.105 440.852,305.361 438.641,305.361 L438.639,305.361 C432.655,305.361 426.814,303.487 421.937,300.097 C423.199,298.381 424.435,296.646 425.646,294.891 C429.625,290.426 434.933,287.192 440.924,285.809 C443.106,285.305 445.334,285.049 447.547,285.049 C453.533,285.049 459.378,286.924 464.257,290.317 C460.26,297.457 453.384,302.727 445.262,304.601 Z M472.744,247.541 C468.402,249.947 463.506,251.22 458.581,251.22 C455.368,251.22 452.188,250.689 449.169,249.669 C449.978,247.489 450.745,245.29 451.482,243.076 C454.093,237.922 458.199,233.553 463.395,230.671 C467.737,228.264 472.633,226.991 477.558,226.991 C480.806,226.991 484.017,227.53 487.068,228.571 C485.194,236.538 480.035,243.5 472.744,247.541 Z" id="Shape"></path>
                <path d="M202.251,413.55 C196.744,413.55 192.252,418.04 192.252,423.549 C192.252,429.057 196.744,433.547 202.251,433.547 C207.758,433.547 212.25,429.057 212.25,423.549 C212.25,418.041 207.758,413.55 202.251,413.55 Z" id="Shape"></path>
                <path d="M309.756,413.55 C304.25,413.55 299.758,418.04 299.758,423.549 C299.758,429.057 304.25,433.547 309.756,433.547 C315.264,433.547 319.754,429.057 319.754,423.549 C319.754,418.041 315.264,413.55 309.756,413.55 Z" id="Shape"></path>
            </g>
            <g id="star-(1)" transform="translate(179.000000, 101.000000)">
                <path d="M155.785956,56.3073947 C155.273665,54.7379622 153.928899,53.616939 152.295969,53.3607051 L103.62826,46.4423904 L81.7277911,2.40219261 C80.9913719,0.928847807 79.4865151,0 77.8535854,0 C76.2206556,0 74.7157988,0.928847807 73.9793796,2.43422184 L52.3670745,46.6025365 L3.69936548,53.8411436 C2.06643577,54.0973775 0.721670122,55.2184007 0.209378448,56.7878332 C-0.302913227,58.3572657 0.145341988,60.0868444 1.33001649,61.2078676 L36.6461238,95.4471195 L28.4814752,143.939381 C28.1933112,145.572872 28.865694,147.206363 30.2104596,148.16724 C30.9468789,148.711737 31.8433893,149 32.7398998,149 C33.4443008,149 34.1166836,148.839854 34.7570482,148.487532 L78.2057859,125.458512 L121.782596,148.231298 C122.422961,148.551591 123.095344,148.711737 123.767727,148.711737 C126.137076,148.711737 128.090188,146.757954 128.090188,144.38779 C128.090188,144.035469 128.058169,143.715176 127.962115,143.394884 L119.54132,95.1908856 L154.6333,60.7594583 C155.882011,59.6064058 156.298248,57.8768272 155.785956,56.3073947 Z M111.920982,90.6107051 C110.896398,91.6036113 110.448143,93.0449269 110.704289,94.4542132 L118.036464,136.508598 L80.1909161,116.746561 C78.9422052,116.073947 77.4373484,116.105976 76.1566192,116.746561 L38.4391447,136.732803 L45.5151734,94.6143594 C45.739301,93.2050731 45.2910458,91.7957868 44.2664624,90.8028805 L13.6570349,61.0797506 L55.8890798,54.8020206 C57.2978819,54.577816 58.5145746,53.7130267 59.122921,52.4318573 L77.8856036,14.0928633 L96.904432,52.3357696 C97.5447966,53.616939 98.7614893,54.4817283 100.170291,54.7059329 L142.434355,60.7274291 L111.920982,90.6107051 Z" id="Shape"></path>
            </g>
        </g>
    </g>
</svg>