<svg width="91" height="91" xmlns="http://www.w3.org/2000/svg">

 <g>
  <title>background</title>
  <rect fill="none" id="canvas_background" height="402" width="582" y="-1" x="-1"/>
 </g>
 <g>
  <title>Layer 1</title>
  <path fill="#ffffff" id="svg_2" d="m46.252,22.97c-6.738,0 -12.219,5.484 -12.219,12.223c0,2.725 0.907,5.236 2.42,7.27c-2.98,2.084 -4.777,5.191 -4.777,8.521l0,17.369l3.4,0l0,-17.37c0,-2.371 1.436,-4.619 3.804,-6.068c2.052,1.561 4.601,2.498 7.372,2.498c2.806,0 5.385,-0.959 7.451,-2.557c2.427,1.449 3.897,3.719 3.897,6.127l0,17.369l3.4,0l0,-17.369c0,-3.383 -1.839,-6.516 -4.89,-8.598c1.479,-2.021 2.363,-4.504 2.363,-7.193c0.001,-6.738 -5.482,-12.222 -12.221,-12.222zm0,21.045c-4.863,0 -8.818,-3.959 -8.818,-8.822c0,-4.865 3.955,-8.822 8.818,-8.822c4.864,0 8.822,3.957 8.822,8.822c0,4.863 -3.958,8.822 -8.822,8.822z"/>
  <path fill="#ffffff" id="svg_3" d="m18.976,48.233c0,-1.043 0.596,-2.037 1.579,-2.768c1.26,0.838 2.768,1.33 4.391,1.33c4.394,0 7.969,-3.572 7.969,-7.965c0,-4.395 -3.575,-7.969 -7.969,-7.969c-4.393,0 -7.965,3.574 -7.965,7.969c0,1.529 0.453,2.943 1.202,4.156c-1.642,1.359 -2.607,3.242 -2.607,5.246l0,10.084l3.4,0l0,-10.083zm5.969,-13.97c2.52,0 4.568,2.049 4.568,4.568c0,2.516 -2.049,4.564 -4.568,4.564c-2.518,0 -4.565,-2.049 -4.565,-4.564c0,-2.519 2.048,-4.568 4.565,-4.568z"/>
  <path fill="#ffffff" id="svg_4" d="m74.422,42.931c0.729,-1.201 1.172,-2.596 1.172,-4.1c0,-4.395 -3.574,-7.969 -7.966,-7.969c-4.394,0 -7.969,3.574 -7.969,7.969c0,4.393 3.575,7.965 7.969,7.965c1.646,0 3.178,-0.502 4.448,-1.361c1.01,0.73 1.621,1.738 1.621,2.799l0,10.084l3.4,0l0,-10.085c0.001,-2.039 -0.991,-3.945 -2.675,-5.302zm-6.794,0.465c-2.52,0 -4.569,-2.049 -4.569,-4.564c0,-2.52 2.05,-4.568 4.569,-4.568c2.518,0 4.565,2.049 4.565,4.568c0,2.515 -2.047,4.564 -4.565,4.564z"/>
 </g>
</svg>