<svg width="800" height="800" xmlns="http://www.w3.org/2000/svg">

 <g>
  <title>background</title>
  <rect fill="none" id="canvas_background" height="402" width="582" y="-1" x="-1"/>
 </g>
 <g>
  <title>Layer 1</title>
  <path fill="#cccccc" id="svg_2" d="m289.1,450.1c1.1,0 3.2,0 4.3,0c7.5,7.5 13.9,14.9 21.3,21.3c10.7,9.6 16,22.4 16,36.3l0,2.1c0,9.6 -3.2,19.2 -8.5,27.7l-81.1,115.2c-6.4,9.6 -7.5,22.4 -2.1,33.1s16,17.1 28.8,17.1l256,0c11.7,0 22.4,-6.4 28.8,-17.1c5.3,-10.7 4.3,-23.5 -2.1,-33.1l-81.1,-115.2c-5.3,-8.5 -8.5,-18.1 -8.5,-27.7l0,-2.1c0,-13.9 5.3,-26.7 16,-36.3c7.5,-6.4 14.9,-13.9 21.3,-21.3c1.1,0 3.2,0 5.3,0c164.2,-26.6 276.2,-114.1 276.2,-215.4c0,-65.1 -52.3,-117.3 -117.3,-117.3c-11.7,0 -22.4,2.1 -33.1,5.3c-3.2,-14.9 -16,-26.7 -32,-26.7l-405.3,0c-16,0 -28.8,11.7 -30.9,26.7c-10.7,-3.2 -21.3,-5.3 -33.1,-5.3c-65.1,0 -117.3,52.3 -117.3,117.3c0,101.3 112,188.8 278.4,215.4zm171.7,189.9l-132.3,0l45.9,-65.1c13.9,-19.2 20.3,-41.6 20.3,-65.1c0,23.5 7.5,45.9 20.3,65.1l45.8,65.1zm162.1,-441.6c9.6,-11.7 24.5,-18.1 39.5,-18.1c29.9,0 53.3,23.5 53.3,53.3c0,55.5 -64,108.8 -160,137.6c32,-52.3 55.5,-113.1 67.2,-172.8zm-59.7,-38.4c-10.7,93.9 -64,202.7 -132.3,264.5c-23.5,21.3 -37.3,51.2 -37.3,83.2c0,-32 -13.9,-61.9 -37.3,-83.2c-67.2,-61.8 -120.6,-170.6 -130.2,-264.5l337.1,0zm-435.2,21.3c14.9,0 28.8,6.4 38.4,17.1c10.7,58.7 35.2,120.5 67.2,173.9c-94.9,-28.8 -158.9,-82.1 -158.9,-137.6c0,-29.9 24.5,-53.4 53.3,-53.4z"/>
 </g>
</svg>