<svg xmlns="http://www.w3.org/2000/svg" xmlns:xlink="http://www.w3.org/1999/xlink" viewBox="0 0 121 121"><defs><style>.cls-1{fill:url(#Sfumatura_senza_nome_14);}</style><linearGradient id="Sfumatura_senza_nome_14" x1="17.72" y1="103.28" x2="103.28" y2="17.72" gradientUnits="userSpaceOnUse"><stop offset="0" stop-color="#08aeea"/><stop offset="1" stop-color="#2af598"/></linearGradient></defs><title>Risorsa 15</title><g id="Livello_2" data-name="Livello 2"><g id="Livello_1-2" data-name="Livello 1"><path class="cls-1" d="M60.5,0A60.5,60.5,0,1,0,121,60.5,60.5,60.5,0,0,0,60.5,0ZM24.83,51.33a2.82,2.82,0,0,1-.9-.14,3,3,0,0,1-2-3.76C22.41,46.05,26.48,34,35.37,34H36c8.88,0,13,12,13.39,13.43a3,3,0,0,1-5.72,1.81C42.87,46.84,39.81,40,36,40h-.6c-3.59,0-6.72,6.22-7.68,9.24A3,3,0,0,1,24.83,51.33ZM92.92,79c-.45.51-11.13,12.35-31.59,12.35H59.67C39.21,91.33,28.53,79.49,28.08,79a3,3,0,0,1,4.5-4c.09.09,9.46,10.31,27.09,10.31h1.66c17.78,0,27-10.21,27.09-10.31a3,3,0,0,1,4.5,4Zm4.15-27.79a2.82,2.82,0,0,1-.9.14,3,3,0,0,1-2.86-2.09c-.77-2.4-3.83-9.24-7.68-9.24H85c-3.58,0-6.72,6.22-7.67,9.24a3,3,0,0,1-5.72-1.81C72.08,46.05,76.15,34,85,34h.6c8.89,0,13,12,13.4,13.43A3,3,0,0,1,97.07,51.19Z"/></g></g></svg>