<svg xmlns="http://www.w3.org/2000/svg" xmlns:xlink="http://www.w3.org/1999/xlink" viewBox="0 0 145.72 141.47"><defs><style>.cls-1{fill:url(#Sfumatura_senza_nome_18);}.cls-2{fill:#2af598;}.cls-3{fill:url(#Sfumatura_senza_nome_18-2);}.cls-4{fill:url(#Sfumatura_senza_nome_18-3);}</style><linearGradient id="Sfumatura_senza_nome_18" x1="43.82" y1="49.85" x2="116.63" y2="49.85" gradientUnits="userSpaceOnUse"><stop offset="0" stop-color="#2af598"/><stop offset="0.44" stop-color="#18cfc4"/><stop offset="0.8" stop-color="#0cb7e0"/><stop offset="1" stop-color="#08aeea"/></linearGradient><linearGradient id="Sfumatura_senza_nome_18-2" x1="54.43" y1="85.93" x2="145.72" y2="85.93" xlink:href="#Sfumatura_senza_nome_18"/><linearGradient id="Sfumatura_senza_nome_18-3" x1="33" y1="35.14" x2="105.8" y2="35.14" xlink:href="#Sfumatura_senza_nome_18"/></defs><title>Risorsa 9</title><g id="Livello_2" data-name="Livello 2"><g id="Livello_1-2" data-name="Livello 1"><path class="cls-1" d="M104.73,14.91A8.63,8.63,0,0,0,98,23.83c.57,9.8-.32,31.9-20,31.9C60,55.73,50.29,62.87,46.2,67a8.19,8.19,0,0,0-2.38,5.89c0,1.71,0,4.08.09,6.86H45.6A6.34,6.34,0,0,1,51.82,85v-.09A8.19,8.19,0,0,1,54.2,79C58.29,74.87,68,67.73,85.94,67.73c19.7,0,20.59-22.1,20-31.9a8.63,8.63,0,0,1,6.77-8.92,7.41,7.41,0,0,1,3.9.13C113.72,15.85,108.83,14,104.73,14.91Z"/><path class="cls-2" d="M22.86,87.54a6.35,6.35,0,0,1,6.33-6.34H39.68V72.61a6.35,6.35,0,0,0-6.33-6.34H19.08a6.35,6.35,0,0,0-6.33,6.34v40.48a6.35,6.35,0,0,0,6.33,6.33h3.78Z"/><path class="cls-3" d="M54.43,88.59a8.19,8.19,0,0,1,2.38-5.89c4.09-4.15,13.75-11.29,31.74-11.29,19.7,0,20.59-22.1,20-31.91a8.63,8.63,0,0,1,6.77-8.91c5.26-1.16,11.81,2.19,13.84,24a9.92,9.92,0,0,1,0,1.09,64.12,64.12,0,0,1-2,13.3c-1.13,4.43,1.7,8.79,6.41,10.14,5.79,1.66,11.7,5.34,9.43,13.51A7.8,7.8,0,0,0,144,99.2c1.79,2.65,3.23,7.19-1,13.13a8.33,8.33,0,0,0-1.41,5.92,10.73,10.73,0,0,1-4.35,10.52,8.91,8.91,0,0,0-3.59,5c-.76,3-3.38,7.06-12,7.06-13.81,0-66.77,4.61-66.77-11.34C54.78,116.74,54.53,96.24,54.43,88.59Z"/><rect class="cls-2" x="24.86" y="82.95" width="26.93" height="53.15" rx="6.33" ry="6.33"/><path class="cls-4" d="M93.9.2a8.63,8.63,0,0,0-6.77,8.92c.58,9.8-.31,31.9-20,31.9-18,0-27.65,7.14-31.74,11.29A8.15,8.15,0,0,0,33,58.2c0,1.72,0,4.08.08,6.86h1.69A6.36,6.36,0,0,1,41,70.29V70.2a8.15,8.15,0,0,1,2.37-5.89C47.46,60.16,57.13,53,75.11,53c19.71,0,20.6-22.1,20-31.9a8.63,8.63,0,0,1,6.77-8.92,7.31,7.31,0,0,1,3.9.14C102.89,1.14,98-.7,93.9.2Z"/><path class="cls-2" d="M10.11,71a6.35,6.35,0,0,1,6.33-6.34H26.93V56.11a6.35,6.35,0,0,0-6.33-6.34H6.33A6.35,6.35,0,0,0,0,56.11V96.59a6.35,6.35,0,0,0,6.33,6.33h3.78Z"/></g></g></svg>