<svg xmlns="http://www.w3.org/2000/svg" xmlns:xlink="http://www.w3.org/1999/xlink" viewBox="0 0 120.86 111.08"><defs><style>.cls-1{fill:url(#Sfumatura_senza_nome_18);}.cls-2{fill:#2af598;}</style><linearGradient id="Sfumatura_senza_nome_18" x1="29.57" y1="55.54" x2="120.86" y2="55.54" gradientUnits="userSpaceOnUse"><stop offset="0" stop-color="#2af598"/><stop offset="0.44" stop-color="#18cfc4"/><stop offset="0.8" stop-color="#0cb7e0"/><stop offset="1" stop-color="#08aeea"/></linearGradient></defs><title>Risorsa 6</title><g id="Livello_2" data-name="Livello 2"><g id="Livello_1-2" data-name="Livello 1"><path class="cls-1" d="M29.57,58.2A8.2,8.2,0,0,1,32,52.31C36,48.16,45.7,41,63.69,41c19.7,0,20.59-22.1,20-31.9A8.63,8.63,0,0,1,90.48.2c5.26-1.16,11.81,2.2,13.84,24a9.74,9.74,0,0,1,0,1.08,64,64,0,0,1-2,13.3c-1.13,4.43,1.7,8.8,6.41,10.14,5.79,1.66,11.7,5.34,9.43,13.51a7.8,7.8,0,0,0,.88,6.55c1.79,2.65,3.23,7.19-1,13.13a8.34,8.34,0,0,0-1.41,5.93,10.71,10.71,0,0,1-4.35,10.51,9,9,0,0,0-3.59,5c-.76,3-3.38,7.07-12,7.07-13.82,0-66.77,4.6-66.77-11.34C29.92,86.35,29.67,65.85,29.57,58.2Z"/><rect class="cls-2" y="52.56" width="26.93" height="53.15" rx="6.33" ry="6.33"/></g></g></svg>