<svg xmlns="http://www.w3.org/2000/svg" xmlns:xlink="http://www.w3.org/1999/xlink" viewBox="0 0 121 121"><defs><style>.cls-1{fill:url(#Sfumatura_senza_nome_3);}</style><linearGradient id="Sfumatura_senza_nome_3" x1="17.72" y1="103.28" x2="103.28" y2="17.72" gradientUnits="userSpaceOnUse"><stop offset="0" stop-color="#85ffbd"/><stop offset="1" stop-color="#fffb7d"/></linearGradient></defs><title>Risorsa 14</title><g id="Livello_2" data-name="Livello 2"><g id="Livello_1-2" data-name="Livello 1"><path class="cls-1" d="M60.5,0A60.5,60.5,0,1,0,121,60.5,60.5,60.5,0,0,0,60.5,0ZM81.83,31c3.69,0,6.67,5.07,6.67,11.33s-3,11.34-6.67,11.34-6.66-5.08-6.66-11.34S78.15,31,81.83,31ZM39.17,31c3.68,0,6.66,5.07,6.66,11.33s-3,11.34-6.66,11.34S32.5,48.59,32.5,42.33,35.48,31,39.17,31ZM93.31,78.35a3,3,0,0,1-3.52,2.36c-.33-.06-26.22-4.84-51,12.07a3,3,0,0,1-1.69.52,3,3,0,0,1-1.7-5.47C62.38,69.42,89.8,74.6,91,74.83A3,3,0,0,1,93.31,78.35Z"/></g></g></svg>