<svg xmlns="http://www.w3.org/2000/svg" xmlns:xlink="http://www.w3.org/1999/xlink" viewBox="0 0 121 121"><defs><style>.cls-1{fill:url(#Sfumatura_senza_nome_5);}</style><linearGradient id="Sfumatura_senza_nome_5" x1="17.72" y1="103.28" x2="103.28" y2="17.72" gradientUnits="userSpaceOnUse"><stop offset="0" stop-color="#f7ce68"/><stop offset="1" stop-color="#fbab7e"/></linearGradient></defs><title>Risorsa 8</title><g id="Livello_2" data-name="Livello 2"><g id="Livello_1-2" data-name="Livello 1"><path class="cls-1" d="M60.5,0A60.5,60.5,0,1,0,121,60.5,60.5,60.5,0,0,0,60.5,0ZM17.83,40.6l12.56-1.83L36,27.4l5.61,11.37L54.17,40.6l-9.09,8.85L47.23,62,36,56.05,24.77,62l2.15-12.51ZM94.16,84c-1.92,8.27-8.78,23-33.2,23H60c-24.42,0-31.28-14.75-33.2-23-.69-2.94.59-6,2.72-6.71C43.08,73,58.41,73.85,60.5,74c2.09-.13,17.42-.94,30.94,3.29C93.57,77.94,94.85,81,94.16,84Zm2.07-22L85,56.05,73.77,62l2.15-12.51L66.83,40.6l12.56-1.83L85,27.4l5.61,11.37,12.56,1.83-9.09,8.85Z"/></g></g></svg>