<svg xmlns="http://www.w3.org/2000/svg" xmlns:xlink="http://www.w3.org/1999/xlink" viewBox="0 0 121.09 121.09"><defs><style>.cls-1{fill:url(#Sfumatura_senza_nome_8);}.cls-2{fill:#f2f2f2;opacity:0.59;}</style><linearGradient id="Sfumatura_senza_nome_8" x1="17.73" y1="103.36" x2="103.36" y2="17.73" gradientUnits="userSpaceOnUse"><stop offset="0" stop-color="#21d4fd"/><stop offset="1" stop-color="#b721ff"/></linearGradient></defs><title>Risorsa 5</title><g id="Livello_2" data-name="Livello 2"><g id="Livello_1-2" data-name="Livello 1"><path class="cls-1" d="M60.54,0a60.55,60.55,0,1,0,60.55,60.54A60.55,60.55,0,0,0,60.54,0ZM45.14,40.44c-4.4-.8-20.5,3.5-20.5,3.5s-4.2-16.4,7-16.4S49.54,41.24,45.14,40.44ZM67.75,71c-2.86-.72-6-1.36-7.12-1.06H58.47c-1.14-.3-4.27.34-7.12,1.06a3.23,3.23,0,0,1-3.47-4.93c3-4.43,8.45-6.66,10.7-7.27a3.21,3.21,0,0,1,1.94,0c2.22.71,7.74,2.84,10.7,7.27A3.23,3.23,0,0,1,67.75,71Zm27.8-27S81,39.64,76.64,40.44s1.61-12.9,12.81-12.9S95.55,44,95.55,44Z"/><path class="cls-2" d="M24.8,44c-4,18.59-6.48,37.47-10.18,56.11a60.6,60.6,0,0,0,21.62,16c4.16-25,6.82-50.28,8.67-75.59C40.56,39.87,26.58,43.49,24.8,44Z"/><path class="cls-2" d="M96.48,43.71c4,18.59,6.48,37.47,10.18,56.11a60.6,60.6,0,0,1-21.62,16c-4.17-25-6.82-50.28-8.67-75.59C80.72,39.62,94.69,43.24,96.48,43.71Z"/></g></g></svg>