<svg xmlns="http://www.w3.org/2000/svg" xmlns:xlink="http://www.w3.org/1999/xlink" viewBox="0 0 132.97 126.76"><defs><style>.cls-1{fill:url(#Sfumatura_senza_nome_18);}.cls-2{fill:#2af598;}.cls-3{fill:url(#Sfumatura_senza_nome_18-2);}</style><linearGradient id="Sfumatura_senza_nome_18" x1="31.07" y1="35.14" x2="103.88" y2="35.14" gradientUnits="userSpaceOnUse"><stop offset="0" stop-color="#2af598"/><stop offset="0.44" stop-color="#18cfc4"/><stop offset="0.8" stop-color="#0cb7e0"/><stop offset="1" stop-color="#08aeea"/></linearGradient><linearGradient id="Sfumatura_senza_nome_18-2" x1="41.68" y1="71.22" x2="132.97" y2="71.22" xlink:href="#Sfumatura_senza_nome_18"/></defs><title>Risorsa 7</title><g id="Livello_2" data-name="Livello 2"><g id="Livello_1-2" data-name="Livello 1"><path class="cls-1" d="M92,.2a8.63,8.63,0,0,0-6.77,8.92c.57,9.8-.32,31.9-20,31.9-18,0-27.65,7.14-31.74,11.29a8.2,8.2,0,0,0-2.38,5.89c0,1.72.05,4.08.09,6.86h1.69a6.34,6.34,0,0,1,6.22,5.23V70.2a8.2,8.2,0,0,1,2.38-5.89C45.54,60.16,55.2,53,73.19,53c19.7,0,20.59-22.1,20-31.9A8.63,8.63,0,0,1,100,12.2a7.31,7.31,0,0,1,3.9.14C101,1.14,96.08-.7,92,.2Z"/><path class="cls-2" d="M10.11,72.83a6.35,6.35,0,0,1,6.33-6.34H26.93V57.9a6.35,6.35,0,0,0-6.33-6.34H6.33A6.35,6.35,0,0,0,0,57.9V98.38a6.35,6.35,0,0,0,6.33,6.33h3.78Z"/><path class="cls-3" d="M41.68,73.88A8.2,8.2,0,0,1,44.06,68C48.15,63.84,57.81,56.7,75.8,56.7c19.7,0,20.59-22.1,20-31.9a8.63,8.63,0,0,1,6.77-8.92c5.26-1.16,11.81,2.2,13.84,24a9.74,9.74,0,0,1,0,1.08,64,64,0,0,1-2,13.3c-1.13,4.43,1.7,8.8,6.41,10.14,5.79,1.66,11.7,5.34,9.43,13.51a7.8,7.8,0,0,0,.88,6.55c1.79,2.65,3.23,7.19-1,13.13a8.34,8.34,0,0,0-1.41,5.93,10.72,10.72,0,0,1-4.35,10.51,8.91,8.91,0,0,0-3.59,5c-.76,3-3.38,7.06-12,7.06C95,126.14,42,130.75,42,114.81,42,102,41.78,81.53,41.68,73.88Z"/><rect class="cls-2" x="12.11" y="68.24" width="26.93" height="53.15" rx="6.33" ry="6.33"/></g></g></svg>