<?xml version="1.0" standalone="no"?>
<!DOCTYPE svg PUBLIC "-//W3C//DTD SVG 20010904//EN"
 "http://www.w3.org/TR/2001/REC-SVG-20010904/DTD/svg10.dtd">
<svg version="1.0" xmlns="http://www.w3.org/2000/svg"
 width="16.000000pt" height="16.000000pt" viewBox="0 0 16.000000 16.000000"
 preserveAspectRatio="xMidYMid meet">
<metadata>
Created by potrace 1.11, written by Peter Selinger 2001-2013
</metadata>
<g transform="translate(0.000000,16.000000) scale(0.012903,-0.012903)"
fill="#000000" stroke="none">
<path d="M475 1229 c-69 -16 -95 -30 -96 -53 -6 -171 32 -452 98 -716 35 -141
127 -427 142 -443 21 -21 169 502 205 723 27 168 26 156 40 390 2 25 -1 53 -5
62 -20 38 -271 63 -384 37z"/>
<path d="M248 1149 c-56 -22 -118 -59 -137 -83 -37 -44 78 -395 212 -646 72
-135 219 -370 232 -370 2 0 -14 44 -35 98 -110 282 -188 629 -207 917 -3 50
-8 93 -12 97 -3 3 -27 -2 -53 -13z"/>
<path d="M929 1118 c-1 -29 -3 -62 -4 -73 -1 -11 -5 -51 -9 -90 -4 -38 -14
-108 -22 -155 -8 -47 -17 -98 -20 -115 -21 -122 -108 -417 -164 -557 l-30 -73
31 35 c47 55 192 303 258 442 72 151 133 324 157 443 l17 87 -24 20 c-29 23
-158 88 -176 88 -9 0 -13 -17 -14 -52z"/>
</g>
</svg>
